<svg xmlns="http://www.w3.org/2000/svg" xmlns:xlink="http://www.w3.org/1999/xlink" width="417" zoomAndPan="magnify" viewBox="0 0 312.75 86.999996" height="116" preserveAspectRatio="xMidYMid meet" version="1.0"><defs><g/><clipPath id="aa5c6eed4d"><path d="M 154 0.0351562 L 252 0.0351562 L 252 82 L 154 82 Z M 154 0.0351562 " clip-rule="nonzero"/></clipPath><clipPath id="2c539c9c1c"><path d="M 32 0.0351562 L 189 0.0351562 L 189 86.964844 L 32 86.964844 Z M 32 0.0351562 " clip-rule="nonzero"/></clipPath></defs><g fill="#ffffff" fill-opacity="1"><g transform="translate(115.346517, 11.562894)"><g><path d="M 3.609375 -5.5 C 3.085938 -5.5 2.679688 -5.300781 2.390625 -4.90625 C 2.109375 -4.507812 1.96875 -3.960938 1.96875 -3.265625 C 1.96875 -1.796875 2.515625 -1.0625 3.609375 -1.0625 C 4.066406 -1.0625 4.625 -1.175781 5.28125 -1.40625 L 5.28125 -0.25 C 4.75 -0.0195312 4.148438 0.09375 3.484375 0.09375 C 2.523438 0.09375 1.789062 -0.191406 1.28125 -0.765625 C 0.78125 -1.347656 0.53125 -2.179688 0.53125 -3.265625 C 0.53125 -3.953125 0.65625 -4.550781 0.90625 -5.0625 C 1.15625 -5.570312 1.507812 -5.960938 1.96875 -6.234375 C 2.4375 -6.515625 2.984375 -6.65625 3.609375 -6.65625 C 4.242188 -6.65625 4.882812 -6.5 5.53125 -6.1875 L 5.078125 -5.0625 C 4.835938 -5.175781 4.59375 -5.273438 4.34375 -5.359375 C 4.09375 -5.453125 3.847656 -5.5 3.609375 -5.5 Z M 3.609375 -5.5 "/></g></g><g transform="translate(121.200686, 11.562894)"><g><path d="M 3.90625 0 L 3.640625 -0.6875 L 3.609375 -0.6875 C 3.367188 -0.394531 3.128906 -0.191406 2.890625 -0.078125 C 2.648438 0.0351562 2.332031 0.09375 1.9375 0.09375 C 1.457031 0.09375 1.078125 -0.0390625 0.796875 -0.3125 C 0.523438 -0.59375 0.390625 -0.988281 0.390625 -1.5 C 0.390625 -2.03125 0.570312 -2.421875 0.9375 -2.671875 C 1.3125 -2.929688 1.875 -3.070312 2.625 -3.09375 L 3.5 -3.125 L 3.5 -3.34375 C 3.5 -3.851562 3.238281 -4.109375 2.71875 -4.109375 C 2.320312 -4.109375 1.851562 -3.984375 1.3125 -3.734375 L 0.859375 -4.671875 C 1.429688 -4.972656 2.066406 -5.125 2.765625 -5.125 C 3.441406 -5.125 3.957031 -4.972656 4.3125 -4.671875 C 4.675781 -4.378906 4.859375 -3.9375 4.859375 -3.34375 L 4.859375 0 Z M 3.5 -2.328125 L 2.96875 -2.3125 C 2.570312 -2.289062 2.273438 -2.210938 2.078125 -2.078125 C 1.890625 -1.953125 1.796875 -1.753906 1.796875 -1.484375 C 1.796875 -1.097656 2.015625 -0.90625 2.453125 -0.90625 C 2.765625 -0.90625 3.015625 -0.992188 3.203125 -1.171875 C 3.398438 -1.359375 3.5 -1.601562 3.5 -1.90625 Z M 3.5 -2.328125 "/></g></g><g transform="translate(126.749811, 11.562894)"><g><path d="M 5.203125 0 L 3.84375 0 L 3.84375 -2.921875 C 3.84375 -3.285156 3.78125 -3.554688 3.65625 -3.734375 C 3.539062 -3.921875 3.351562 -4.015625 3.09375 -4.015625 C 2.738281 -4.015625 2.484375 -3.882812 2.328125 -3.625 C 2.171875 -3.375 2.09375 -2.953125 2.09375 -2.359375 L 2.09375 0 L 0.71875 0 L 0.71875 -5.015625 L 1.765625 -5.015625 L 1.953125 -4.375 L 2.015625 -4.375 C 2.148438 -4.601562 2.34375 -4.78125 2.59375 -4.90625 C 2.851562 -5.039062 3.148438 -5.109375 3.484375 -5.109375 C 4.234375 -5.109375 4.738281 -4.863281 5 -4.375 L 5.125 -4.375 C 5.257812 -4.601562 5.457031 -4.78125 5.71875 -4.90625 C 5.976562 -5.039062 6.273438 -5.109375 6.609375 -5.109375 C 7.171875 -5.109375 7.597656 -4.960938 7.890625 -4.671875 C 8.179688 -4.378906 8.328125 -3.910156 8.328125 -3.265625 L 8.328125 0 L 6.96875 0 L 6.96875 -2.921875 C 6.96875 -3.285156 6.90625 -3.554688 6.78125 -3.734375 C 6.65625 -3.921875 6.460938 -4.015625 6.203125 -4.015625 C 5.867188 -4.015625 5.617188 -3.894531 5.453125 -3.65625 C 5.285156 -3.414062 5.203125 -3.035156 5.203125 -2.515625 Z M 5.203125 0 "/></g></g><g transform="translate(135.771063, 11.562894)"><g><path d="M 3.46875 0.09375 C 2.882812 0.09375 2.425781 -0.117188 2.09375 -0.546875 L 2.015625 -0.546875 C 2.066406 -0.128906 2.09375 0.109375 2.09375 0.171875 L 2.09375 2.203125 L 0.71875 2.203125 L 0.71875 -5.015625 L 1.828125 -5.015625 L 2.015625 -4.359375 L 2.09375 -4.359375 C 2.40625 -4.859375 2.878906 -5.109375 3.515625 -5.109375 C 4.097656 -5.109375 4.554688 -4.878906 4.890625 -4.421875 C 5.234375 -3.960938 5.40625 -3.328125 5.40625 -2.515625 C 5.40625 -1.984375 5.328125 -1.519531 5.171875 -1.125 C 5.015625 -0.726562 4.789062 -0.425781 4.5 -0.21875 C 4.207031 -0.0078125 3.863281 0.09375 3.46875 0.09375 Z M 3.0625 -4.015625 C 2.726562 -4.015625 2.484375 -3.910156 2.328125 -3.703125 C 2.171875 -3.492188 2.09375 -3.148438 2.09375 -2.671875 L 2.09375 -2.53125 C 2.09375 -1.988281 2.171875 -1.597656 2.328125 -1.359375 C 2.484375 -1.128906 2.738281 -1.015625 3.09375 -1.015625 C 3.695312 -1.015625 4 -1.519531 4 -2.53125 C 4 -3.03125 3.921875 -3.398438 3.765625 -3.640625 C 3.617188 -3.890625 3.382812 -4.015625 3.0625 -4.015625 Z M 3.0625 -4.015625 "/></g></g><g transform="translate(141.584859, 11.562894)"><g><path d="M 1.8125 -2.515625 C 1.8125 -2.015625 1.890625 -1.640625 2.046875 -1.390625 C 2.210938 -1.140625 2.476562 -1.015625 2.84375 -1.015625 C 3.207031 -1.015625 3.46875 -1.140625 3.625 -1.390625 C 3.789062 -1.640625 3.875 -2.015625 3.875 -2.515625 C 3.875 -3.015625 3.789062 -3.382812 3.625 -3.625 C 3.46875 -3.875 3.207031 -4 2.84375 -4 C 2.476562 -4 2.210938 -3.875 2.046875 -3.625 C 1.890625 -3.382812 1.8125 -3.015625 1.8125 -2.515625 Z M 5.28125 -2.515625 C 5.28125 -1.703125 5.0625 -1.0625 4.625 -0.59375 C 4.195312 -0.132812 3.597656 0.09375 2.828125 0.09375 C 2.347656 0.09375 1.921875 -0.0078125 1.546875 -0.21875 C 1.179688 -0.4375 0.898438 -0.742188 0.703125 -1.140625 C 0.503906 -1.535156 0.40625 -1.992188 0.40625 -2.515625 C 0.40625 -3.335938 0.617188 -3.972656 1.046875 -4.421875 C 1.484375 -4.878906 2.085938 -5.109375 2.859375 -5.109375 C 3.335938 -5.109375 3.757812 -5.003906 4.125 -4.796875 C 4.5 -4.585938 4.785156 -4.285156 4.984375 -3.890625 C 5.179688 -3.503906 5.28125 -3.046875 5.28125 -2.515625 Z M 5.28125 -2.515625 "/></g></g><g transform="translate(147.273047, 11.562894)"><g/></g><g transform="translate(149.659575, 11.562894)"><g><path d="M 2.796875 -4.140625 C 2.503906 -4.140625 2.273438 -4.046875 2.109375 -3.859375 C 1.941406 -3.671875 1.847656 -3.410156 1.828125 -3.078125 L 3.75 -3.078125 C 3.738281 -3.410156 3.648438 -3.671875 3.484375 -3.859375 C 3.316406 -4.046875 3.085938 -4.140625 2.796875 -4.140625 Z M 2.984375 0.09375 C 2.179688 0.09375 1.550781 -0.128906 1.09375 -0.578125 C 0.632812 -1.023438 0.40625 -1.65625 0.40625 -2.46875 C 0.40625 -3.3125 0.613281 -3.960938 1.03125 -4.421875 C 1.457031 -4.878906 2.039062 -5.109375 2.78125 -5.109375 C 3.488281 -5.109375 4.039062 -4.90625 4.4375 -4.5 C 4.832031 -4.09375 5.03125 -3.535156 5.03125 -2.828125 L 5.03125 -2.171875 L 1.796875 -2.171875 C 1.816406 -1.773438 1.929688 -1.46875 2.140625 -1.25 C 2.359375 -1.03125 2.660156 -0.921875 3.046875 -0.921875 C 3.347656 -0.921875 3.632812 -0.953125 3.90625 -1.015625 C 4.175781 -1.078125 4.457031 -1.179688 4.75 -1.328125 L 4.75 -0.265625 C 4.507812 -0.140625 4.253906 -0.0507812 3.984375 0 C 3.710938 0.0625 3.378906 0.09375 2.984375 0.09375 Z M 2.984375 0.09375 "/></g></g><g transform="translate(155.087578, 11.562894)"><g><path d="M 2.09375 0 L 0.71875 0 L 0.71875 -6.984375 L 2.09375 -6.984375 Z M 2.09375 0 "/></g></g><g transform="translate(157.891299, 11.562894)"><g><path d="M 2.796875 -4.140625 C 2.503906 -4.140625 2.273438 -4.046875 2.109375 -3.859375 C 1.941406 -3.671875 1.847656 -3.410156 1.828125 -3.078125 L 3.75 -3.078125 C 3.738281 -3.410156 3.648438 -3.671875 3.484375 -3.859375 C 3.316406 -4.046875 3.085938 -4.140625 2.796875 -4.140625 Z M 2.984375 0.09375 C 2.179688 0.09375 1.550781 -0.128906 1.09375 -0.578125 C 0.632812 -1.023438 0.40625 -1.65625 0.40625 -2.46875 C 0.40625 -3.3125 0.613281 -3.960938 1.03125 -4.421875 C 1.457031 -4.878906 2.039062 -5.109375 2.78125 -5.109375 C 3.488281 -5.109375 4.039062 -4.90625 4.4375 -4.5 C 4.832031 -4.09375 5.03125 -3.535156 5.03125 -2.828125 L 5.03125 -2.171875 L 1.796875 -2.171875 C 1.816406 -1.773438 1.929688 -1.46875 2.140625 -1.25 C 2.359375 -1.03125 2.660156 -0.921875 3.046875 -0.921875 C 3.347656 -0.921875 3.632812 -0.953125 3.90625 -1.015625 C 4.175781 -1.078125 4.457031 -1.179688 4.75 -1.328125 L 4.75 -0.265625 C 4.507812 -0.140625 4.253906 -0.0507812 3.984375 0 C 3.710938 0.0625 3.378906 0.09375 2.984375 0.09375 Z M 2.984375 0.09375 "/></g></g><g transform="translate(163.319303, 11.562894)"><g><path d="M 2.75 0.09375 C 1.1875 0.09375 0.40625 -0.765625 0.40625 -2.484375 C 0.40625 -3.335938 0.617188 -3.988281 1.046875 -4.4375 C 1.472656 -4.882812 2.082031 -5.109375 2.875 -5.109375 C 3.457031 -5.109375 3.976562 -4.992188 4.4375 -4.765625 L 4.03125 -3.703125 C 3.8125 -3.796875 3.609375 -3.867188 3.421875 -3.921875 C 3.242188 -3.972656 3.0625 -4 2.875 -4 C 2.164062 -4 1.8125 -3.492188 1.8125 -2.484375 C 1.8125 -1.503906 2.164062 -1.015625 2.875 -1.015625 C 3.132812 -1.015625 3.375 -1.050781 3.59375 -1.125 C 3.820312 -1.195312 4.050781 -1.304688 4.28125 -1.453125 L 4.28125 -0.28125 C 4.0625 -0.144531 3.835938 -0.0507812 3.609375 0 C 3.378906 0.0625 3.09375 0.09375 2.75 0.09375 Z M 2.75 0.09375 "/></g></g><g transform="translate(168.043012, 11.562894)"><g><path d="M 2.828125 -1 C 3.066406 -1 3.351562 -1.050781 3.6875 -1.15625 L 3.6875 -0.140625 C 3.351562 0.015625 2.9375 0.09375 2.4375 0.09375 C 1.882812 0.09375 1.484375 -0.0390625 1.234375 -0.3125 C 0.984375 -0.59375 0.859375 -1.007812 0.859375 -1.5625 L 0.859375 -3.984375 L 0.203125 -3.984375 L 0.203125 -4.5625 L 0.96875 -5.03125 L 1.359375 -6.078125 L 2.234375 -6.078125 L 2.234375 -5.015625 L 3.640625 -5.015625 L 3.640625 -3.984375 L 2.234375 -3.984375 L 2.234375 -1.5625 C 2.234375 -1.375 2.285156 -1.234375 2.390625 -1.140625 C 2.503906 -1.046875 2.648438 -1 2.828125 -1 Z M 2.828125 -1 "/></g></g><g transform="translate(172.031024, 11.562894)"><g><path d="M 3.515625 -5.109375 C 3.703125 -5.109375 3.859375 -5.09375 3.984375 -5.0625 L 3.875 -3.78125 C 3.757812 -3.8125 3.625 -3.828125 3.46875 -3.828125 C 3.03125 -3.828125 2.691406 -3.710938 2.453125 -3.484375 C 2.210938 -3.265625 2.09375 -2.953125 2.09375 -2.546875 L 2.09375 0 L 0.71875 0 L 0.71875 -5.015625 L 1.75 -5.015625 L 1.953125 -4.171875 L 2.015625 -4.171875 C 2.171875 -4.453125 2.378906 -4.675781 2.640625 -4.84375 C 2.910156 -5.019531 3.203125 -5.109375 3.515625 -5.109375 Z M 3.515625 -5.109375 "/></g></g><g transform="translate(176.202961, 11.562894)"><g><path d="M 0.65625 -6.3125 C 0.65625 -6.757812 0.90625 -6.984375 1.40625 -6.984375 C 1.90625 -6.984375 2.15625 -6.757812 2.15625 -6.3125 C 2.15625 -6.101562 2.09375 -5.9375 1.96875 -5.8125 C 1.84375 -5.695312 1.65625 -5.640625 1.40625 -5.640625 C 0.90625 -5.640625 0.65625 -5.863281 0.65625 -6.3125 Z M 2.09375 0 L 0.71875 0 L 0.71875 -5.015625 L 2.09375 -5.015625 Z M 2.09375 0 "/></g></g><g transform="translate(179.006681, 11.562894)"><g><path d="M 2.75 0.09375 C 1.1875 0.09375 0.40625 -0.765625 0.40625 -2.484375 C 0.40625 -3.335938 0.617188 -3.988281 1.046875 -4.4375 C 1.472656 -4.882812 2.082031 -5.109375 2.875 -5.109375 C 3.457031 -5.109375 3.976562 -4.992188 4.4375 -4.765625 L 4.03125 -3.703125 C 3.8125 -3.796875 3.609375 -3.867188 3.421875 -3.921875 C 3.242188 -3.972656 3.0625 -4 2.875 -4 C 2.164062 -4 1.8125 -3.492188 1.8125 -2.484375 C 1.8125 -1.503906 2.164062 -1.015625 2.875 -1.015625 C 3.132812 -1.015625 3.375 -1.050781 3.59375 -1.125 C 3.820312 -1.195312 4.050781 -1.304688 4.28125 -1.453125 L 4.28125 -0.28125 C 4.0625 -0.144531 3.835938 -0.0507812 3.609375 0 C 3.378906 0.0625 3.09375 0.09375 2.75 0.09375 Z M 2.75 0.09375 "/></g></g><g transform="translate(183.73039, 11.562894)"><g><path d="M 1.8125 -2.515625 C 1.8125 -2.015625 1.890625 -1.640625 2.046875 -1.390625 C 2.210938 -1.140625 2.476562 -1.015625 2.84375 -1.015625 C 3.207031 -1.015625 3.46875 -1.140625 3.625 -1.390625 C 3.789062 -1.640625 3.875 -2.015625 3.875 -2.515625 C 3.875 -3.015625 3.789062 -3.382812 3.625 -3.625 C 3.46875 -3.875 3.207031 -4 2.84375 -4 C 2.476562 -4 2.210938 -3.875 2.046875 -3.625 C 1.890625 -3.382812 1.8125 -3.015625 1.8125 -2.515625 Z M 5.28125 -2.515625 C 5.28125 -1.703125 5.0625 -1.0625 4.625 -0.59375 C 4.195312 -0.132812 3.597656 0.09375 2.828125 0.09375 C 2.347656 0.09375 1.921875 -0.0078125 1.546875 -0.21875 C 1.179688 -0.4375 0.898438 -0.742188 0.703125 -1.140625 C 0.503906 -1.535156 0.40625 -1.992188 0.40625 -2.515625 C 0.40625 -3.335938 0.617188 -3.972656 1.046875 -4.421875 C 1.484375 -4.878906 2.085938 -5.109375 2.859375 -5.109375 C 3.335938 -5.109375 3.757812 -5.003906 4.125 -4.796875 C 4.5 -4.585938 4.785156 -4.285156 4.984375 -3.890625 C 5.179688 -3.503906 5.28125 -3.046875 5.28125 -2.515625 Z M 5.28125 -2.515625 "/></g></g><g transform="translate(189.418579, 11.562894)"><g/></g><g transform="translate(191.805107, 11.562894)"><g><path d="M 0.375 -2.515625 C 0.375 -3.304688 0.488281 -4.046875 0.71875 -4.734375 C 0.945312 -5.429688 1.28125 -6.039062 1.71875 -6.5625 L 2.84375 -6.5625 C 2.414062 -5.976562 2.09375 -5.34375 1.875 -4.65625 C 1.664062 -3.96875 1.5625 -3.257812 1.5625 -2.53125 C 1.5625 -1.789062 1.671875 -1.078125 1.890625 -0.390625 C 2.109375 0.285156 2.421875 0.898438 2.828125 1.453125 L 1.71875 1.453125 C 1.28125 0.941406 0.945312 0.347656 0.71875 -0.328125 C 0.488281 -1.003906 0.375 -1.734375 0.375 -2.515625 Z M 0.375 -2.515625 "/></g></g><g transform="translate(194.918358, 11.562894)"><g><path d="M 1.8125 -2.515625 C 1.8125 -2.015625 1.890625 -1.640625 2.046875 -1.390625 C 2.210938 -1.140625 2.476562 -1.015625 2.84375 -1.015625 C 3.207031 -1.015625 3.46875 -1.140625 3.625 -1.390625 C 3.789062 -1.640625 3.875 -2.015625 3.875 -2.515625 C 3.875 -3.015625 3.789062 -3.382812 3.625 -3.625 C 3.46875 -3.875 3.207031 -4 2.84375 -4 C 2.476562 -4 2.210938 -3.875 2.046875 -3.625 C 1.890625 -3.382812 1.8125 -3.015625 1.8125 -2.515625 Z M 5.28125 -2.515625 C 5.28125 -1.703125 5.0625 -1.0625 4.625 -0.59375 C 4.195312 -0.132812 3.597656 0.09375 2.828125 0.09375 C 2.347656 0.09375 1.921875 -0.0078125 1.546875 -0.21875 C 1.179688 -0.4375 0.898438 -0.742188 0.703125 -1.140625 C 0.503906 -1.535156 0.40625 -1.992188 0.40625 -2.515625 C 0.40625 -3.335938 0.617188 -3.972656 1.046875 -4.421875 C 1.484375 -4.878906 2.085938 -5.109375 2.859375 -5.109375 C 3.335938 -5.109375 3.757812 -5.003906 4.125 -4.796875 C 4.5 -4.585938 4.785156 -4.285156 4.984375 -3.890625 C 5.179688 -3.503906 5.28125 -3.046875 5.28125 -2.515625 Z M 5.28125 -2.515625 "/></g></g><g transform="translate(200.606547, 11.562894)"><g><path d="M 3.515625 -5.109375 C 3.703125 -5.109375 3.859375 -5.09375 3.984375 -5.0625 L 3.875 -3.78125 C 3.757812 -3.8125 3.625 -3.828125 3.46875 -3.828125 C 3.03125 -3.828125 2.691406 -3.710938 2.453125 -3.484375 C 2.210938 -3.265625 2.09375 -2.953125 2.09375 -2.546875 L 2.09375 0 L 0.71875 0 L 0.71875 -5.015625 L 1.75 -5.015625 L 1.953125 -4.171875 L 2.015625 -4.171875 C 2.171875 -4.453125 2.378906 -4.675781 2.640625 -4.84375 C 2.910156 -5.019531 3.203125 -5.109375 3.515625 -5.109375 Z M 3.515625 -5.109375 "/></g></g><g transform="translate(204.778484, 11.562894)"><g><path d="M 0.65625 -6.3125 C 0.65625 -6.757812 0.90625 -6.984375 1.40625 -6.984375 C 1.90625 -6.984375 2.15625 -6.757812 2.15625 -6.3125 C 2.15625 -6.101562 2.09375 -5.9375 1.96875 -5.8125 C 1.84375 -5.695312 1.65625 -5.640625 1.40625 -5.640625 C 0.90625 -5.640625 0.65625 -5.863281 0.65625 -6.3125 Z M 2.09375 0 L 0.71875 0 L 0.71875 -5.015625 L 2.09375 -5.015625 Z M 2.09375 0 "/></g></g><g transform="translate(207.582205, 11.562894)"><g><path d="M 5.078125 -5.015625 L 5.078125 -4.3125 L 4.296875 -4.125 C 4.441406 -3.894531 4.515625 -3.640625 4.515625 -3.359375 C 4.515625 -2.828125 4.328125 -2.410156 3.953125 -2.109375 C 3.578125 -1.804688 3.054688 -1.65625 2.390625 -1.65625 L 2.140625 -1.671875 L 1.9375 -1.6875 C 1.800781 -1.582031 1.734375 -1.460938 1.734375 -1.328125 C 1.734375 -1.128906 1.984375 -1.03125 2.484375 -1.03125 L 3.328125 -1.03125 C 3.878906 -1.03125 4.300781 -0.910156 4.59375 -0.671875 C 4.882812 -0.441406 5.03125 -0.0976562 5.03125 0.359375 C 5.03125 0.941406 4.785156 1.394531 4.296875 1.71875 C 3.804688 2.039062 3.101562 2.203125 2.1875 2.203125 C 1.488281 2.203125 0.953125 2.078125 0.578125 1.828125 C 0.210938 1.585938 0.03125 1.25 0.03125 0.8125 C 0.03125 0.507812 0.125 0.253906 0.3125 0.046875 C 0.5 -0.148438 0.773438 -0.289062 1.140625 -0.375 C 0.992188 -0.4375 0.867188 -0.535156 0.765625 -0.671875 C 0.660156 -0.804688 0.609375 -0.953125 0.609375 -1.109375 C 0.609375 -1.296875 0.664062 -1.453125 0.78125 -1.578125 C 0.894531 -1.703125 1.054688 -1.828125 1.265625 -1.953125 C 0.992188 -2.066406 0.78125 -2.25 0.625 -2.5 C 0.476562 -2.75 0.40625 -3.046875 0.40625 -3.390625 C 0.40625 -3.941406 0.582031 -4.363281 0.9375 -4.65625 C 1.289062 -4.957031 1.800781 -5.109375 2.46875 -5.109375 C 2.601562 -5.109375 2.765625 -5.09375 2.953125 -5.0625 C 3.148438 -5.039062 3.273438 -5.023438 3.328125 -5.015625 Z M 1.21875 0.703125 C 1.21875 0.890625 1.304688 1.035156 1.484375 1.140625 C 1.660156 1.253906 1.914062 1.3125 2.25 1.3125 C 2.738281 1.3125 3.117188 1.242188 3.390625 1.109375 C 3.671875 0.972656 3.8125 0.789062 3.8125 0.5625 C 3.8125 0.375 3.726562 0.242188 3.5625 0.171875 C 3.394531 0.0976562 3.140625 0.0625 2.796875 0.0625 L 2.09375 0.0625 C 1.84375 0.0625 1.632812 0.117188 1.46875 0.234375 C 1.300781 0.359375 1.21875 0.515625 1.21875 0.703125 Z M 1.703125 -3.375 C 1.703125 -3.101562 1.765625 -2.882812 1.890625 -2.71875 C 2.015625 -2.5625 2.207031 -2.484375 2.46875 -2.484375 C 2.71875 -2.484375 2.898438 -2.5625 3.015625 -2.71875 C 3.140625 -2.882812 3.203125 -3.101562 3.203125 -3.375 C 3.203125 -3.976562 2.957031 -4.28125 2.46875 -4.28125 C 1.957031 -4.28125 1.703125 -3.976562 1.703125 -3.375 Z M 1.703125 -3.375 "/></g></g><g transform="translate(212.772453, 11.562894)"><g><path d="M 2.796875 -4.140625 C 2.503906 -4.140625 2.273438 -4.046875 2.109375 -3.859375 C 1.941406 -3.671875 1.847656 -3.410156 1.828125 -3.078125 L 3.75 -3.078125 C 3.738281 -3.410156 3.648438 -3.671875 3.484375 -3.859375 C 3.316406 -4.046875 3.085938 -4.140625 2.796875 -4.140625 Z M 2.984375 0.09375 C 2.179688 0.09375 1.550781 -0.128906 1.09375 -0.578125 C 0.632812 -1.023438 0.40625 -1.65625 0.40625 -2.46875 C 0.40625 -3.3125 0.613281 -3.960938 1.03125 -4.421875 C 1.457031 -4.878906 2.039062 -5.109375 2.78125 -5.109375 C 3.488281 -5.109375 4.039062 -4.90625 4.4375 -4.5 C 4.832031 -4.09375 5.03125 -3.535156 5.03125 -2.828125 L 5.03125 -2.171875 L 1.796875 -2.171875 C 1.816406 -1.773438 1.929688 -1.46875 2.140625 -1.25 C 2.359375 -1.03125 2.660156 -0.921875 3.046875 -0.921875 C 3.347656 -0.921875 3.632812 -0.953125 3.90625 -1.015625 C 4.175781 -1.078125 4.457031 -1.179688 4.75 -1.328125 L 4.75 -0.265625 C 4.507812 -0.140625 4.253906 -0.0507812 3.984375 0 C 3.710938 0.0625 3.378906 0.09375 2.984375 0.09375 Z M 2.984375 0.09375 "/></g></g><g transform="translate(218.200456, 11.562894)"><g><path d="M 5.34375 0 L 3.984375 0 L 3.984375 -2.921875 C 3.984375 -3.285156 3.914062 -3.554688 3.78125 -3.734375 C 3.65625 -3.921875 3.453125 -4.015625 3.171875 -4.015625 C 2.785156 -4.015625 2.507812 -3.882812 2.34375 -3.625 C 2.175781 -3.375 2.09375 -2.953125 2.09375 -2.359375 L 2.09375 0 L 0.71875 0 L 0.71875 -5.015625 L 1.765625 -5.015625 L 1.953125 -4.375 L 2.015625 -4.375 C 2.171875 -4.613281 2.382812 -4.796875 2.65625 -4.921875 C 2.925781 -5.046875 3.226562 -5.109375 3.5625 -5.109375 C 4.144531 -5.109375 4.585938 -4.945312 4.890625 -4.625 C 5.191406 -4.3125 5.34375 -3.859375 5.34375 -3.265625 Z M 5.34375 0 "/></g></g><g transform="translate(224.238549, 11.562894)"><g><path d="M 2.75 -2.515625 C 2.75 -1.734375 2.628906 -1 2.390625 -0.3125 C 2.160156 0.363281 1.828125 0.953125 1.390625 1.453125 L 0.28125 1.453125 C 0.6875 0.898438 1 0.285156 1.21875 -0.390625 C 1.4375 -1.078125 1.546875 -1.789062 1.546875 -2.53125 C 1.546875 -3.257812 1.4375 -3.96875 1.21875 -4.65625 C 1.007812 -5.34375 0.695312 -5.976562 0.28125 -6.5625 L 1.390625 -6.5625 C 1.828125 -6.039062 2.160156 -5.429688 2.390625 -4.734375 C 2.628906 -4.046875 2.75 -3.304688 2.75 -2.515625 Z M 2.75 -2.515625 "/></g></g></g><g fill="#ffffff" fill-opacity="1"><g transform="translate(173.388, 77.971092)"><g><path d="M 3.609375 -5.5 C 3.085938 -5.5 2.679688 -5.300781 2.390625 -4.90625 C 2.109375 -4.507812 1.96875 -3.960938 1.96875 -3.265625 C 1.96875 -1.796875 2.515625 -1.0625 3.609375 -1.0625 C 4.066406 -1.0625 4.625 -1.175781 5.28125 -1.40625 L 5.28125 -0.25 C 4.75 -0.0195312 4.148438 0.09375 3.484375 0.09375 C 2.523438 0.09375 1.789062 -0.191406 1.28125 -0.765625 C 0.78125 -1.347656 0.53125 -2.179688 0.53125 -3.265625 C 0.53125 -3.953125 0.65625 -4.550781 0.90625 -5.0625 C 1.15625 -5.570312 1.507812 -5.960938 1.96875 -6.234375 C 2.4375 -6.515625 2.984375 -6.65625 3.609375 -6.65625 C 4.242188 -6.65625 4.882812 -6.5 5.53125 -6.1875 L 5.078125 -5.0625 C 4.835938 -5.175781 4.59375 -5.273438 4.34375 -5.359375 C 4.09375 -5.453125 3.847656 -5.5 3.609375 -5.5 Z M 3.609375 -5.5 "/></g></g><g transform="translate(179.24217, 77.971092)"><g><path d="M 3.90625 0 L 3.640625 -0.6875 L 3.609375 -0.6875 C 3.367188 -0.394531 3.128906 -0.191406 2.890625 -0.078125 C 2.648438 0.0351562 2.332031 0.09375 1.9375 0.09375 C 1.457031 0.09375 1.078125 -0.0390625 0.796875 -0.3125 C 0.523438 -0.59375 0.390625 -0.988281 0.390625 -1.5 C 0.390625 -2.03125 0.570312 -2.421875 0.9375 -2.671875 C 1.3125 -2.929688 1.875 -3.070312 2.625 -3.09375 L 3.5 -3.125 L 3.5 -3.34375 C 3.5 -3.851562 3.238281 -4.109375 2.71875 -4.109375 C 2.320312 -4.109375 1.851562 -3.984375 1.3125 -3.734375 L 0.859375 -4.671875 C 1.429688 -4.972656 2.066406 -5.125 2.765625 -5.125 C 3.441406 -5.125 3.957031 -4.972656 4.3125 -4.671875 C 4.675781 -4.378906 4.859375 -3.9375 4.859375 -3.34375 L 4.859375 0 Z M 3.5 -2.328125 L 2.96875 -2.3125 C 2.570312 -2.289062 2.273438 -2.210938 2.078125 -2.078125 C 1.890625 -1.953125 1.796875 -1.753906 1.796875 -1.484375 C 1.796875 -1.097656 2.015625 -0.90625 2.453125 -0.90625 C 2.765625 -0.90625 3.015625 -0.992188 3.203125 -1.171875 C 3.398438 -1.359375 3.5 -1.601562 3.5 -1.90625 Z M 3.5 -2.328125 "/></g></g><g transform="translate(184.791294, 77.971092)"><g><path d="M 5.203125 0 L 3.84375 0 L 3.84375 -2.921875 C 3.84375 -3.285156 3.78125 -3.554688 3.65625 -3.734375 C 3.539062 -3.921875 3.351562 -4.015625 3.09375 -4.015625 C 2.738281 -4.015625 2.484375 -3.882812 2.328125 -3.625 C 2.171875 -3.375 2.09375 -2.953125 2.09375 -2.359375 L 2.09375 0 L 0.71875 0 L 0.71875 -5.015625 L 1.765625 -5.015625 L 1.953125 -4.375 L 2.015625 -4.375 C 2.148438 -4.601562 2.34375 -4.78125 2.59375 -4.90625 C 2.851562 -5.039062 3.148438 -5.109375 3.484375 -5.109375 C 4.234375 -5.109375 4.738281 -4.863281 5 -4.375 L 5.125 -4.375 C 5.257812 -4.601562 5.457031 -4.78125 5.71875 -4.90625 C 5.976562 -5.039062 6.273438 -5.109375 6.609375 -5.109375 C 7.171875 -5.109375 7.597656 -4.960938 7.890625 -4.671875 C 8.179688 -4.378906 8.328125 -3.910156 8.328125 -3.265625 L 8.328125 0 L 6.96875 0 L 6.96875 -2.921875 C 6.96875 -3.285156 6.90625 -3.554688 6.78125 -3.734375 C 6.65625 -3.921875 6.460938 -4.015625 6.203125 -4.015625 C 5.867188 -4.015625 5.617188 -3.894531 5.453125 -3.65625 C 5.285156 -3.414062 5.203125 -3.035156 5.203125 -2.515625 Z M 5.203125 0 "/></g></g><g transform="translate(193.812546, 77.971092)"><g><path d="M 3.46875 0.09375 C 2.882812 0.09375 2.425781 -0.117188 2.09375 -0.546875 L 2.015625 -0.546875 C 2.066406 -0.128906 2.09375 0.109375 2.09375 0.171875 L 2.09375 2.203125 L 0.71875 2.203125 L 0.71875 -5.015625 L 1.828125 -5.015625 L 2.015625 -4.359375 L 2.09375 -4.359375 C 2.40625 -4.859375 2.878906 -5.109375 3.515625 -5.109375 C 4.097656 -5.109375 4.554688 -4.878906 4.890625 -4.421875 C 5.234375 -3.960938 5.40625 -3.328125 5.40625 -2.515625 C 5.40625 -1.984375 5.328125 -1.519531 5.171875 -1.125 C 5.015625 -0.726562 4.789062 -0.425781 4.5 -0.21875 C 4.207031 -0.0078125 3.863281 0.09375 3.46875 0.09375 Z M 3.0625 -4.015625 C 2.726562 -4.015625 2.484375 -3.910156 2.328125 -3.703125 C 2.171875 -3.492188 2.09375 -3.148438 2.09375 -2.671875 L 2.09375 -2.53125 C 2.09375 -1.988281 2.171875 -1.597656 2.328125 -1.359375 C 2.484375 -1.128906 2.738281 -1.015625 3.09375 -1.015625 C 3.695312 -1.015625 4 -1.519531 4 -2.53125 C 4 -3.03125 3.921875 -3.398438 3.765625 -3.640625 C 3.617188 -3.890625 3.382812 -4.015625 3.0625 -4.015625 Z M 3.0625 -4.015625 "/></g></g><g transform="translate(199.626342, 77.971092)"><g><path d="M 1.8125 -2.515625 C 1.8125 -2.015625 1.890625 -1.640625 2.046875 -1.390625 C 2.210938 -1.140625 2.476562 -1.015625 2.84375 -1.015625 C 3.207031 -1.015625 3.46875 -1.140625 3.625 -1.390625 C 3.789062 -1.640625 3.875 -2.015625 3.875 -2.515625 C 3.875 -3.015625 3.789062 -3.382812 3.625 -3.625 C 3.46875 -3.875 3.207031 -4 2.84375 -4 C 2.476562 -4 2.210938 -3.875 2.046875 -3.625 C 1.890625 -3.382812 1.8125 -3.015625 1.8125 -2.515625 Z M 5.28125 -2.515625 C 5.28125 -1.703125 5.0625 -1.0625 4.625 -0.59375 C 4.195312 -0.132812 3.597656 0.09375 2.828125 0.09375 C 2.347656 0.09375 1.921875 -0.0078125 1.546875 -0.21875 C 1.179688 -0.4375 0.898438 -0.742188 0.703125 -1.140625 C 0.503906 -1.535156 0.40625 -1.992188 0.40625 -2.515625 C 0.40625 -3.335938 0.617188 -3.972656 1.046875 -4.421875 C 1.484375 -4.878906 2.085938 -5.109375 2.859375 -5.109375 C 3.335938 -5.109375 3.757812 -5.003906 4.125 -4.796875 C 4.5 -4.585938 4.785156 -4.285156 4.984375 -3.890625 C 5.179688 -3.503906 5.28125 -3.046875 5.28125 -2.515625 Z M 5.28125 -2.515625 "/></g></g><g transform="translate(205.314531, 77.971092)"><g><path d="M 4.21875 -1.484375 C 4.21875 -0.972656 4.035156 -0.582031 3.671875 -0.3125 C 3.316406 -0.0390625 2.785156 0.09375 2.078125 0.09375 C 1.710938 0.09375 1.398438 0.0664062 1.140625 0.015625 C 0.890625 -0.0351562 0.648438 -0.109375 0.421875 -0.203125 L 0.421875 -1.328125 C 0.671875 -1.210938 0.957031 -1.113281 1.28125 -1.03125 C 1.601562 -0.945312 1.882812 -0.90625 2.125 -0.90625 C 2.613281 -0.90625 2.859375 -1.050781 2.859375 -1.34375 C 2.859375 -1.445312 2.828125 -1.53125 2.765625 -1.59375 C 2.703125 -1.664062 2.585938 -1.742188 2.421875 -1.828125 C 2.265625 -1.910156 2.050781 -2.007812 1.78125 -2.125 C 1.394531 -2.289062 1.109375 -2.441406 0.921875 -2.578125 C 0.742188 -2.710938 0.613281 -2.867188 0.53125 -3.046875 C 0.445312 -3.222656 0.40625 -3.441406 0.40625 -3.703125 C 0.40625 -4.148438 0.578125 -4.492188 0.921875 -4.734375 C 1.273438 -4.984375 1.769531 -5.109375 2.40625 -5.109375 C 3.007812 -5.109375 3.59375 -4.976562 4.15625 -4.71875 L 3.75 -3.734375 C 3.5 -3.835938 3.265625 -3.921875 3.046875 -3.984375 C 2.828125 -4.054688 2.601562 -4.09375 2.375 -4.09375 C 1.96875 -4.09375 1.765625 -3.984375 1.765625 -3.765625 C 1.765625 -3.640625 1.828125 -3.53125 1.953125 -3.4375 C 2.085938 -3.351562 2.378906 -3.222656 2.828125 -3.046875 C 3.210938 -2.890625 3.492188 -2.742188 3.671875 -2.609375 C 3.859375 -2.472656 3.992188 -2.3125 4.078125 -2.125 C 4.171875 -1.945312 4.21875 -1.734375 4.21875 -1.484375 Z M 4.21875 -1.484375 "/></g></g><g transform="translate(209.881231, 77.971092)"><g/></g><g transform="translate(212.267758, 77.971092)"><g><path d="M 5.203125 0 L 3.84375 0 L 3.84375 -2.921875 C 3.84375 -3.285156 3.78125 -3.554688 3.65625 -3.734375 C 3.539062 -3.921875 3.351562 -4.015625 3.09375 -4.015625 C 2.738281 -4.015625 2.484375 -3.882812 2.328125 -3.625 C 2.171875 -3.375 2.09375 -2.953125 2.09375 -2.359375 L 2.09375 0 L 0.71875 0 L 0.71875 -5.015625 L 1.765625 -5.015625 L 1.953125 -4.375 L 2.015625 -4.375 C 2.148438 -4.601562 2.34375 -4.78125 2.59375 -4.90625 C 2.851562 -5.039062 3.148438 -5.109375 3.484375 -5.109375 C 4.234375 -5.109375 4.738281 -4.863281 5 -4.375 L 5.125 -4.375 C 5.257812 -4.601562 5.457031 -4.78125 5.71875 -4.90625 C 5.976562 -5.039062 6.273438 -5.109375 6.609375 -5.109375 C 7.171875 -5.109375 7.597656 -4.960938 7.890625 -4.671875 C 8.179688 -4.378906 8.328125 -3.910156 8.328125 -3.265625 L 8.328125 0 L 6.96875 0 L 6.96875 -2.921875 C 6.96875 -3.285156 6.90625 -3.554688 6.78125 -3.734375 C 6.65625 -3.921875 6.460938 -4.015625 6.203125 -4.015625 C 5.867188 -4.015625 5.617188 -3.894531 5.453125 -3.65625 C 5.285156 -3.414062 5.203125 -3.035156 5.203125 -2.515625 Z M 5.203125 0 "/></g></g><g transform="translate(221.28901, 77.971092)"><g><path d="M 3.90625 0 L 3.640625 -0.6875 L 3.609375 -0.6875 C 3.367188 -0.394531 3.128906 -0.191406 2.890625 -0.078125 C 2.648438 0.0351562 2.332031 0.09375 1.9375 0.09375 C 1.457031 0.09375 1.078125 -0.0390625 0.796875 -0.3125 C 0.523438 -0.59375 0.390625 -0.988281 0.390625 -1.5 C 0.390625 -2.03125 0.570312 -2.421875 0.9375 -2.671875 C 1.3125 -2.929688 1.875 -3.070312 2.625 -3.09375 L 3.5 -3.125 L 3.5 -3.34375 C 3.5 -3.851562 3.238281 -4.109375 2.71875 -4.109375 C 2.320312 -4.109375 1.851562 -3.984375 1.3125 -3.734375 L 0.859375 -4.671875 C 1.429688 -4.972656 2.066406 -5.125 2.765625 -5.125 C 3.441406 -5.125 3.957031 -4.972656 4.3125 -4.671875 C 4.675781 -4.378906 4.859375 -3.9375 4.859375 -3.34375 L 4.859375 0 Z M 3.5 -2.328125 L 2.96875 -2.3125 C 2.570312 -2.289062 2.273438 -2.210938 2.078125 -2.078125 C 1.890625 -1.953125 1.796875 -1.753906 1.796875 -1.484375 C 1.796875 -1.097656 2.015625 -0.90625 2.453125 -0.90625 C 2.765625 -0.90625 3.015625 -0.992188 3.203125 -1.171875 C 3.398438 -1.359375 3.5 -1.601562 3.5 -1.90625 Z M 3.5 -2.328125 "/></g></g><g transform="translate(226.838135, 77.971092)"><g><path d="M 5.078125 -5.015625 L 5.078125 -4.3125 L 4.296875 -4.125 C 4.441406 -3.894531 4.515625 -3.640625 4.515625 -3.359375 C 4.515625 -2.828125 4.328125 -2.410156 3.953125 -2.109375 C 3.578125 -1.804688 3.054688 -1.65625 2.390625 -1.65625 L 2.140625 -1.671875 L 1.9375 -1.6875 C 1.800781 -1.582031 1.734375 -1.460938 1.734375 -1.328125 C 1.734375 -1.128906 1.984375 -1.03125 2.484375 -1.03125 L 3.328125 -1.03125 C 3.878906 -1.03125 4.300781 -0.910156 4.59375 -0.671875 C 4.882812 -0.441406 5.03125 -0.0976562 5.03125 0.359375 C 5.03125 0.941406 4.785156 1.394531 4.296875 1.71875 C 3.804688 2.039062 3.101562 2.203125 2.1875 2.203125 C 1.488281 2.203125 0.953125 2.078125 0.578125 1.828125 C 0.210938 1.585938 0.03125 1.25 0.03125 0.8125 C 0.03125 0.507812 0.125 0.253906 0.3125 0.046875 C 0.5 -0.148438 0.773438 -0.289062 1.140625 -0.375 C 0.992188 -0.4375 0.867188 -0.535156 0.765625 -0.671875 C 0.660156 -0.804688 0.609375 -0.953125 0.609375 -1.109375 C 0.609375 -1.296875 0.664062 -1.453125 0.78125 -1.578125 C 0.894531 -1.703125 1.054688 -1.828125 1.265625 -1.953125 C 0.992188 -2.066406 0.78125 -2.25 0.625 -2.5 C 0.476562 -2.75 0.40625 -3.046875 0.40625 -3.390625 C 0.40625 -3.941406 0.582031 -4.363281 0.9375 -4.65625 C 1.289062 -4.957031 1.800781 -5.109375 2.46875 -5.109375 C 2.601562 -5.109375 2.765625 -5.09375 2.953125 -5.0625 C 3.148438 -5.039062 3.273438 -5.023438 3.328125 -5.015625 Z M 1.21875 0.703125 C 1.21875 0.890625 1.304688 1.035156 1.484375 1.140625 C 1.660156 1.253906 1.914062 1.3125 2.25 1.3125 C 2.738281 1.3125 3.117188 1.242188 3.390625 1.109375 C 3.671875 0.972656 3.8125 0.789062 3.8125 0.5625 C 3.8125 0.375 3.726562 0.242188 3.5625 0.171875 C 3.394531 0.0976562 3.140625 0.0625 2.796875 0.0625 L 2.09375 0.0625 C 1.84375 0.0625 1.632812 0.117188 1.46875 0.234375 C 1.300781 0.359375 1.21875 0.515625 1.21875 0.703125 Z M 1.703125 -3.375 C 1.703125 -3.101562 1.765625 -2.882812 1.890625 -2.71875 C 2.015625 -2.5625 2.207031 -2.484375 2.46875 -2.484375 C 2.71875 -2.484375 2.898438 -2.5625 3.015625 -2.71875 C 3.140625 -2.882812 3.203125 -3.101562 3.203125 -3.375 C 3.203125 -3.976562 2.957031 -4.28125 2.46875 -4.28125 C 1.957031 -4.28125 1.703125 -3.976562 1.703125 -3.375 Z M 1.703125 -3.375 "/></g></g><g transform="translate(232.028383, 77.971092)"><g><path d="M 5.34375 0 L 3.984375 0 L 3.984375 -2.921875 C 3.984375 -3.285156 3.914062 -3.554688 3.78125 -3.734375 C 3.65625 -3.921875 3.453125 -4.015625 3.171875 -4.015625 C 2.785156 -4.015625 2.507812 -3.882812 2.34375 -3.625 C 2.175781 -3.375 2.09375 -2.953125 2.09375 -2.359375 L 2.09375 0 L 0.71875 0 L 0.71875 -5.015625 L 1.765625 -5.015625 L 1.953125 -4.375 L 2.015625 -4.375 C 2.171875 -4.613281 2.382812 -4.796875 2.65625 -4.921875 C 2.925781 -5.046875 3.226562 -5.109375 3.5625 -5.109375 C 4.144531 -5.109375 4.585938 -4.945312 4.890625 -4.625 C 5.191406 -4.3125 5.34375 -3.859375 5.34375 -3.265625 Z M 5.34375 0 "/></g></g><g transform="translate(238.066476, 77.971092)"><g><path d="M 2.796875 -4.140625 C 2.503906 -4.140625 2.273438 -4.046875 2.109375 -3.859375 C 1.941406 -3.671875 1.847656 -3.410156 1.828125 -3.078125 L 3.75 -3.078125 C 3.738281 -3.410156 3.648438 -3.671875 3.484375 -3.859375 C 3.316406 -4.046875 3.085938 -4.140625 2.796875 -4.140625 Z M 2.984375 0.09375 C 2.179688 0.09375 1.550781 -0.128906 1.09375 -0.578125 C 0.632812 -1.023438 0.40625 -1.65625 0.40625 -2.46875 C 0.40625 -3.3125 0.613281 -3.960938 1.03125 -4.421875 C 1.457031 -4.878906 2.039062 -5.109375 2.78125 -5.109375 C 3.488281 -5.109375 4.039062 -4.90625 4.4375 -4.5 C 4.832031 -4.09375 5.03125 -3.535156 5.03125 -2.828125 L 5.03125 -2.171875 L 1.796875 -2.171875 C 1.816406 -1.773438 1.929688 -1.46875 2.140625 -1.25 C 2.359375 -1.03125 2.660156 -0.921875 3.046875 -0.921875 C 3.347656 -0.921875 3.632812 -0.953125 3.90625 -1.015625 C 4.175781 -1.078125 4.457031 -1.179688 4.75 -1.328125 L 4.75 -0.265625 C 4.507812 -0.140625 4.253906 -0.0507812 3.984375 0 C 3.710938 0.0625 3.378906 0.09375 2.984375 0.09375 Z M 2.984375 0.09375 "/></g></g><g transform="translate(243.49448, 77.971092)"><g><path d="M 2.828125 -1 C 3.066406 -1 3.351562 -1.050781 3.6875 -1.15625 L 3.6875 -0.140625 C 3.351562 0.015625 2.9375 0.09375 2.4375 0.09375 C 1.882812 0.09375 1.484375 -0.0390625 1.234375 -0.3125 C 0.984375 -0.59375 0.859375 -1.007812 0.859375 -1.5625 L 0.859375 -3.984375 L 0.203125 -3.984375 L 0.203125 -4.5625 L 0.96875 -5.03125 L 1.359375 -6.078125 L 2.234375 -6.078125 L 2.234375 -5.015625 L 3.640625 -5.015625 L 3.640625 -3.984375 L 2.234375 -3.984375 L 2.234375 -1.5625 C 2.234375 -1.375 2.285156 -1.234375 2.390625 -1.140625 C 2.503906 -1.046875 2.648438 -1 2.828125 -1 Z M 2.828125 -1 "/></g></g><g transform="translate(247.482492, 77.971092)"><g><path d="M 0.65625 -6.3125 C 0.65625 -6.757812 0.90625 -6.984375 1.40625 -6.984375 C 1.90625 -6.984375 2.15625 -6.757812 2.15625 -6.3125 C 2.15625 -6.101562 2.09375 -5.9375 1.96875 -5.8125 C 1.84375 -5.695312 1.65625 -5.640625 1.40625 -5.640625 C 0.90625 -5.640625 0.65625 -5.863281 0.65625 -6.3125 Z M 2.09375 0 L 0.71875 0 L 0.71875 -5.015625 L 2.09375 -5.015625 Z M 2.09375 0 "/></g></g><g transform="translate(250.286213, 77.971092)"><g><path d="M 2.75 0.09375 C 1.1875 0.09375 0.40625 -0.765625 0.40625 -2.484375 C 0.40625 -3.335938 0.617188 -3.988281 1.046875 -4.4375 C 1.472656 -4.882812 2.082031 -5.109375 2.875 -5.109375 C 3.457031 -5.109375 3.976562 -4.992188 4.4375 -4.765625 L 4.03125 -3.703125 C 3.8125 -3.796875 3.609375 -3.867188 3.421875 -3.921875 C 3.242188 -3.972656 3.0625 -4 2.875 -4 C 2.164062 -4 1.8125 -3.492188 1.8125 -2.484375 C 1.8125 -1.503906 2.164062 -1.015625 2.875 -1.015625 C 3.132812 -1.015625 3.375 -1.050781 3.59375 -1.125 C 3.820312 -1.195312 4.050781 -1.304688 4.28125 -1.453125 L 4.28125 -0.28125 C 4.0625 -0.144531 3.835938 -0.0507812 3.609375 0 C 3.378906 0.0625 3.09375 0.09375 2.75 0.09375 Z M 2.75 0.09375 "/></g></g><g transform="translate(255.009922, 77.971092)"><g><path d="M 1.8125 -2.515625 C 1.8125 -2.015625 1.890625 -1.640625 2.046875 -1.390625 C 2.210938 -1.140625 2.476562 -1.015625 2.84375 -1.015625 C 3.207031 -1.015625 3.46875 -1.140625 3.625 -1.390625 C 3.789062 -1.640625 3.875 -2.015625 3.875 -2.515625 C 3.875 -3.015625 3.789062 -3.382812 3.625 -3.625 C 3.46875 -3.875 3.207031 -4 2.84375 -4 C 2.476562 -4 2.210938 -3.875 2.046875 -3.625 C 1.890625 -3.382812 1.8125 -3.015625 1.8125 -2.515625 Z M 5.28125 -2.515625 C 5.28125 -1.703125 5.0625 -1.0625 4.625 -0.59375 C 4.195312 -0.132812 3.597656 0.09375 2.828125 0.09375 C 2.347656 0.09375 1.921875 -0.0078125 1.546875 -0.21875 C 1.179688 -0.4375 0.898438 -0.742188 0.703125 -1.140625 C 0.503906 -1.535156 0.40625 -1.992188 0.40625 -2.515625 C 0.40625 -3.335938 0.617188 -3.972656 1.046875 -4.421875 C 1.484375 -4.878906 2.085938 -5.109375 2.859375 -5.109375 C 3.335938 -5.109375 3.757812 -5.003906 4.125 -4.796875 C 4.5 -4.585938 4.785156 -4.285156 4.984375 -3.890625 C 5.179688 -3.503906 5.28125 -3.046875 5.28125 -2.515625 Z M 5.28125 -2.515625 "/></g></g><g transform="translate(260.698111, 77.971092)"><g><path d="M 4.21875 -1.484375 C 4.21875 -0.972656 4.035156 -0.582031 3.671875 -0.3125 C 3.316406 -0.0390625 2.785156 0.09375 2.078125 0.09375 C 1.710938 0.09375 1.398438 0.0664062 1.140625 0.015625 C 0.890625 -0.0351562 0.648438 -0.109375 0.421875 -0.203125 L 0.421875 -1.328125 C 0.671875 -1.210938 0.957031 -1.113281 1.28125 -1.03125 C 1.601562 -0.945312 1.882812 -0.90625 2.125 -0.90625 C 2.613281 -0.90625 2.859375 -1.050781 2.859375 -1.34375 C 2.859375 -1.445312 2.828125 -1.53125 2.765625 -1.59375 C 2.703125 -1.664062 2.585938 -1.742188 2.421875 -1.828125 C 2.265625 -1.910156 2.050781 -2.007812 1.78125 -2.125 C 1.394531 -2.289062 1.109375 -2.441406 0.921875 -2.578125 C 0.742188 -2.710938 0.613281 -2.867188 0.53125 -3.046875 C 0.445312 -3.222656 0.40625 -3.441406 0.40625 -3.703125 C 0.40625 -4.148438 0.578125 -4.492188 0.921875 -4.734375 C 1.273438 -4.984375 1.769531 -5.109375 2.40625 -5.109375 C 3.007812 -5.109375 3.59375 -4.976562 4.15625 -4.71875 L 3.75 -3.734375 C 3.5 -3.835938 3.265625 -3.921875 3.046875 -3.984375 C 2.828125 -4.054688 2.601562 -4.09375 2.375 -4.09375 C 1.96875 -4.09375 1.765625 -3.984375 1.765625 -3.765625 C 1.765625 -3.640625 1.828125 -3.53125 1.953125 -3.4375 C 2.085938 -3.351562 2.378906 -3.222656 2.828125 -3.046875 C 3.210938 -2.890625 3.492188 -2.742188 3.671875 -2.609375 C 3.859375 -2.472656 3.992188 -2.3125 4.078125 -2.125 C 4.171875 -1.945312 4.21875 -1.734375 4.21875 -1.484375 Z M 4.21875 -1.484375 "/></g></g><g transform="translate(265.264811, 77.971092)"><g/></g><g transform="translate(267.651339, 77.971092)"><g><path d="M 1.90625 0 L 0 -5.015625 L 1.4375 -5.015625 L 2.40625 -2.15625 C 2.507812 -1.789062 2.578125 -1.445312 2.609375 -1.125 L 2.625 -1.125 C 2.644531 -1.414062 2.710938 -1.757812 2.828125 -2.15625 L 3.796875 -5.015625 L 5.21875 -5.015625 L 3.3125 0 Z M 1.90625 0 "/></g></g><g transform="translate(272.877474, 77.971092)"><g><path d="M 3.90625 0 L 3.640625 -0.6875 L 3.609375 -0.6875 C 3.367188 -0.394531 3.128906 -0.191406 2.890625 -0.078125 C 2.648438 0.0351562 2.332031 0.09375 1.9375 0.09375 C 1.457031 0.09375 1.078125 -0.0390625 0.796875 -0.3125 C 0.523438 -0.59375 0.390625 -0.988281 0.390625 -1.5 C 0.390625 -2.03125 0.570312 -2.421875 0.9375 -2.671875 C 1.3125 -2.929688 1.875 -3.070312 2.625 -3.09375 L 3.5 -3.125 L 3.5 -3.34375 C 3.5 -3.851562 3.238281 -4.109375 2.71875 -4.109375 C 2.320312 -4.109375 1.851562 -3.984375 1.3125 -3.734375 L 0.859375 -4.671875 C 1.429688 -4.972656 2.066406 -5.125 2.765625 -5.125 C 3.441406 -5.125 3.957031 -4.972656 4.3125 -4.671875 C 4.675781 -4.378906 4.859375 -3.9375 4.859375 -3.34375 L 4.859375 0 Z M 3.5 -2.328125 L 2.96875 -2.3125 C 2.570312 -2.289062 2.273438 -2.210938 2.078125 -2.078125 C 1.890625 -1.953125 1.796875 -1.753906 1.796875 -1.484375 C 1.796875 -1.097656 2.015625 -0.90625 2.453125 -0.90625 C 2.765625 -0.90625 3.015625 -0.992188 3.203125 -1.171875 C 3.398438 -1.359375 3.5 -1.601562 3.5 -1.90625 Z M 3.5 -2.328125 "/></g></g><g transform="translate(278.426599, 77.971092)"><g><path d="M 3.515625 -5.109375 C 3.703125 -5.109375 3.859375 -5.09375 3.984375 -5.0625 L 3.875 -3.78125 C 3.757812 -3.8125 3.625 -3.828125 3.46875 -3.828125 C 3.03125 -3.828125 2.691406 -3.710938 2.453125 -3.484375 C 2.210938 -3.265625 2.09375 -2.953125 2.09375 -2.546875 L 2.09375 0 L 0.71875 0 L 0.71875 -5.015625 L 1.75 -5.015625 L 1.953125 -4.171875 L 2.015625 -4.171875 C 2.171875 -4.453125 2.378906 -4.675781 2.640625 -4.84375 C 2.910156 -5.019531 3.203125 -5.109375 3.515625 -5.109375 Z M 3.515625 -5.109375 "/></g></g><g transform="translate(282.598535, 77.971092)"><g><path d="M 0.65625 -6.3125 C 0.65625 -6.757812 0.90625 -6.984375 1.40625 -6.984375 C 1.90625 -6.984375 2.15625 -6.757812 2.15625 -6.3125 C 2.15625 -6.101562 2.09375 -5.9375 1.96875 -5.8125 C 1.84375 -5.695312 1.65625 -5.640625 1.40625 -5.640625 C 0.90625 -5.640625 0.65625 -5.863281 0.65625 -6.3125 Z M 2.09375 0 L 0.71875 0 L 0.71875 -5.015625 L 2.09375 -5.015625 Z M 2.09375 0 "/></g></g><g transform="translate(285.402256, 77.971092)"><g><path d="M 3.90625 0 L 3.640625 -0.6875 L 3.609375 -0.6875 C 3.367188 -0.394531 3.128906 -0.191406 2.890625 -0.078125 C 2.648438 0.0351562 2.332031 0.09375 1.9375 0.09375 C 1.457031 0.09375 1.078125 -0.0390625 0.796875 -0.3125 C 0.523438 -0.59375 0.390625 -0.988281 0.390625 -1.5 C 0.390625 -2.03125 0.570312 -2.421875 0.9375 -2.671875 C 1.3125 -2.929688 1.875 -3.070312 2.625 -3.09375 L 3.5 -3.125 L 3.5 -3.34375 C 3.5 -3.851562 3.238281 -4.109375 2.71875 -4.109375 C 2.320312 -4.109375 1.851562 -3.984375 1.3125 -3.734375 L 0.859375 -4.671875 C 1.429688 -4.972656 2.066406 -5.125 2.765625 -5.125 C 3.441406 -5.125 3.957031 -4.972656 4.3125 -4.671875 C 4.675781 -4.378906 4.859375 -3.9375 4.859375 -3.34375 L 4.859375 0 Z M 3.5 -2.328125 L 2.96875 -2.3125 C 2.570312 -2.289062 2.273438 -2.210938 2.078125 -2.078125 C 1.890625 -1.953125 1.796875 -1.753906 1.796875 -1.484375 C 1.796875 -1.097656 2.015625 -0.90625 2.453125 -0.90625 C 2.765625 -0.90625 3.015625 -0.992188 3.203125 -1.171875 C 3.398438 -1.359375 3.5 -1.601562 3.5 -1.90625 Z M 3.5 -2.328125 "/></g></g><g transform="translate(290.95138, 77.971092)"><g><path d="M 3.515625 -5.109375 C 4.097656 -5.109375 4.554688 -4.875 4.890625 -4.40625 C 5.234375 -3.945312 5.40625 -3.316406 5.40625 -2.515625 C 5.40625 -1.691406 5.226562 -1.050781 4.875 -0.59375 C 4.53125 -0.132812 4.0625 0.09375 3.46875 0.09375 C 2.882812 0.09375 2.425781 -0.117188 2.09375 -0.546875 L 1.984375 -0.546875 L 1.765625 0 L 0.71875 0 L 0.71875 -6.984375 L 2.09375 -6.984375 L 2.09375 -5.359375 C 2.09375 -5.148438 2.070312 -4.816406 2.03125 -4.359375 L 2.09375 -4.359375 C 2.40625 -4.859375 2.878906 -5.109375 3.515625 -5.109375 Z M 3.0625 -4.015625 C 2.726562 -4.015625 2.484375 -3.910156 2.328125 -3.703125 C 2.171875 -3.492188 2.09375 -3.148438 2.09375 -2.671875 L 2.09375 -2.53125 C 2.09375 -1.988281 2.171875 -1.597656 2.328125 -1.359375 C 2.484375 -1.128906 2.738281 -1.015625 3.09375 -1.015625 C 3.375 -1.015625 3.59375 -1.144531 3.75 -1.40625 C 3.914062 -1.664062 4 -2.039062 4 -2.53125 C 4 -3.03125 3.914062 -3.398438 3.75 -3.640625 C 3.582031 -3.890625 3.351562 -4.015625 3.0625 -4.015625 Z M 3.0625 -4.015625 "/></g></g><g transform="translate(296.765176, 77.971092)"><g><path d="M 2.09375 0 L 0.71875 0 L 0.71875 -6.984375 L 2.09375 -6.984375 Z M 2.09375 0 "/></g></g><g transform="translate(299.568897, 77.971092)"><g><path d="M 2.796875 -4.140625 C 2.503906 -4.140625 2.273438 -4.046875 2.109375 -3.859375 C 1.941406 -3.671875 1.847656 -3.410156 1.828125 -3.078125 L 3.75 -3.078125 C 3.738281 -3.410156 3.648438 -3.671875 3.484375 -3.859375 C 3.316406 -4.046875 3.085938 -4.140625 2.796875 -4.140625 Z M 2.984375 0.09375 C 2.179688 0.09375 1.550781 -0.128906 1.09375 -0.578125 C 0.632812 -1.023438 0.40625 -1.65625 0.40625 -2.46875 C 0.40625 -3.3125 0.613281 -3.960938 1.03125 -4.421875 C 1.457031 -4.878906 2.039062 -5.109375 2.78125 -5.109375 C 3.488281 -5.109375 4.039062 -4.90625 4.4375 -4.5 C 4.832031 -4.09375 5.03125 -3.535156 5.03125 -2.828125 L 5.03125 -2.171875 L 1.796875 -2.171875 C 1.816406 -1.773438 1.929688 -1.46875 2.140625 -1.25 C 2.359375 -1.03125 2.660156 -0.921875 3.046875 -0.921875 C 3.347656 -0.921875 3.632812 -0.953125 3.90625 -1.015625 C 4.175781 -1.078125 4.457031 -1.179688 4.75 -1.328125 L 4.75 -0.265625 C 4.507812 -0.140625 4.253906 -0.0507812 3.984375 0 C 3.710938 0.0625 3.378906 0.09375 2.984375 0.09375 Z M 2.984375 0.09375 "/></g></g><g transform="translate(304.9969, 77.971092)"><g><path d="M 4.21875 -1.484375 C 4.21875 -0.972656 4.035156 -0.582031 3.671875 -0.3125 C 3.316406 -0.0390625 2.785156 0.09375 2.078125 0.09375 C 1.710938 0.09375 1.398438 0.0664062 1.140625 0.015625 C 0.890625 -0.0351562 0.648438 -0.109375 0.421875 -0.203125 L 0.421875 -1.328125 C 0.671875 -1.210938 0.957031 -1.113281 1.28125 -1.03125 C 1.601562 -0.945312 1.882812 -0.90625 2.125 -0.90625 C 2.613281 -0.90625 2.859375 -1.050781 2.859375 -1.34375 C 2.859375 -1.445312 2.828125 -1.53125 2.765625 -1.59375 C 2.703125 -1.664062 2.585938 -1.742188 2.421875 -1.828125 C 2.265625 -1.910156 2.050781 -2.007812 1.78125 -2.125 C 1.394531 -2.289062 1.109375 -2.441406 0.921875 -2.578125 C 0.742188 -2.710938 0.613281 -2.867188 0.53125 -3.046875 C 0.445312 -3.222656 0.40625 -3.441406 0.40625 -3.703125 C 0.40625 -4.148438 0.578125 -4.492188 0.921875 -4.734375 C 1.273438 -4.984375 1.769531 -5.109375 2.40625 -5.109375 C 3.007812 -5.109375 3.59375 -4.976562 4.15625 -4.71875 L 3.75 -3.734375 C 3.5 -3.835938 3.265625 -3.921875 3.046875 -3.984375 C 2.828125 -4.054688 2.601562 -4.09375 2.375 -4.09375 C 1.96875 -4.09375 1.765625 -3.984375 1.765625 -3.765625 C 1.765625 -3.640625 1.828125 -3.53125 1.953125 -3.4375 C 2.085938 -3.351562 2.378906 -3.222656 2.828125 -3.046875 C 3.210938 -2.890625 3.492188 -2.742188 3.671875 -2.609375 C 3.859375 -2.472656 3.992188 -2.3125 4.078125 -2.125 C 4.171875 -1.945312 4.21875 -1.734375 4.21875 -1.484375 Z M 4.21875 -1.484375 "/></g></g></g><g fill="#ffffff" fill-opacity="1"><g transform="translate(2.876842, 81.647108)"><g><path d="M 3.609375 -5.5 C 3.085938 -5.5 2.679688 -5.300781 2.390625 -4.90625 C 2.109375 -4.507812 1.96875 -3.960938 1.96875 -3.265625 C 1.96875 -1.796875 2.515625 -1.0625 3.609375 -1.0625 C 4.066406 -1.0625 4.625 -1.175781 5.28125 -1.40625 L 5.28125 -0.25 C 4.75 -0.0195312 4.148438 0.09375 3.484375 0.09375 C 2.523438 0.09375 1.789062 -0.191406 1.28125 -0.765625 C 0.78125 -1.347656 0.53125 -2.179688 0.53125 -3.265625 C 0.53125 -3.953125 0.65625 -4.550781 0.90625 -5.0625 C 1.15625 -5.570312 1.507812 -5.960938 1.96875 -6.234375 C 2.4375 -6.515625 2.984375 -6.65625 3.609375 -6.65625 C 4.242188 -6.65625 4.882812 -6.5 5.53125 -6.1875 L 5.078125 -5.0625 C 4.835938 -5.175781 4.59375 -5.273438 4.34375 -5.359375 C 4.09375 -5.453125 3.847656 -5.5 3.609375 -5.5 Z M 3.609375 -5.5 "/></g></g><g transform="translate(8.731011, 81.647108)"><g><path d="M 3.90625 0 L 3.640625 -0.6875 L 3.609375 -0.6875 C 3.367188 -0.394531 3.128906 -0.191406 2.890625 -0.078125 C 2.648438 0.0351562 2.332031 0.09375 1.9375 0.09375 C 1.457031 0.09375 1.078125 -0.0390625 0.796875 -0.3125 C 0.523438 -0.59375 0.390625 -0.988281 0.390625 -1.5 C 0.390625 -2.03125 0.570312 -2.421875 0.9375 -2.671875 C 1.3125 -2.929688 1.875 -3.070312 2.625 -3.09375 L 3.5 -3.125 L 3.5 -3.34375 C 3.5 -3.851562 3.238281 -4.109375 2.71875 -4.109375 C 2.320312 -4.109375 1.851562 -3.984375 1.3125 -3.734375 L 0.859375 -4.671875 C 1.429688 -4.972656 2.066406 -5.125 2.765625 -5.125 C 3.441406 -5.125 3.957031 -4.972656 4.3125 -4.671875 C 4.675781 -4.378906 4.859375 -3.9375 4.859375 -3.34375 L 4.859375 0 Z M 3.5 -2.328125 L 2.96875 -2.3125 C 2.570312 -2.289062 2.273438 -2.210938 2.078125 -2.078125 C 1.890625 -1.953125 1.796875 -1.753906 1.796875 -1.484375 C 1.796875 -1.097656 2.015625 -0.90625 2.453125 -0.90625 C 2.765625 -0.90625 3.015625 -0.992188 3.203125 -1.171875 C 3.398438 -1.359375 3.5 -1.601562 3.5 -1.90625 Z M 3.5 -2.328125 "/></g></g><g transform="translate(14.280135, 81.647108)"><g><path d="M 3.515625 -5.109375 C 3.703125 -5.109375 3.859375 -5.09375 3.984375 -5.0625 L 3.875 -3.78125 C 3.757812 -3.8125 3.625 -3.828125 3.46875 -3.828125 C 3.03125 -3.828125 2.691406 -3.710938 2.453125 -3.484375 C 2.210938 -3.265625 2.09375 -2.953125 2.09375 -2.546875 L 2.09375 0 L 0.71875 0 L 0.71875 -5.015625 L 1.75 -5.015625 L 1.953125 -4.171875 L 2.015625 -4.171875 C 2.171875 -4.453125 2.378906 -4.675781 2.640625 -4.84375 C 2.910156 -5.019531 3.203125 -5.109375 3.515625 -5.109375 Z M 3.515625 -5.109375 "/></g></g><g transform="translate(18.452072, 81.647108)"><g><path d="M 5.078125 -5.015625 L 5.078125 -4.3125 L 4.296875 -4.125 C 4.441406 -3.894531 4.515625 -3.640625 4.515625 -3.359375 C 4.515625 -2.828125 4.328125 -2.410156 3.953125 -2.109375 C 3.578125 -1.804688 3.054688 -1.65625 2.390625 -1.65625 L 2.140625 -1.671875 L 1.9375 -1.6875 C 1.800781 -1.582031 1.734375 -1.460938 1.734375 -1.328125 C 1.734375 -1.128906 1.984375 -1.03125 2.484375 -1.03125 L 3.328125 -1.03125 C 3.878906 -1.03125 4.300781 -0.910156 4.59375 -0.671875 C 4.882812 -0.441406 5.03125 -0.0976562 5.03125 0.359375 C 5.03125 0.941406 4.785156 1.394531 4.296875 1.71875 C 3.804688 2.039062 3.101562 2.203125 2.1875 2.203125 C 1.488281 2.203125 0.953125 2.078125 0.578125 1.828125 C 0.210938 1.585938 0.03125 1.25 0.03125 0.8125 C 0.03125 0.507812 0.125 0.253906 0.3125 0.046875 C 0.5 -0.148438 0.773438 -0.289062 1.140625 -0.375 C 0.992188 -0.4375 0.867188 -0.535156 0.765625 -0.671875 C 0.660156 -0.804688 0.609375 -0.953125 0.609375 -1.109375 C 0.609375 -1.296875 0.664062 -1.453125 0.78125 -1.578125 C 0.894531 -1.703125 1.054688 -1.828125 1.265625 -1.953125 C 0.992188 -2.066406 0.78125 -2.25 0.625 -2.5 C 0.476562 -2.75 0.40625 -3.046875 0.40625 -3.390625 C 0.40625 -3.941406 0.582031 -4.363281 0.9375 -4.65625 C 1.289062 -4.957031 1.800781 -5.109375 2.46875 -5.109375 C 2.601562 -5.109375 2.765625 -5.09375 2.953125 -5.0625 C 3.148438 -5.039062 3.273438 -5.023438 3.328125 -5.015625 Z M 1.21875 0.703125 C 1.21875 0.890625 1.304688 1.035156 1.484375 1.140625 C 1.660156 1.253906 1.914062 1.3125 2.25 1.3125 C 2.738281 1.3125 3.117188 1.242188 3.390625 1.109375 C 3.671875 0.972656 3.8125 0.789062 3.8125 0.5625 C 3.8125 0.375 3.726562 0.242188 3.5625 0.171875 C 3.394531 0.0976562 3.140625 0.0625 2.796875 0.0625 L 2.09375 0.0625 C 1.84375 0.0625 1.632812 0.117188 1.46875 0.234375 C 1.300781 0.359375 1.21875 0.515625 1.21875 0.703125 Z M 1.703125 -3.375 C 1.703125 -3.101562 1.765625 -2.882812 1.890625 -2.71875 C 2.015625 -2.5625 2.207031 -2.484375 2.46875 -2.484375 C 2.71875 -2.484375 2.898438 -2.5625 3.015625 -2.71875 C 3.140625 -2.882812 3.203125 -3.101562 3.203125 -3.375 C 3.203125 -3.976562 2.957031 -4.28125 2.46875 -4.28125 C 1.957031 -4.28125 1.703125 -3.976562 1.703125 -3.375 Z M 1.703125 -3.375 "/></g></g><g transform="translate(23.64232, 81.647108)"><g><path d="M 3.90625 0 L 3.640625 -0.6875 L 3.609375 -0.6875 C 3.367188 -0.394531 3.128906 -0.191406 2.890625 -0.078125 C 2.648438 0.0351562 2.332031 0.09375 1.9375 0.09375 C 1.457031 0.09375 1.078125 -0.0390625 0.796875 -0.3125 C 0.523438 -0.59375 0.390625 -0.988281 0.390625 -1.5 C 0.390625 -2.03125 0.570312 -2.421875 0.9375 -2.671875 C 1.3125 -2.929688 1.875 -3.070312 2.625 -3.09375 L 3.5 -3.125 L 3.5 -3.34375 C 3.5 -3.851562 3.238281 -4.109375 2.71875 -4.109375 C 2.320312 -4.109375 1.851562 -3.984375 1.3125 -3.734375 L 0.859375 -4.671875 C 1.429688 -4.972656 2.066406 -5.125 2.765625 -5.125 C 3.441406 -5.125 3.957031 -4.972656 4.3125 -4.671875 C 4.675781 -4.378906 4.859375 -3.9375 4.859375 -3.34375 L 4.859375 0 Z M 3.5 -2.328125 L 2.96875 -2.3125 C 2.570312 -2.289062 2.273438 -2.210938 2.078125 -2.078125 C 1.890625 -1.953125 1.796875 -1.753906 1.796875 -1.484375 C 1.796875 -1.097656 2.015625 -0.90625 2.453125 -0.90625 C 2.765625 -0.90625 3.015625 -0.992188 3.203125 -1.171875 C 3.398438 -1.359375 3.5 -1.601562 3.5 -1.90625 Z M 3.5 -2.328125 "/></g></g><g transform="translate(29.191444, 81.647108)"><g><path d="M 4.21875 -1.484375 C 4.21875 -0.972656 4.035156 -0.582031 3.671875 -0.3125 C 3.316406 -0.0390625 2.785156 0.09375 2.078125 0.09375 C 1.710938 0.09375 1.398438 0.0664062 1.140625 0.015625 C 0.890625 -0.0351562 0.648438 -0.109375 0.421875 -0.203125 L 0.421875 -1.328125 C 0.671875 -1.210938 0.957031 -1.113281 1.28125 -1.03125 C 1.601562 -0.945312 1.882812 -0.90625 2.125 -0.90625 C 2.613281 -0.90625 2.859375 -1.050781 2.859375 -1.34375 C 2.859375 -1.445312 2.828125 -1.53125 2.765625 -1.59375 C 2.703125 -1.664062 2.585938 -1.742188 2.421875 -1.828125 C 2.265625 -1.910156 2.050781 -2.007812 1.78125 -2.125 C 1.394531 -2.289062 1.109375 -2.441406 0.921875 -2.578125 C 0.742188 -2.710938 0.613281 -2.867188 0.53125 -3.046875 C 0.445312 -3.222656 0.40625 -3.441406 0.40625 -3.703125 C 0.40625 -4.148438 0.578125 -4.492188 0.921875 -4.734375 C 1.273438 -4.984375 1.769531 -5.109375 2.40625 -5.109375 C 3.007812 -5.109375 3.59375 -4.976562 4.15625 -4.71875 L 3.75 -3.734375 C 3.5 -3.835938 3.265625 -3.921875 3.046875 -3.984375 C 2.828125 -4.054688 2.601562 -4.09375 2.375 -4.09375 C 1.96875 -4.09375 1.765625 -3.984375 1.765625 -3.765625 C 1.765625 -3.640625 1.828125 -3.53125 1.953125 -3.4375 C 2.085938 -3.351562 2.378906 -3.222656 2.828125 -3.046875 C 3.210938 -2.890625 3.492188 -2.742188 3.671875 -2.609375 C 3.859375 -2.472656 3.992188 -2.3125 4.078125 -2.125 C 4.171875 -1.945312 4.21875 -1.734375 4.21875 -1.484375 Z M 4.21875 -1.484375 "/></g></g><g transform="translate(33.758145, 81.647108)"><g/></g><g transform="translate(36.144672, 81.647108)"><g><path d="M 2.796875 -4.140625 C 2.503906 -4.140625 2.273438 -4.046875 2.109375 -3.859375 C 1.941406 -3.671875 1.847656 -3.410156 1.828125 -3.078125 L 3.75 -3.078125 C 3.738281 -3.410156 3.648438 -3.671875 3.484375 -3.859375 C 3.316406 -4.046875 3.085938 -4.140625 2.796875 -4.140625 Z M 2.984375 0.09375 C 2.179688 0.09375 1.550781 -0.128906 1.09375 -0.578125 C 0.632812 -1.023438 0.40625 -1.65625 0.40625 -2.46875 C 0.40625 -3.3125 0.613281 -3.960938 1.03125 -4.421875 C 1.457031 -4.878906 2.039062 -5.109375 2.78125 -5.109375 C 3.488281 -5.109375 4.039062 -4.90625 4.4375 -4.5 C 4.832031 -4.09375 5.03125 -3.535156 5.03125 -2.828125 L 5.03125 -2.171875 L 1.796875 -2.171875 C 1.816406 -1.773438 1.929688 -1.46875 2.140625 -1.25 C 2.359375 -1.03125 2.660156 -0.921875 3.046875 -0.921875 C 3.347656 -0.921875 3.632812 -0.953125 3.90625 -1.015625 C 4.175781 -1.078125 4.457031 -1.179688 4.75 -1.328125 L 4.75 -0.265625 C 4.507812 -0.140625 4.253906 -0.0507812 3.984375 0 C 3.710938 0.0625 3.378906 0.09375 2.984375 0.09375 Z M 2.984375 0.09375 "/></g></g><g transform="translate(41.572676, 81.647108)"><g><path d="M 2.09375 0 L 0.71875 0 L 0.71875 -6.984375 L 2.09375 -6.984375 Z M 2.09375 0 "/></g></g><g transform="translate(44.376397, 81.647108)"><g><path d="M 2.796875 -4.140625 C 2.503906 -4.140625 2.273438 -4.046875 2.109375 -3.859375 C 1.941406 -3.671875 1.847656 -3.410156 1.828125 -3.078125 L 3.75 -3.078125 C 3.738281 -3.410156 3.648438 -3.671875 3.484375 -3.859375 C 3.316406 -4.046875 3.085938 -4.140625 2.796875 -4.140625 Z M 2.984375 0.09375 C 2.179688 0.09375 1.550781 -0.128906 1.09375 -0.578125 C 0.632812 -1.023438 0.40625 -1.65625 0.40625 -2.46875 C 0.40625 -3.3125 0.613281 -3.960938 1.03125 -4.421875 C 1.457031 -4.878906 2.039062 -5.109375 2.78125 -5.109375 C 3.488281 -5.109375 4.039062 -4.90625 4.4375 -4.5 C 4.832031 -4.09375 5.03125 -3.535156 5.03125 -2.828125 L 5.03125 -2.171875 L 1.796875 -2.171875 C 1.816406 -1.773438 1.929688 -1.46875 2.140625 -1.25 C 2.359375 -1.03125 2.660156 -0.921875 3.046875 -0.921875 C 3.347656 -0.921875 3.632812 -0.953125 3.90625 -1.015625 C 4.175781 -1.078125 4.457031 -1.179688 4.75 -1.328125 L 4.75 -0.265625 C 4.507812 -0.140625 4.253906 -0.0507812 3.984375 0 C 3.710938 0.0625 3.378906 0.09375 2.984375 0.09375 Z M 2.984375 0.09375 "/></g></g><g transform="translate(49.8044, 81.647108)"><g><path d="M 2.75 0.09375 C 1.1875 0.09375 0.40625 -0.765625 0.40625 -2.484375 C 0.40625 -3.335938 0.617188 -3.988281 1.046875 -4.4375 C 1.472656 -4.882812 2.082031 -5.109375 2.875 -5.109375 C 3.457031 -5.109375 3.976562 -4.992188 4.4375 -4.765625 L 4.03125 -3.703125 C 3.8125 -3.796875 3.609375 -3.867188 3.421875 -3.921875 C 3.242188 -3.972656 3.0625 -4 2.875 -4 C 2.164062 -4 1.8125 -3.492188 1.8125 -2.484375 C 1.8125 -1.503906 2.164062 -1.015625 2.875 -1.015625 C 3.132812 -1.015625 3.375 -1.050781 3.59375 -1.125 C 3.820312 -1.195312 4.050781 -1.304688 4.28125 -1.453125 L 4.28125 -0.28125 C 4.0625 -0.144531 3.835938 -0.0507812 3.609375 0 C 3.378906 0.0625 3.09375 0.09375 2.75 0.09375 Z M 2.75 0.09375 "/></g></g><g transform="translate(54.528109, 81.647108)"><g><path d="M 2.828125 -1 C 3.066406 -1 3.351562 -1.050781 3.6875 -1.15625 L 3.6875 -0.140625 C 3.351562 0.015625 2.9375 0.09375 2.4375 0.09375 C 1.882812 0.09375 1.484375 -0.0390625 1.234375 -0.3125 C 0.984375 -0.59375 0.859375 -1.007812 0.859375 -1.5625 L 0.859375 -3.984375 L 0.203125 -3.984375 L 0.203125 -4.5625 L 0.96875 -5.03125 L 1.359375 -6.078125 L 2.234375 -6.078125 L 2.234375 -5.015625 L 3.640625 -5.015625 L 3.640625 -3.984375 L 2.234375 -3.984375 L 2.234375 -1.5625 C 2.234375 -1.375 2.285156 -1.234375 2.390625 -1.140625 C 2.503906 -1.046875 2.648438 -1 2.828125 -1 Z M 2.828125 -1 "/></g></g><g transform="translate(58.516122, 81.647108)"><g><path d="M 3.515625 -5.109375 C 3.703125 -5.109375 3.859375 -5.09375 3.984375 -5.0625 L 3.875 -3.78125 C 3.757812 -3.8125 3.625 -3.828125 3.46875 -3.828125 C 3.03125 -3.828125 2.691406 -3.710938 2.453125 -3.484375 C 2.210938 -3.265625 2.09375 -2.953125 2.09375 -2.546875 L 2.09375 0 L 0.71875 0 L 0.71875 -5.015625 L 1.75 -5.015625 L 1.953125 -4.171875 L 2.015625 -4.171875 C 2.171875 -4.453125 2.378906 -4.675781 2.640625 -4.84375 C 2.910156 -5.019531 3.203125 -5.109375 3.515625 -5.109375 Z M 3.515625 -5.109375 "/></g></g><g transform="translate(62.688058, 81.647108)"><g><path d="M 0.65625 -6.3125 C 0.65625 -6.757812 0.90625 -6.984375 1.40625 -6.984375 C 1.90625 -6.984375 2.15625 -6.757812 2.15625 -6.3125 C 2.15625 -6.101562 2.09375 -5.9375 1.96875 -5.8125 C 1.84375 -5.695312 1.65625 -5.640625 1.40625 -5.640625 C 0.90625 -5.640625 0.65625 -5.863281 0.65625 -6.3125 Z M 2.09375 0 L 0.71875 0 L 0.71875 -5.015625 L 2.09375 -5.015625 Z M 2.09375 0 "/></g></g><g transform="translate(65.491779, 81.647108)"><g><path d="M 2.75 0.09375 C 1.1875 0.09375 0.40625 -0.765625 0.40625 -2.484375 C 0.40625 -3.335938 0.617188 -3.988281 1.046875 -4.4375 C 1.472656 -4.882812 2.082031 -5.109375 2.875 -5.109375 C 3.457031 -5.109375 3.976562 -4.992188 4.4375 -4.765625 L 4.03125 -3.703125 C 3.8125 -3.796875 3.609375 -3.867188 3.421875 -3.921875 C 3.242188 -3.972656 3.0625 -4 2.875 -4 C 2.164062 -4 1.8125 -3.492188 1.8125 -2.484375 C 1.8125 -1.503906 2.164062 -1.015625 2.875 -1.015625 C 3.132812 -1.015625 3.375 -1.050781 3.59375 -1.125 C 3.820312 -1.195312 4.050781 -1.304688 4.28125 -1.453125 L 4.28125 -0.28125 C 4.0625 -0.144531 3.835938 -0.0507812 3.609375 0 C 3.378906 0.0625 3.09375 0.09375 2.75 0.09375 Z M 2.75 0.09375 "/></g></g><g transform="translate(70.215488, 81.647108)"><g><path d="M 3.90625 0 L 3.640625 -0.6875 L 3.609375 -0.6875 C 3.367188 -0.394531 3.128906 -0.191406 2.890625 -0.078125 C 2.648438 0.0351562 2.332031 0.09375 1.9375 0.09375 C 1.457031 0.09375 1.078125 -0.0390625 0.796875 -0.3125 C 0.523438 -0.59375 0.390625 -0.988281 0.390625 -1.5 C 0.390625 -2.03125 0.570312 -2.421875 0.9375 -2.671875 C 1.3125 -2.929688 1.875 -3.070312 2.625 -3.09375 L 3.5 -3.125 L 3.5 -3.34375 C 3.5 -3.851562 3.238281 -4.109375 2.71875 -4.109375 C 2.320312 -4.109375 1.851562 -3.984375 1.3125 -3.734375 L 0.859375 -4.671875 C 1.429688 -4.972656 2.066406 -5.125 2.765625 -5.125 C 3.441406 -5.125 3.957031 -4.972656 4.3125 -4.671875 C 4.675781 -4.378906 4.859375 -3.9375 4.859375 -3.34375 L 4.859375 0 Z M 3.5 -2.328125 L 2.96875 -2.3125 C 2.570312 -2.289062 2.273438 -2.210938 2.078125 -2.078125 C 1.890625 -1.953125 1.796875 -1.753906 1.796875 -1.484375 C 1.796875 -1.097656 2.015625 -0.90625 2.453125 -0.90625 C 2.765625 -0.90625 3.015625 -0.992188 3.203125 -1.171875 C 3.398438 -1.359375 3.5 -1.601562 3.5 -1.90625 Z M 3.5 -2.328125 "/></g></g><g transform="translate(75.764612, 81.647108)"><g><path d="M 4.21875 -1.484375 C 4.21875 -0.972656 4.035156 -0.582031 3.671875 -0.3125 C 3.316406 -0.0390625 2.785156 0.09375 2.078125 0.09375 C 1.710938 0.09375 1.398438 0.0664062 1.140625 0.015625 C 0.890625 -0.0351562 0.648438 -0.109375 0.421875 -0.203125 L 0.421875 -1.328125 C 0.671875 -1.210938 0.957031 -1.113281 1.28125 -1.03125 C 1.601562 -0.945312 1.882812 -0.90625 2.125 -0.90625 C 2.613281 -0.90625 2.859375 -1.050781 2.859375 -1.34375 C 2.859375 -1.445312 2.828125 -1.53125 2.765625 -1.59375 C 2.703125 -1.664062 2.585938 -1.742188 2.421875 -1.828125 C 2.265625 -1.910156 2.050781 -2.007812 1.78125 -2.125 C 1.394531 -2.289062 1.109375 -2.441406 0.921875 -2.578125 C 0.742188 -2.710938 0.613281 -2.867188 0.53125 -3.046875 C 0.445312 -3.222656 0.40625 -3.441406 0.40625 -3.703125 C 0.40625 -4.148438 0.578125 -4.492188 0.921875 -4.734375 C 1.273438 -4.984375 1.769531 -5.109375 2.40625 -5.109375 C 3.007812 -5.109375 3.59375 -4.976562 4.15625 -4.71875 L 3.75 -3.734375 C 3.5 -3.835938 3.265625 -3.921875 3.046875 -3.984375 C 2.828125 -4.054688 2.601562 -4.09375 2.375 -4.09375 C 1.96875 -4.09375 1.765625 -3.984375 1.765625 -3.765625 C 1.765625 -3.640625 1.828125 -3.53125 1.953125 -3.4375 C 2.085938 -3.351562 2.378906 -3.222656 2.828125 -3.046875 C 3.210938 -2.890625 3.492188 -2.742188 3.671875 -2.609375 C 3.859375 -2.472656 3.992188 -2.3125 4.078125 -2.125 C 4.171875 -1.945312 4.21875 -1.734375 4.21875 -1.484375 Z M 4.21875 -1.484375 "/></g></g></g><g clip-path="url(#aa5c6eed4d)"><path stroke-linecap="butt" transform="matrix(0.587172, 0.465651, -0.465651, 0.587172, 172.279722, 12.534395)" fill="none" stroke-linejoin="miter" d="M -0.00221488 1.998848 L 108.430112 1.999865 " stroke="#fffae5" stroke-width="4" stroke-opacity="1" stroke-miterlimit="4"/></g><path stroke-linecap="round" transform="matrix(0.587172, 0.465651, -0.465651, 0.587172, 172.279722, 12.534395)" fill-opacity="1" fill="#fffae5" fill-rule="nonzero" stroke-linejoin="round" d="M 109.430923 -4.002841 L 117.431203 1.999937 L 109.429466 7.999693 Z M 109.430923 -4.002841 " stroke="#fffae5" stroke-width="4" stroke-opacity="1" stroke-miterlimit="4"/><g clip-path="url(#2c539c9c1c)"><path stroke-linecap="butt" transform="matrix(-0.681605, 0.311475, -0.311475, -0.681605, 171.967563, 15.070782)" fill="none" stroke-linejoin="miter" d="M 0.000748638 2.001136 L 179.351218 2.000876 " stroke="#fffae5" stroke-width="4" stroke-opacity="1" stroke-miterlimit="4"/></g><path stroke-linecap="round" transform="matrix(-0.681605, 0.311475, -0.311475, -0.681605, 171.967563, 15.070782)" fill-opacity="1" fill="#fffae5" fill-rule="nonzero" stroke-linejoin="round" d="M 180.351593 -4.000771 L 188.350023 1.998251 L 180.352068 8.000073 Z M 180.351593 -4.000771 " stroke="#fffae5" stroke-width="4" stroke-opacity="1" stroke-miterlimit="4"/></svg>