<svg xmlns="http://www.w3.org/2000/svg" xmlns:xlink="http://www.w3.org/1999/xlink" width="512" zoomAndPan="magnify" viewBox="0 0 384 39.749999" height="53" preserveAspectRatio="xMidYMid meet" version="1.0"><defs><g/></defs><g fill="#f5efd7" fill-opacity="1"><g transform="translate(7.968169, 27.402973)"><g><path d="M 8.5 -12.921875 C 7.257812 -12.921875 6.300781 -12.457031 5.625 -11.53125 C 4.957031 -10.613281 4.625 -9.328125 4.625 -7.671875 C 4.625 -4.234375 5.914062 -2.515625 8.5 -2.515625 C 9.582031 -2.515625 10.890625 -2.785156 12.421875 -3.328125 L 12.421875 -0.578125 C 11.160156 -0.046875 9.75 0.21875 8.1875 0.21875 C 5.945312 0.21875 4.226562 -0.460938 3.03125 -1.828125 C 1.84375 -3.191406 1.25 -5.144531 1.25 -7.6875 C 1.25 -9.289062 1.539062 -10.695312 2.125 -11.90625 C 2.707031 -13.113281 3.546875 -14.035156 4.640625 -14.671875 C 5.734375 -15.316406 7.019531 -15.640625 8.5 -15.640625 C 9.988281 -15.640625 11.492188 -15.28125 13.015625 -14.5625 L 11.953125 -11.90625 C 11.378906 -12.175781 10.800781 -12.410156 10.21875 -12.609375 C 9.632812 -12.816406 9.0625 -12.921875 8.5 -12.921875 Z M 8.5 -12.921875 "/></g></g></g><g fill="#f5efd7" fill-opacity="1"><g transform="translate(21.737529, 27.402973)"><g><path d="M 9.1875 0 L 8.5625 -1.609375 L 8.46875 -1.609375 C 7.925781 -0.921875 7.367188 -0.441406 6.796875 -0.171875 C 6.222656 0.0859375 5.476562 0.21875 4.5625 0.21875 C 3.425781 0.21875 2.53125 -0.101562 1.875 -0.75 C 1.226562 -1.40625 0.90625 -2.332031 0.90625 -3.53125 C 0.90625 -4.78125 1.34375 -5.703125 2.21875 -6.296875 C 3.09375 -6.890625 4.414062 -7.21875 6.1875 -7.28125 L 8.234375 -7.34375 L 8.234375 -7.859375 C 8.234375 -9.054688 7.617188 -9.65625 6.390625 -9.65625 C 5.453125 -9.65625 4.347656 -9.367188 3.078125 -8.796875 L 2 -10.96875 C 3.363281 -11.6875 4.867188 -12.046875 6.515625 -12.046875 C 8.097656 -12.046875 9.3125 -11.695312 10.15625 -11 C 11 -10.3125 11.421875 -9.265625 11.421875 -7.859375 L 11.421875 0 Z M 8.234375 -5.46875 L 6.984375 -5.421875 C 6.046875 -5.390625 5.347656 -5.21875 4.890625 -4.90625 C 4.429688 -4.601562 4.203125 -4.132812 4.203125 -3.5 C 4.203125 -2.59375 4.722656 -2.140625 5.765625 -2.140625 C 6.515625 -2.140625 7.113281 -2.351562 7.5625 -2.78125 C 8.007812 -3.207031 8.234375 -3.78125 8.234375 -4.5 Z M 8.234375 -5.46875 "/></g></g></g><g fill="#f5efd7" fill-opacity="1"><g transform="translate(34.789406, 27.402973)"><g><path d="M 8.265625 -12.015625 C 8.703125 -12.015625 9.066406 -11.984375 9.359375 -11.921875 L 9.109375 -8.90625 C 8.847656 -8.976562 8.535156 -9.015625 8.171875 -9.015625 C 7.140625 -9.015625 6.335938 -8.75 5.765625 -8.21875 C 5.191406 -7.6875 4.90625 -6.945312 4.90625 -6 L 4.90625 0 L 1.6875 0 L 1.6875 -11.796875 L 4.125 -11.796875 L 4.59375 -9.8125 L 4.765625 -9.8125 C 5.128906 -10.476562 5.617188 -11.007812 6.234375 -11.40625 C 6.859375 -11.8125 7.535156 -12.015625 8.265625 -12.015625 Z M 8.265625 -12.015625 "/></g></g></g><g fill="#f5efd7" fill-opacity="1"><g transform="translate(44.602053, 27.402973)"><g><path d="M 11.953125 -11.796875 L 11.953125 -10.15625 L 10.109375 -9.6875 C 10.441406 -9.15625 10.609375 -8.5625 10.609375 -7.90625 C 10.609375 -6.644531 10.164062 -5.660156 9.28125 -4.953125 C 8.40625 -4.242188 7.179688 -3.890625 5.609375 -3.890625 L 5.03125 -3.921875 L 4.5625 -3.984375 C 4.226562 -3.722656 4.0625 -3.441406 4.0625 -3.140625 C 4.0625 -2.671875 4.648438 -2.4375 5.828125 -2.4375 L 7.84375 -2.4375 C 9.132812 -2.4375 10.117188 -2.15625 10.796875 -1.59375 C 11.472656 -1.039062 11.8125 -0.226562 11.8125 0.84375 C 11.8125 2.21875 11.238281 3.285156 10.09375 4.046875 C 8.945312 4.804688 7.296875 5.1875 5.140625 5.1875 C 3.492188 5.1875 2.234375 4.898438 1.359375 4.328125 C 0.492188 3.753906 0.0625 2.953125 0.0625 1.921875 C 0.0625 1.210938 0.28125 0.617188 0.71875 0.140625 C 1.164062 -0.335938 1.820312 -0.679688 2.6875 -0.890625 C 2.351562 -1.023438 2.0625 -1.253906 1.8125 -1.578125 C 1.570312 -1.898438 1.453125 -2.238281 1.453125 -2.59375 C 1.453125 -3.039062 1.578125 -3.414062 1.828125 -3.71875 C 2.085938 -4.019531 2.46875 -4.3125 2.96875 -4.59375 C 2.34375 -4.863281 1.847656 -5.296875 1.484375 -5.890625 C 1.128906 -6.484375 0.953125 -7.179688 0.953125 -7.984375 C 0.953125 -9.265625 1.367188 -10.253906 2.203125 -10.953125 C 3.035156 -11.660156 4.234375 -12.015625 5.796875 -12.015625 C 6.117188 -12.015625 6.507812 -11.984375 6.96875 -11.921875 C 7.425781 -11.867188 7.71875 -11.828125 7.84375 -11.796875 Z M 2.84375 1.671875 C 2.84375 2.109375 3.054688 2.453125 3.484375 2.703125 C 3.910156 2.960938 4.507812 3.09375 5.28125 3.09375 C 6.425781 3.09375 7.328125 2.929688 7.984375 2.609375 C 8.640625 2.296875 8.96875 1.863281 8.96875 1.3125 C 8.96875 0.875 8.773438 0.566406 8.390625 0.390625 C 8.003906 0.222656 7.40625 0.140625 6.59375 0.140625 L 4.921875 0.140625 C 4.335938 0.140625 3.84375 0.28125 3.4375 0.5625 C 3.039062 0.84375 2.84375 1.210938 2.84375 1.671875 Z M 4.015625 -7.9375 C 4.015625 -7.289062 4.160156 -6.78125 4.453125 -6.40625 C 4.742188 -6.039062 5.191406 -5.859375 5.796875 -5.859375 C 6.398438 -5.859375 6.84375 -6.039062 7.125 -6.40625 C 7.40625 -6.78125 7.546875 -7.289062 7.546875 -7.9375 C 7.546875 -9.351562 6.960938 -10.0625 5.796875 -10.0625 C 4.609375 -10.0625 4.015625 -9.351562 4.015625 -7.9375 Z M 4.015625 -7.9375 "/></g></g></g><g fill="#f5efd7" fill-opacity="1"><g transform="translate(56.809831, 27.402973)"><g><path d="M 9.1875 0 L 8.5625 -1.609375 L 8.46875 -1.609375 C 7.925781 -0.921875 7.367188 -0.441406 6.796875 -0.171875 C 6.222656 0.0859375 5.476562 0.21875 4.5625 0.21875 C 3.425781 0.21875 2.53125 -0.101562 1.875 -0.75 C 1.226562 -1.40625 0.90625 -2.332031 0.90625 -3.53125 C 0.90625 -4.78125 1.34375 -5.703125 2.21875 -6.296875 C 3.09375 -6.890625 4.414062 -7.21875 6.1875 -7.28125 L 8.234375 -7.34375 L 8.234375 -7.859375 C 8.234375 -9.054688 7.617188 -9.65625 6.390625 -9.65625 C 5.453125 -9.65625 4.347656 -9.367188 3.078125 -8.796875 L 2 -10.96875 C 3.363281 -11.6875 4.867188 -12.046875 6.515625 -12.046875 C 8.097656 -12.046875 9.3125 -11.695312 10.15625 -11 C 11 -10.3125 11.421875 -9.265625 11.421875 -7.859375 L 11.421875 0 Z M 8.234375 -5.46875 L 6.984375 -5.421875 C 6.046875 -5.390625 5.347656 -5.21875 4.890625 -4.90625 C 4.429688 -4.601562 4.203125 -4.132812 4.203125 -3.5 C 4.203125 -2.59375 4.722656 -2.140625 5.765625 -2.140625 C 6.515625 -2.140625 7.113281 -2.351562 7.5625 -2.78125 C 8.007812 -3.207031 8.234375 -3.78125 8.234375 -4.5 Z M 8.234375 -5.46875 "/></g></g></g><g fill="#f5efd7" fill-opacity="1"><g transform="translate(151.685853, 27.402973)"><g><path d="M 8.5 -12.921875 C 7.257812 -12.921875 6.300781 -12.457031 5.625 -11.53125 C 4.957031 -10.613281 4.625 -9.328125 4.625 -7.671875 C 4.625 -4.234375 5.914062 -2.515625 8.5 -2.515625 C 9.582031 -2.515625 10.890625 -2.785156 12.421875 -3.328125 L 12.421875 -0.578125 C 11.160156 -0.046875 9.75 0.21875 8.1875 0.21875 C 5.945312 0.21875 4.226562 -0.460938 3.03125 -1.828125 C 1.84375 -3.191406 1.25 -5.144531 1.25 -7.6875 C 1.25 -9.289062 1.539062 -10.695312 2.125 -11.90625 C 2.707031 -13.113281 3.546875 -14.035156 4.640625 -14.671875 C 5.734375 -15.316406 7.019531 -15.640625 8.5 -15.640625 C 9.988281 -15.640625 11.492188 -15.28125 13.015625 -14.5625 L 11.953125 -11.90625 C 11.378906 -12.175781 10.800781 -12.410156 10.21875 -12.609375 C 9.632812 -12.816406 9.0625 -12.921875 8.5 -12.921875 Z M 8.5 -12.921875 "/></g></g></g><g fill="#f5efd7" fill-opacity="1"><g transform="translate(165.455213, 27.402973)"><g><path d="M 9.1875 0 L 8.5625 -1.609375 L 8.46875 -1.609375 C 7.925781 -0.921875 7.367188 -0.441406 6.796875 -0.171875 C 6.222656 0.0859375 5.476562 0.21875 4.5625 0.21875 C 3.425781 0.21875 2.53125 -0.101562 1.875 -0.75 C 1.226562 -1.40625 0.90625 -2.332031 0.90625 -3.53125 C 0.90625 -4.78125 1.34375 -5.703125 2.21875 -6.296875 C 3.09375 -6.890625 4.414062 -7.21875 6.1875 -7.28125 L 8.234375 -7.34375 L 8.234375 -7.859375 C 8.234375 -9.054688 7.617188 -9.65625 6.390625 -9.65625 C 5.453125 -9.65625 4.347656 -9.367188 3.078125 -8.796875 L 2 -10.96875 C 3.363281 -11.6875 4.867188 -12.046875 6.515625 -12.046875 C 8.097656 -12.046875 9.3125 -11.695312 10.15625 -11 C 11 -10.3125 11.421875 -9.265625 11.421875 -7.859375 L 11.421875 0 Z M 8.234375 -5.46875 L 6.984375 -5.421875 C 6.046875 -5.390625 5.347656 -5.21875 4.890625 -4.90625 C 4.429688 -4.601562 4.203125 -4.132812 4.203125 -3.5 C 4.203125 -2.59375 4.722656 -2.140625 5.765625 -2.140625 C 6.515625 -2.140625 7.113281 -2.351562 7.5625 -2.78125 C 8.007812 -3.207031 8.234375 -3.78125 8.234375 -4.5 Z M 8.234375 -5.46875 "/></g></g></g><g fill="#f5efd7" fill-opacity="1"><g transform="translate(178.50709, 27.402973)"><g><path d="M 12.25 0 L 9.03125 0 L 9.03125 -6.890625 C 9.03125 -7.742188 8.882812 -8.378906 8.59375 -8.796875 C 8.3125 -9.222656 7.867188 -9.4375 7.265625 -9.4375 C 6.441406 -9.4375 5.84375 -9.132812 5.46875 -8.53125 C 5.09375 -7.925781 4.90625 -6.929688 4.90625 -5.546875 L 4.90625 0 L 1.6875 0 L 1.6875 -11.796875 L 4.140625 -11.796875 L 4.578125 -10.28125 L 4.765625 -10.28125 C 5.078125 -10.820312 5.53125 -11.242188 6.125 -11.546875 C 6.726562 -11.859375 7.414062 -12.015625 8.1875 -12.015625 C 9.957031 -12.015625 11.15625 -11.4375 11.78125 -10.28125 L 12.0625 -10.28125 C 12.375 -10.832031 12.835938 -11.257812 13.453125 -11.5625 C 14.066406 -11.863281 14.765625 -12.015625 15.546875 -12.015625 C 16.878906 -12.015625 17.890625 -11.671875 18.578125 -10.984375 C 19.265625 -10.296875 19.609375 -9.195312 19.609375 -7.6875 L 19.609375 0 L 16.375 0 L 16.375 -6.890625 C 16.375 -7.742188 16.226562 -8.378906 15.9375 -8.796875 C 15.65625 -9.222656 15.210938 -9.4375 14.609375 -9.4375 C 13.816406 -9.4375 13.222656 -9.15625 12.828125 -8.59375 C 12.441406 -8.03125 12.25 -7.140625 12.25 -5.921875 Z M 12.25 0 "/></g></g></g><g fill="#f5efd7" fill-opacity="1"><g transform="translate(199.725622, 27.402973)"><g><path d="M 8.171875 0.21875 C 6.785156 0.21875 5.695312 -0.285156 4.90625 -1.296875 L 4.734375 -1.296875 C 4.847656 -0.316406 4.90625 0.25 4.90625 0.40625 L 4.90625 5.1875 L 1.6875 5.1875 L 1.6875 -11.796875 L 4.3125 -11.796875 L 4.765625 -10.265625 L 4.90625 -10.265625 C 5.65625 -11.429688 6.769531 -12.015625 8.25 -12.015625 C 9.644531 -12.015625 10.734375 -11.476562 11.515625 -10.40625 C 12.304688 -9.332031 12.703125 -7.835938 12.703125 -5.921875 C 12.703125 -4.660156 12.515625 -3.566406 12.140625 -2.640625 C 11.773438 -1.710938 11.25 -1.003906 10.5625 -0.515625 C 9.882812 -0.0234375 9.085938 0.21875 8.171875 0.21875 Z M 7.21875 -9.4375 C 6.425781 -9.4375 5.84375 -9.191406 5.46875 -8.703125 C 5.101562 -8.222656 4.914062 -7.414062 4.90625 -6.28125 L 4.90625 -5.9375 C 4.90625 -4.675781 5.09375 -3.769531 5.46875 -3.21875 C 5.84375 -2.664062 6.441406 -2.390625 7.265625 -2.390625 C 8.703125 -2.390625 9.421875 -3.582031 9.421875 -5.96875 C 9.421875 -7.125 9.242188 -7.988281 8.890625 -8.5625 C 8.535156 -9.144531 7.976562 -9.4375 7.21875 -9.4375 Z M 7.21875 -9.4375 "/></g></g></g><g fill="#f5efd7" fill-opacity="1"><g transform="translate(213.400021, 27.402973)"><g><path d="M 4.25 -5.921875 C 4.25 -4.753906 4.441406 -3.867188 4.828125 -3.265625 C 5.210938 -2.671875 5.835938 -2.375 6.703125 -2.375 C 7.554688 -2.375 8.171875 -2.671875 8.546875 -3.265625 C 8.921875 -3.859375 9.109375 -4.742188 9.109375 -5.921875 C 9.109375 -7.085938 8.921875 -7.960938 8.546875 -8.546875 C 8.171875 -9.128906 7.546875 -9.421875 6.671875 -9.421875 C 5.816406 -9.421875 5.195312 -9.128906 4.8125 -8.546875 C 4.4375 -7.972656 4.25 -7.097656 4.25 -5.921875 Z M 12.40625 -5.921875 C 12.40625 -3.992188 11.898438 -2.488281 10.890625 -1.40625 C 9.878906 -0.320312 8.46875 0.21875 6.65625 0.21875 C 5.519531 0.21875 4.519531 -0.03125 3.65625 -0.53125 C 2.789062 -1.03125 2.125 -1.742188 1.65625 -2.671875 C 1.195312 -3.597656 0.96875 -4.679688 0.96875 -5.921875 C 0.96875 -7.847656 1.46875 -9.34375 2.46875 -10.40625 C 3.476562 -11.476562 4.894531 -12.015625 6.71875 -12.015625 C 7.851562 -12.015625 8.851562 -11.769531 9.71875 -11.28125 C 10.582031 -10.789062 11.242188 -10.082031 11.703125 -9.15625 C 12.171875 -8.238281 12.40625 -7.160156 12.40625 -5.921875 Z M 12.40625 -5.921875 "/></g></g></g><g fill="#f5efd7" fill-opacity="1"><g transform="translate(313.516635, 27.402973)"><g><path d="M 8.5 -12.921875 C 7.257812 -12.921875 6.300781 -12.457031 5.625 -11.53125 C 4.957031 -10.613281 4.625 -9.328125 4.625 -7.671875 C 4.625 -4.234375 5.914062 -2.515625 8.5 -2.515625 C 9.582031 -2.515625 10.890625 -2.785156 12.421875 -3.328125 L 12.421875 -0.578125 C 11.160156 -0.046875 9.75 0.21875 8.1875 0.21875 C 5.945312 0.21875 4.226562 -0.460938 3.03125 -1.828125 C 1.84375 -3.191406 1.25 -5.144531 1.25 -7.6875 C 1.25 -9.289062 1.539062 -10.695312 2.125 -11.90625 C 2.707031 -13.113281 3.546875 -14.035156 4.640625 -14.671875 C 5.734375 -15.316406 7.019531 -15.640625 8.5 -15.640625 C 9.988281 -15.640625 11.492188 -15.28125 13.015625 -14.5625 L 11.953125 -11.90625 C 11.378906 -12.175781 10.800781 -12.410156 10.21875 -12.609375 C 9.632812 -12.816406 9.0625 -12.921875 8.5 -12.921875 Z M 8.5 -12.921875 "/></g></g></g><g fill="#f5efd7" fill-opacity="1"><g transform="translate(327.285996, 27.402973)"><g><path d="M 9.1875 0 L 8.5625 -1.609375 L 8.46875 -1.609375 C 7.925781 -0.921875 7.367188 -0.441406 6.796875 -0.171875 C 6.222656 0.0859375 5.476562 0.21875 4.5625 0.21875 C 3.425781 0.21875 2.53125 -0.101562 1.875 -0.75 C 1.226562 -1.40625 0.90625 -2.332031 0.90625 -3.53125 C 0.90625 -4.78125 1.34375 -5.703125 2.21875 -6.296875 C 3.09375 -6.890625 4.414062 -7.21875 6.1875 -7.28125 L 8.234375 -7.34375 L 8.234375 -7.859375 C 8.234375 -9.054688 7.617188 -9.65625 6.390625 -9.65625 C 5.453125 -9.65625 4.347656 -9.367188 3.078125 -8.796875 L 2 -10.96875 C 3.363281 -11.6875 4.867188 -12.046875 6.515625 -12.046875 C 8.097656 -12.046875 9.3125 -11.695312 10.15625 -11 C 11 -10.3125 11.421875 -9.265625 11.421875 -7.859375 L 11.421875 0 Z M 8.234375 -5.46875 L 6.984375 -5.421875 C 6.046875 -5.390625 5.347656 -5.21875 4.890625 -4.90625 C 4.429688 -4.601562 4.203125 -4.132812 4.203125 -3.5 C 4.203125 -2.59375 4.722656 -2.140625 5.765625 -2.140625 C 6.515625 -2.140625 7.113281 -2.351562 7.5625 -2.78125 C 8.007812 -3.207031 8.234375 -3.78125 8.234375 -4.5 Z M 8.234375 -5.46875 "/></g></g></g><g fill="#f5efd7" fill-opacity="1"><g transform="translate(340.337872, 27.402973)"><g><path d="M 8.265625 -12.015625 C 8.703125 -12.015625 9.066406 -11.984375 9.359375 -11.921875 L 9.109375 -8.90625 C 8.847656 -8.976562 8.535156 -9.015625 8.171875 -9.015625 C 7.140625 -9.015625 6.335938 -8.75 5.765625 -8.21875 C 5.191406 -7.6875 4.90625 -6.945312 4.90625 -6 L 4.90625 0 L 1.6875 0 L 1.6875 -11.796875 L 4.125 -11.796875 L 4.59375 -9.8125 L 4.765625 -9.8125 C 5.128906 -10.476562 5.617188 -11.007812 6.234375 -11.40625 C 6.859375 -11.8125 7.535156 -12.015625 8.265625 -12.015625 Z M 8.265625 -12.015625 "/></g></g></g><g fill="#f5efd7" fill-opacity="1"><g transform="translate(350.15052, 27.402973)"><g><path d="M 11.953125 -11.796875 L 11.953125 -10.15625 L 10.109375 -9.6875 C 10.441406 -9.15625 10.609375 -8.5625 10.609375 -7.90625 C 10.609375 -6.644531 10.164062 -5.660156 9.28125 -4.953125 C 8.40625 -4.242188 7.179688 -3.890625 5.609375 -3.890625 L 5.03125 -3.921875 L 4.5625 -3.984375 C 4.226562 -3.722656 4.0625 -3.441406 4.0625 -3.140625 C 4.0625 -2.671875 4.648438 -2.4375 5.828125 -2.4375 L 7.84375 -2.4375 C 9.132812 -2.4375 10.117188 -2.15625 10.796875 -1.59375 C 11.472656 -1.039062 11.8125 -0.226562 11.8125 0.84375 C 11.8125 2.21875 11.238281 3.285156 10.09375 4.046875 C 8.945312 4.804688 7.296875 5.1875 5.140625 5.1875 C 3.492188 5.1875 2.234375 4.898438 1.359375 4.328125 C 0.492188 3.753906 0.0625 2.953125 0.0625 1.921875 C 0.0625 1.210938 0.28125 0.617188 0.71875 0.140625 C 1.164062 -0.335938 1.820312 -0.679688 2.6875 -0.890625 C 2.351562 -1.023438 2.0625 -1.253906 1.8125 -1.578125 C 1.570312 -1.898438 1.453125 -2.238281 1.453125 -2.59375 C 1.453125 -3.039062 1.578125 -3.414062 1.828125 -3.71875 C 2.085938 -4.019531 2.46875 -4.3125 2.96875 -4.59375 C 2.34375 -4.863281 1.847656 -5.296875 1.484375 -5.890625 C 1.128906 -6.484375 0.953125 -7.179688 0.953125 -7.984375 C 0.953125 -9.265625 1.367188 -10.253906 2.203125 -10.953125 C 3.035156 -11.660156 4.234375 -12.015625 5.796875 -12.015625 C 6.117188 -12.015625 6.507812 -11.984375 6.96875 -11.921875 C 7.425781 -11.867188 7.71875 -11.828125 7.84375 -11.796875 Z M 2.84375 1.671875 C 2.84375 2.109375 3.054688 2.453125 3.484375 2.703125 C 3.910156 2.960938 4.507812 3.09375 5.28125 3.09375 C 6.425781 3.09375 7.328125 2.929688 7.984375 2.609375 C 8.640625 2.296875 8.96875 1.863281 8.96875 1.3125 C 8.96875 0.875 8.773438 0.566406 8.390625 0.390625 C 8.003906 0.222656 7.40625 0.140625 6.59375 0.140625 L 4.921875 0.140625 C 4.335938 0.140625 3.84375 0.28125 3.4375 0.5625 C 3.039062 0.84375 2.84375 1.210938 2.84375 1.671875 Z M 4.015625 -7.9375 C 4.015625 -7.289062 4.160156 -6.78125 4.453125 -6.40625 C 4.742188 -6.039062 5.191406 -5.859375 5.796875 -5.859375 C 6.398438 -5.859375 6.84375 -6.039062 7.125 -6.40625 C 7.40625 -6.78125 7.546875 -7.289062 7.546875 -7.9375 C 7.546875 -9.351562 6.960938 -10.0625 5.796875 -10.0625 C 4.609375 -10.0625 4.015625 -9.351562 4.015625 -7.9375 Z M 4.015625 -7.9375 "/></g></g></g><g fill="#f5efd7" fill-opacity="1"><g transform="translate(362.358298, 27.402973)"><g><path d="M 9.1875 0 L 8.5625 -1.609375 L 8.46875 -1.609375 C 7.925781 -0.921875 7.367188 -0.441406 6.796875 -0.171875 C 6.222656 0.0859375 5.476562 0.21875 4.5625 0.21875 C 3.425781 0.21875 2.53125 -0.101562 1.875 -0.75 C 1.226562 -1.40625 0.90625 -2.332031 0.90625 -3.53125 C 0.90625 -4.78125 1.34375 -5.703125 2.21875 -6.296875 C 3.09375 -6.890625 4.414062 -7.21875 6.1875 -7.28125 L 8.234375 -7.34375 L 8.234375 -7.859375 C 8.234375 -9.054688 7.617188 -9.65625 6.390625 -9.65625 C 5.453125 -9.65625 4.347656 -9.367188 3.078125 -8.796875 L 2 -10.96875 C 3.363281 -11.6875 4.867188 -12.046875 6.515625 -12.046875 C 8.097656 -12.046875 9.3125 -11.695312 10.15625 -11 C 11 -10.3125 11.421875 -9.265625 11.421875 -7.859375 L 11.421875 0 Z M 8.234375 -5.46875 L 6.984375 -5.421875 C 6.046875 -5.390625 5.347656 -5.21875 4.890625 -4.90625 C 4.429688 -4.601562 4.203125 -4.132812 4.203125 -3.5 C 4.203125 -2.59375 4.722656 -2.140625 5.765625 -2.140625 C 6.515625 -2.140625 7.113281 -2.351562 7.5625 -2.78125 C 8.007812 -3.207031 8.234375 -3.78125 8.234375 -4.5 Z M 8.234375 -5.46875 "/></g></g></g><path stroke-linecap="butt" transform="matrix(0.745312, 0, 0, 0.745312, 73.054145, 12.100683)" fill="none" stroke-linejoin="miter" d="M 0.000728234 1.500132 L 91.772223 1.500132 " stroke="#f5efd7" stroke-width="3" stroke-opacity="1" stroke-miterlimit="4"/><path stroke-linecap="round" transform="matrix(0.745312, 0, 0, 0.745312, 73.054145, 12.100683)" fill-opacity="1" fill="#f5efd7" fill-rule="nonzero" stroke-linejoin="round" d="M 92.521699 -3.001964 L 98.522747 1.500132 L 92.521699 6.002229 Z M 92.521699 -3.001964 " stroke="#f5efd7" stroke-width="3" stroke-opacity="1" stroke-miterlimit="4"/><path stroke-linecap="butt" transform="matrix(-0.745312, 0, 0, -0.745312, 147.402825, 27.001191)" fill="none" stroke-linejoin="miter" d="M 0.000645937 1.500549 L 91.772141 1.500549 " stroke="#f5efd7" stroke-width="3" stroke-opacity="1" stroke-miterlimit="4"/><path stroke-linecap="round" transform="matrix(-0.745312, 0, 0, -0.745312, 147.402825, 27.001191)" fill-opacity="1" fill="#f5efd7" fill-rule="nonzero" stroke-linejoin="round" d="M 92.526858 -3.001547 L 98.522665 1.500549 L 92.526858 5.997405 Z M 92.526858 -3.001547 " stroke="#f5efd7" stroke-width="3" stroke-opacity="1" stroke-miterlimit="4"/><path stroke-linecap="butt" transform="matrix(0.745312, 0, 0, 0.745312, 232.888329, 11.087516)" fill="none" stroke-linejoin="miter" d="M -0.0021607 1.502075 L 91.774575 1.502075 " stroke="#f5efd7" stroke-width="3" stroke-opacity="1" stroke-miterlimit="4"/><path stroke-linecap="round" transform="matrix(0.745312, 0, 0, 0.745312, 232.888329, 11.087516)" fill-opacity="1" fill="#f5efd7" fill-rule="nonzero" stroke-linejoin="round" d="M 92.524051 -3.000022 L 98.5251 1.502075 L 92.524051 5.99893 Z M 92.524051 -3.000022 " stroke="#f5efd7" stroke-width="3" stroke-opacity="1" stroke-miterlimit="4"/><path stroke-linecap="butt" transform="matrix(-0.745312, 0, 0, -0.745312, 307.237, 25.988026)" fill="none" stroke-linejoin="miter" d="M -0.00171902 1.49861 L 91.775017 1.49861 " stroke="#f5efd7" stroke-width="3" stroke-opacity="1" stroke-miterlimit="4"/><path stroke-linecap="round" transform="matrix(-0.745312, 0, 0, -0.745312, 307.237, 25.988026)" fill-opacity="1" fill="#f5efd7" fill-rule="nonzero" stroke-linejoin="round" d="M 92.524493 -2.998246 L 98.525541 1.49861 L 92.524493 6.000707 Z M 92.524493 -2.998246 " stroke="#f5efd7" stroke-width="3" stroke-opacity="1" stroke-miterlimit="4"/></svg>