<svg xmlns="http://www.w3.org/2000/svg" xmlns:xlink="http://www.w3.org/1999/xlink" width="211" zoomAndPan="magnify" viewBox="0 0 158.25 150.75" height="201" preserveAspectRatio="xMidYMid meet" version="1.0"><defs><g/><clipPath id="9c24697a94"><path d="M 35 58 L 60 58 L 60 98 L 35 98 Z M 35 58 " clip-rule="nonzero"/></clipPath><clipPath id="1c85a2c035"><path d="M 33.613281 98.179688 L 34.316406 56.382812 L 61.1875 56.835938 L 60.484375 98.628906 Z M 33.613281 98.179688 " clip-rule="nonzero"/></clipPath><clipPath id="d91ff551b6"><path d="M 35.132812 96.710938 L 35.773438 58.628906 L 35.589844 69.355469 L 35.375 85.945312 L 58.75 86.25 L 58.96875 69.660156 L 59.207031 59.023438 L 58.566406 97.105469 Z M 35.773438 58.628906 L 59.207031 59.023438 L 58.96875 69.660156 L 35.589844 69.355469 Z M 35.773438 58.628906 " clip-rule="nonzero"/></clipPath><clipPath id="6f2a08190b"><path d="M 5 11 L 111 11 L 111 79 L 5 79 Z M 5 11 " clip-rule="nonzero"/></clipPath><clipPath id="db78b31c46"><path d="M 3.09375 75.265625 L 109.382812 8.710938 L 112.949219 14.40625 L 6.660156 80.960938 Z M 3.09375 75.265625 " clip-rule="nonzero"/></clipPath><clipPath id="8f18f449b4"><path d="M 5.226562 75.855469 L 6.8125 78.386719 L 71.292969 38.011719 L 69.707031 35.480469 Z M 81.699219 27.972656 L 83.285156 30.503906 L 110.34375 13.558594 L 108.761719 11.027344 Z M 81.699219 27.972656 " clip-rule="nonzero"/></clipPath><clipPath id="e7fd319b85"><path d="M 0 60 L 127 60 L 127 150.269531 L 0 150.269531 Z M 0 60 " clip-rule="nonzero"/></clipPath><clipPath id="5a82816d29"><path d="M 91 0.230469 L 141 0.230469 L 141 150.269531 L 91 150.269531 Z M 91 0.230469 " clip-rule="nonzero"/></clipPath><clipPath id="ce49c0d844"><path d="M 115 0.230469 L 148 0.230469 L 148 150.269531 L 115 150.269531 Z M 115 0.230469 " clip-rule="nonzero"/></clipPath><clipPath id="15f0590b9b"><path d="M 109 134 L 138 134 L 138 150.269531 L 109 150.269531 Z M 109 134 " clip-rule="nonzero"/></clipPath><clipPath id="25b17517d1"><path d="M 108 0.230469 L 138 0.230469 L 138 16 L 108 16 Z M 108 0.230469 " clip-rule="nonzero"/></clipPath><clipPath id="0b5dcf52b6"><path d="M 4.472656 75.582031 L 7.558594 75.582031 L 7.558594 78.664062 L 4.472656 78.664062 Z M 4.472656 75.582031 " clip-rule="nonzero"/></clipPath><clipPath id="a289cb9940"><path d="M 6.015625 75.582031 C 5.164062 75.582031 4.472656 76.273438 4.472656 77.125 C 4.472656 77.976562 5.164062 78.664062 6.015625 78.664062 C 6.867188 78.664062 7.558594 77.976562 7.558594 77.125 C 7.558594 76.273438 6.867188 75.582031 6.015625 75.582031 Z M 6.015625 75.582031 " clip-rule="nonzero"/></clipPath></defs><g clip-path="url(#9c24697a94)"><g clip-path="url(#1c85a2c035)"><g clip-path="url(#d91ff551b6)"><path stroke-linecap="butt" transform="matrix(0.012545, -0.746357, 0.746357, 0.012545, 35.131997, 96.711213)" fill="none" stroke-linejoin="miter" d="M 1.08919 2.814248 C 17.372332 19.995134 33.654611 19.998846 49.935852 2.814918 " stroke="#ffffff" stroke-width="3" stroke-opacity="1" stroke-miterlimit="4"/></g></g></g><g fill="#ffffff" fill-opacity="1"><g transform="translate(51.213551, 82.384717)"><g><path d="M -5.03125 -7.78125 C -3.257812 -7.757812 -1.941406 -7.445312 -1.078125 -6.84375 C -0.222656 -6.238281 0.191406 -5.335938 0.171875 -4.140625 C 0.160156 -2.984375 -0.289062 -2.109375 -1.1875 -1.515625 C -2.09375 -0.929688 -3.398438 -0.648438 -5.109375 -0.671875 C -6.890625 -0.703125 -8.207031 -1.015625 -9.0625 -1.609375 C -9.914062 -2.203125 -10.335938 -3.09375 -10.328125 -4.28125 C -10.304688 -5.445312 -9.847656 -6.328125 -8.953125 -6.921875 C -8.054688 -7.515625 -6.75 -7.800781 -5.03125 -7.78125 Z M -1.28125 -4.15625 C -1.269531 -4.664062 -1.515625 -5.039062 -2.015625 -5.28125 C -2.515625 -5.519531 -3.289062 -5.664062 -4.34375 -5.71875 L -4.390625 -2.703125 C -3.359375 -2.703125 -2.582031 -2.8125 -2.0625 -3.03125 C -1.539062 -3.257812 -1.28125 -3.632812 -1.28125 -4.15625 Z M -8.875 -4.265625 C -8.875 -3.796875 -8.640625 -3.4375 -8.171875 -3.1875 C -7.710938 -2.9375 -6.945312 -2.789062 -5.875 -2.75 L -5.828125 -5.734375 C -6.835938 -5.703125 -7.59375 -5.570312 -8.09375 -5.34375 C -8.601562 -5.125 -8.863281 -4.765625 -8.875 -4.265625 Z M -8.875 -4.265625 "/></g></g></g><g clip-path="url(#6f2a08190b)"><g clip-path="url(#db78b31c46)"><g clip-path="url(#8f18f449b4)"><path stroke-linecap="butt" transform="matrix(0.632668, -0.396153, 0.396153, 0.632668, 0.00225919, 67.514553)" fill="none" stroke-linejoin="miter" d="M 0.00229759 15.185609 L 163.645146 15.184684 " stroke="#f4711d" stroke-width="4" stroke-opacity="1" stroke-miterlimit="4"/></g></g></g><g fill="#ffffff" fill-opacity="1"><g transform="translate(76.399202, 38.407352)"><g><path d="M 0.390625 -8.71875 C 0.609375 -8.851562 0.796875 -8.957031 0.953125 -9.03125 L 1.796875 -7.40625 C 1.640625 -7.351562 1.46875 -7.269531 1.28125 -7.15625 C 0.757812 -6.832031 0.4375 -6.445312 0.3125 -6 C 0.1875 -5.5625 0.273438 -5.097656 0.578125 -4.609375 L 2.484375 -1.5625 L 0.859375 -0.53125 L -2.890625 -6.515625 L -1.65625 -7.296875 L -0.796875 -6.4375 L -0.71875 -6.5 C -0.738281 -6.945312 -0.648438 -7.367188 -0.453125 -7.765625 C -0.265625 -8.171875 0.015625 -8.488281 0.390625 -8.71875 Z M 0.390625 -8.71875 "/></g></g></g><g clip-path="url(#e7fd319b85)"><path stroke-linecap="butt" transform="matrix(0.641119, 0.382325, -0.382325, 0.641119, 6.780451, 75.842965)" fill="none" stroke-linejoin="miter" d="M -0.000342887 1.999888 L 161.491009 1.999974 " stroke="#f4711d" stroke-width="4" stroke-opacity="1" stroke-miterlimit="4"/></g><g clip-path="url(#5a82816d29)"><path stroke-linecap="butt" transform="matrix(0, 0.746462, -0.746462, 0, 125.400479, 11.081384)" fill="none" stroke-linejoin="miter" d="M 0.895713 23.195469 C 57.412303 -5.062826 113.934126 -5.062826 170.455949 23.195469 " stroke="#f4711d" stroke-width="4" stroke-opacity="1" stroke-miterlimit="4"/></g><g clip-path="url(#ce49c0d844)"><path stroke-linecap="butt" transform="matrix(0.0000376255, 0.746462, -0.746462, 0.0000376255, 140.017741, 3.84356)" fill="none" stroke-linejoin="miter" d="M 0.407311 22.196082 C 63.885239 -6.064246 127.366975 -6.066279 190.842054 22.195215 " stroke="#ffffff" stroke-width="2" stroke-opacity="1" stroke-miterlimit="4"/></g><g clip-path="url(#15f0590b9b)"><path stroke-linecap="butt" transform="matrix(0.654747, 0.358486, -0.358486, 0.654747, 117.875908, 142.398326)" fill="none" stroke-linejoin="miter" d="M -0.00107298 1.003053 L 18.157945 1.000097 " stroke="#ffffff" stroke-width="2" stroke-opacity="1" stroke-miterlimit="4"/></g><g clip-path="url(#25b17517d1)"><path stroke-linecap="butt" transform="matrix(0.653958, -0.359923, 0.359923, 0.653958, 116.586795, 6.766777)" fill="none" stroke-linejoin="miter" d="M -0.00238613 1.00043 L 18.163013 0.999031 " stroke="#ffffff" stroke-width="2" stroke-opacity="1" stroke-miterlimit="4"/></g><g clip-path="url(#0b5dcf52b6)"><g clip-path="url(#a289cb9940)"><path fill="#f4711d" d="M 4.472656 75.582031 L 7.558594 75.582031 L 7.558594 78.664062 L 4.472656 78.664062 Z M 4.472656 75.582031 " fill-opacity="1" fill-rule="nonzero"/></g></g><g fill="#ffffff" fill-opacity="1"><g transform="translate(142.722446, 81.977639)"><g><path d="M 6.671875 -2.59375 C 6.671875 -1.75 6.367188 -1.082031 5.765625 -0.59375 C 5.160156 -0.113281 4.316406 0.125 3.234375 0.125 C 2.242188 0.125 1.363281 -0.0625 0.59375 -0.4375 L 0.59375 -2.265625 C 1.226562 -1.984375 1.757812 -1.785156 2.1875 -1.671875 C 2.625 -1.554688 3.023438 -1.5 3.390625 -1.5 C 3.816406 -1.5 4.144531 -1.582031 4.375 -1.75 C 4.613281 -1.914062 4.734375 -2.160156 4.734375 -2.484375 C 4.734375 -2.671875 4.679688 -2.832031 4.578125 -2.96875 C 4.472656 -3.113281 4.320312 -3.253906 4.125 -3.390625 C 3.925781 -3.523438 3.523438 -3.734375 2.921875 -4.015625 C 2.359375 -4.285156 1.929688 -4.539062 1.640625 -4.78125 C 1.359375 -5.03125 1.128906 -5.316406 0.953125 -5.640625 C 0.785156 -5.972656 0.703125 -6.359375 0.703125 -6.796875 C 0.703125 -7.617188 0.976562 -8.265625 1.53125 -8.734375 C 2.09375 -9.210938 2.867188 -9.453125 3.859375 -9.453125 C 4.347656 -9.453125 4.8125 -9.394531 5.25 -9.28125 C 5.6875 -9.164062 6.144531 -9.003906 6.625 -8.796875 L 5.984375 -7.25 C 5.492188 -7.457031 5.082031 -7.597656 4.75 -7.671875 C 4.425781 -7.753906 4.109375 -7.796875 3.796875 -7.796875 C 3.421875 -7.796875 3.132812 -7.707031 2.9375 -7.53125 C 2.738281 -7.363281 2.640625 -7.140625 2.640625 -6.859375 C 2.640625 -6.679688 2.675781 -6.53125 2.75 -6.40625 C 2.832031 -6.28125 2.960938 -6.15625 3.140625 -6.03125 C 3.316406 -5.90625 3.734375 -5.6875 4.390625 -5.375 C 5.265625 -4.957031 5.863281 -4.539062 6.1875 -4.125 C 6.507812 -3.707031 6.671875 -3.195312 6.671875 -2.59375 Z M 6.671875 -2.59375 "/></g></g></g><g fill="#ffffff" fill-opacity="1"><g transform="translate(20.272839, 135.583227)"><g><path d="M 5.8125 -2.703125 C 5.8125 -1.804688 5.515625 -1.109375 4.921875 -0.609375 C 4.328125 -0.117188 3.488281 0.125 2.40625 0.125 C 1.945312 0.125 1.546875 0.09375 1.203125 0.03125 C 0.867188 -0.03125 0.550781 -0.132812 0.25 -0.28125 L 0.25 -1.359375 C 0.9375 -1.003906 1.660156 -0.828125 2.421875 -0.828125 C 3.109375 -0.828125 3.648438 -0.984375 4.046875 -1.296875 C 4.453125 -1.617188 4.65625 -2.0625 4.65625 -2.625 C 4.65625 -2.957031 4.539062 -3.25 4.3125 -3.5 C 4.09375 -3.75 3.679688 -4.046875 3.078125 -4.390625 C 2.429688 -4.753906 1.984375 -5.113281 1.734375 -5.46875 C 1.492188 -5.832031 1.375 -6.265625 1.375 -6.765625 C 1.375 -7.554688 1.648438 -8.203125 2.203125 -8.703125 C 2.765625 -9.203125 3.503906 -9.453125 4.421875 -9.453125 C 4.835938 -9.453125 5.226562 -9.410156 5.59375 -9.328125 C 5.957031 -9.242188 6.34375 -9.101562 6.75 -8.90625 L 6.328125 -7.953125 C 6.046875 -8.117188 5.726562 -8.25 5.375 -8.34375 C 5.03125 -8.4375 4.710938 -8.484375 4.421875 -8.484375 C 3.847656 -8.484375 3.390625 -8.332031 3.046875 -8.03125 C 2.703125 -7.738281 2.53125 -7.335938 2.53125 -6.828125 C 2.53125 -6.597656 2.566406 -6.398438 2.640625 -6.234375 C 2.710938 -6.078125 2.828125 -5.925781 2.984375 -5.78125 C 3.140625 -5.632812 3.441406 -5.429688 3.890625 -5.171875 C 4.515625 -4.804688 4.9375 -4.515625 5.15625 -4.296875 C 5.375 -4.085938 5.535156 -3.851562 5.640625 -3.59375 C 5.753906 -3.332031 5.8125 -3.035156 5.8125 -2.703125 Z M 5.8125 -2.703125 "/></g></g></g><g fill="#ffffff" fill-opacity="1"><g transform="translate(26.813689, 135.583227)"><g><path d="M 0.8125 -5.46875 L 0.8125 -6.34375 L 6.671875 -6.34375 L 6.671875 -5.46875 Z M 0.8125 -2.828125 L 0.8125 -3.734375 L 6.671875 -3.734375 L 6.671875 -2.828125 Z M 0.8125 -2.828125 "/></g></g></g><g fill="#ffffff" fill-opacity="1"><g transform="translate(33.990809, 135.583227)"><g><path d="M 2.734375 0.125 C 2.054688 0.125 1.535156 -0.09375 1.171875 -0.53125 C 0.804688 -0.96875 0.625 -1.644531 0.625 -2.5625 C 0.625 -3.707031 0.816406 -4.9375 1.203125 -6.25 C 1.585938 -7.570312 2.070312 -8.535156 2.65625 -9.140625 C 3.238281 -9.753906 3.941406 -10.0625 4.765625 -10.0625 C 6.140625 -10.0625 6.828125 -9.125 6.828125 -7.25 C 6.828125 -6.1875 6.640625 -5.003906 6.265625 -3.703125 C 5.898438 -2.398438 5.421875 -1.4375 4.828125 -0.8125 C 4.234375 -0.1875 3.535156 0.125 2.734375 0.125 Z M 2.859375 -0.78125 C 3.429688 -0.78125 3.921875 -1.085938 4.328125 -1.703125 C 4.742188 -2.328125 5.109375 -3.3125 5.421875 -4.65625 L 1.875 -4.65625 C 1.738281 -3.9375 1.671875 -3.28125 1.671875 -2.6875 C 1.671875 -2.019531 1.765625 -1.535156 1.953125 -1.234375 C 2.148438 -0.929688 2.453125 -0.78125 2.859375 -0.78125 Z M 4.625 -9.140625 C 4.0625 -9.140625 3.570312 -8.859375 3.15625 -8.296875 C 2.75 -7.742188 2.390625 -6.84375 2.078125 -5.59375 L 5.609375 -5.59375 C 5.722656 -6.132812 5.78125 -6.695312 5.78125 -7.28125 C 5.78125 -8.519531 5.394531 -9.140625 4.625 -9.140625 Z M 4.625 -9.140625 "/></g></g></g><g fill="#ffffff" fill-opacity="1"><g transform="translate(41.066125, 135.583227)"><g><path d="M 4.796875 -7.109375 C 5.085938 -7.109375 5.34375 -7.078125 5.5625 -7.015625 L 5.328125 -6.0625 C 5.097656 -6.113281 4.875 -6.140625 4.65625 -6.140625 C 4.269531 -6.140625 3.90625 -6.015625 3.5625 -5.765625 C 3.226562 -5.515625 2.9375 -5.160156 2.6875 -4.703125 C 2.4375 -4.253906 2.25 -3.753906 2.125 -3.203125 L 1.453125 0 L 0.375 0 L 1.859375 -6.984375 L 2.75 -6.984375 L 2.609375 -5.6875 L 2.671875 -5.6875 C 2.984375 -6.09375 3.238281 -6.382812 3.4375 -6.5625 C 3.632812 -6.738281 3.84375 -6.875 4.0625 -6.96875 C 4.28125 -7.0625 4.523438 -7.109375 4.796875 -7.109375 Z M 4.796875 -7.109375 "/></g></g></g></svg>