<svg xmlns="http://www.w3.org/2000/svg" xmlns:xlink="http://www.w3.org/1999/xlink" width="727" zoomAndPan="magnify" viewBox="0 0 545.25 501.749985" height="669" preserveAspectRatio="xMidYMid meet" version="1.0"><defs><filter x="0%" y="0%" width="100%" height="100%" id="6e86deb19c"><feColorMatrix values="0 0 0 0 1 0 0 0 0 1 0 0 0 0 1 0 0 0 1 0" color-interpolation-filters="sRGB"/></filter><g/><mask id="2d73036298"><g filter="url(#6e86deb19c)"><rect x="-54.525" width="654.3" fill="#000000" y="-50.174999" height="602.099982" fill-opacity="0.85"/></g></mask><clipPath id="dd6cc533e0"><rect x="0" width="10" y="0" height="18"/></clipPath><mask id="2cbb4e1fbe"><g filter="url(#6e86deb19c)"><rect x="-54.525" width="654.3" fill="#000000" y="-50.174999" height="602.099982" fill-opacity="0.85"/></g></mask><clipPath id="d034f28a5b"><rect x="0" width="8" y="0" height="295"/></clipPath><mask id="77c850a2b7"><g filter="url(#6e86deb19c)"><rect x="-54.525" width="654.3" fill="#000000" y="-50.174999" height="602.099982" fill-opacity="0.85"/></g></mask><clipPath id="34039ac448"><path d="M 0.199219 0.351562 L 244.183594 0.351562 L 244.183594 176.511719 L 0.199219 176.511719 Z M 0.199219 0.351562 " clip-rule="nonzero"/></clipPath><clipPath id="8d8f498dd1"><rect x="0" width="245" y="0" height="177"/></clipPath><mask id="33ab7dc387"><g filter="url(#6e86deb19c)"><rect x="-54.525" width="654.3" fill="#000000" y="-50.174999" height="602.099982" fill-opacity="0.85"/></g></mask><clipPath id="bc713abb1f"><path d="M 289.640625 9 L 291 9 L 291 9.476562 L 289.640625 9.476562 Z M 82.292969 9.476562 L 291 9.476562 L 291 10.871094 L 82.292969 10.871094 Z M 1.90625 9.476562 L 59.824219 9.476562 L 59.824219 10.871094 L 1.90625 10.871094 Z M 289.640625 10.871094 L 291 10.871094 L 291 11 L 289.640625 11 Z M 289.640625 10.871094 " clip-rule="nonzero"/></clipPath><clipPath id="463851d1f8"><path d="M 290 8 L 293.820312 8 L 293.820312 9.476562 L 290 9.476562 Z M 290 9.476562 L 293.820312 9.476562 L 293.820312 10.871094 L 290 10.871094 Z M 290 10.871094 L 293.820312 10.871094 L 293.820312 12.960938 L 290 12.960938 Z M 290 10.871094 " clip-rule="nonzero"/></clipPath><clipPath id="a7193ea494"><path d="M 289.640625 7.386719 L 293.820312 7.386719 L 293.820312 9.476562 L 289.640625 9.476562 Z M 289 9.476562 L 293.820312 9.476562 L 293.820312 10.871094 L 289 10.871094 Z M 289.640625 10.871094 L 293.820312 10.871094 L 293.820312 12.960938 L 289.640625 12.960938 Z M 289.640625 10.871094 " clip-rule="nonzero"/></clipPath><clipPath id="cd228e8a05"><rect x="0" width="295" y="0" height="20"/></clipPath><mask id="ec892d6c95"><g filter="url(#6e86deb19c)"><rect x="-54.525" width="654.3" fill="#000000" y="-50.174999" height="602.099982" fill-opacity="0.85"/></g></mask><clipPath id="958717d0c8"><path d="M 0.628906 4 L 9 4 L 9 13 L 0.628906 13 Z M 0.628906 4 " clip-rule="nonzero"/></clipPath><clipPath id="1432deafbf"><rect x="0" width="10" y="0" height="17"/></clipPath><mask id="7df672d9ed"><g filter="url(#6e86deb19c)"><rect x="-54.525" width="654.3" fill="#000000" y="-50.174999" height="602.099982" fill-opacity="0.85"/></g></mask><clipPath id="a07af5d87e"><path d="M 0.511719 4 L 9 4 L 9 14 L 0.511719 14 Z M 0.511719 4 " clip-rule="nonzero"/></clipPath><clipPath id="70bf9e780f"><rect x="0" width="10" y="0" height="18"/></clipPath><mask id="07f81abb2f"><g filter="url(#6e86deb19c)"><rect x="-54.525" width="654.3" fill="#000000" y="-50.174999" height="602.099982" fill-opacity="0.85"/></g></mask><clipPath id="413e4440b0"><path d="M 6 7 L 175 7 L 175 86 L 6 86 Z M 6 7 " clip-rule="nonzero"/></clipPath><clipPath id="02f558fe1f"><path d="M 178.683594 11.242188 L 5.203125 90.933594 L 1.710938 83.335938 L 175.195312 3.644531 Z M 178.683594 11.242188 " clip-rule="nonzero"/></clipPath><clipPath id="09d7f9fdee"><path d="M 174.488281 8.785156 L 173.90625 7.519531 L 79.203125 51.023438 L 79.78125 52.289062 Z M 62.265625 60.335938 L 61.683594 59.070312 L 6.121094 84.59375 L 6.703125 85.859375 Z M 62.265625 60.335938 " clip-rule="nonzero"/></clipPath><clipPath id="97fb883183"><rect x="0" width="185" y="0" height="107"/></clipPath><mask id="d911817443"><g filter="url(#6e86deb19c)"><rect x="-54.525" width="654.3" fill="#000000" y="-50.174999" height="602.099982" fill-opacity="0.85"/></g></mask><clipPath id="3f7ddec0df"><path d="M 0.398438 2 L 22 2 L 22 38 L 0.398438 38 Z M 0.398438 2 " clip-rule="nonzero"/></clipPath><clipPath id="557c206d3b"><path d="M 2.90625 40.625 L -7.414062 7.351562 L 23.195312 -2.144531 L 33.515625 31.128906 Z M 2.90625 40.625 " clip-rule="nonzero"/></clipPath><clipPath id="c61bfa44eb"><path d="M 4.742188 37.136719 L -3.644531 10.097656 L -1.304688 13.90625 L 3.8125 34.140625 L 27.828125 28.066406 L 22.710938 7.832031 L 21.039062 2.441406 L 29.425781 29.480469 Z M -3.644531 10.097656 L 21.039062 2.441406 L 22.710938 7.832031 L -1.304688 13.90625 Z M -3.644531 10.097656 " clip-rule="nonzero"/></clipPath><clipPath id="1a942f2dc9"><rect x="0" width="24" y="0" height="39"/></clipPath><mask id="ae37374f66"><g filter="url(#6e86deb19c)"><rect x="-54.525" width="654.3" fill="#000000" y="-50.174999" height="602.099982" fill-opacity="0.85"/></g></mask><clipPath id="be3f894d6b"><path d="M 0.191406 0.519531 L 77.125 0.519531 L 77.125 39.824219 L 0.191406 39.824219 Z M 0.191406 0.519531 " clip-rule="nonzero"/></clipPath><clipPath id="98a5ef177e"><rect x="0" width="78" y="0" height="40"/></clipPath><mask id="fd8295431a"><g filter="url(#6e86deb19c)"><rect x="-54.525" width="654.3" fill="#000000" y="-50.174999" height="602.099982" fill-opacity="0.85"/></g></mask><clipPath id="e6428f089c"><rect x="0" width="78" y="0" height="8"/></clipPath><mask id="e8254f6734"><g filter="url(#6e86deb19c)"><rect x="-54.525" width="654.3" fill="#000000" y="-50.174999" height="602.099982" fill-opacity="0.85"/></g></mask><clipPath id="9fc1f30955"><rect x="0" width="9" y="0" height="43"/></clipPath><mask id="ec78f848ec"><g filter="url(#6e86deb19c)"><rect x="-54.525" width="654.3" fill="#000000" y="-50.174999" height="602.099982" fill-opacity="0.87"/></g></mask><clipPath id="f17a08d38a"><path d="M 12.953125 13.28125 L 30.832031 13.28125 L 30.832031 396.441406 L 12.953125 396.441406 Z M 12.953125 13.28125 " clip-rule="nonzero"/></clipPath><clipPath id="9b34d96abd"><path d="M 12.953125 13.296875 L 30.828125 13.296875 L 30.828125 396.414062 L 12.953125 396.414062 Z M 12.953125 13.296875 " clip-rule="nonzero"/></clipPath><clipPath id="ca362fd97b"><rect x="0" width="46" y="0" height="411"/></clipPath><mask id="f712b6fa97"><g filter="url(#6e86deb19c)"><rect x="-54.525" width="654.3" fill="#000000" y="-50.174999" height="602.099982" fill-opacity="0.85"/></g></mask><clipPath id="137ee74a44"><rect x="0" width="13" y="0" height="26"/></clipPath><mask id="29efc10ac8"><g filter="url(#6e86deb19c)"><rect x="-54.525" width="654.3" fill="#000000" y="-50.174999" height="602.099982" fill-opacity="0.85"/></g></mask><clipPath id="70ff83b907"><rect x="0" width="13" y="0" height="25"/></clipPath><mask id="83714d7dbd"><g filter="url(#6e86deb19c)"><rect x="-54.525" width="654.3" fill="#000000" y="-50.174999" height="602.099982" fill-opacity="0.85"/></g></mask><clipPath id="467b2da08d"><rect x="0" width="13" y="0" height="26"/></clipPath><mask id="e768e94be8"><g filter="url(#6e86deb19c)"><rect x="-54.525" width="654.3" fill="#000000" y="-50.174999" height="602.099982" fill-opacity="0.85"/></g></mask><clipPath id="1613ee8a18"><rect x="0" width="13" y="0" height="25"/></clipPath><mask id="077862c78b"><g filter="url(#6e86deb19c)"><rect x="-54.525" width="654.3" fill="#000000" y="-50.174999" height="602.099982" fill-opacity="0.85"/></g></mask><clipPath id="e8bd7b09c4"><rect x="0" width="13" y="0" height="26"/></clipPath><mask id="36ca41fcc8"><g filter="url(#6e86deb19c)"><rect x="-54.525" width="654.3" fill="#000000" y="-50.174999" height="602.099982" fill-opacity="0.85"/></g></mask><clipPath id="6aa3c9d9cb"><rect x="0" width="13" y="0" height="26"/></clipPath><mask id="fdd7f19fbc"><g filter="url(#6e86deb19c)"><rect x="-54.525" width="654.3" fill="#000000" y="-50.174999" height="602.099982" fill-opacity="0.85"/></g></mask><clipPath id="13315d7533"><rect x="0" width="13" y="0" height="26"/></clipPath><mask id="17af202147"><g filter="url(#6e86deb19c)"><rect x="-54.525" width="654.3" fill="#000000" y="-50.174999" height="602.099982" fill-opacity="0.85"/></g></mask><clipPath id="2fa1178a0c"><rect x="0" width="13" y="0" height="26"/></clipPath><mask id="85426c8e89"><g filter="url(#6e86deb19c)"><rect x="-54.525" width="654.3" fill="#000000" y="-50.174999" height="602.099982" fill-opacity="0.85"/></g></mask><clipPath id="150e144793"><rect x="0" width="13" y="0" height="25"/></clipPath><mask id="90e48af6b7"><g filter="url(#6e86deb19c)"><rect x="-54.525" width="654.3" fill="#000000" y="-50.174999" height="602.099982" fill-opacity="0.85"/></g></mask><clipPath id="d89e5cde2e"><rect x="0" width="13" y="0" height="25"/></clipPath><mask id="f90eec0c3f"><g filter="url(#6e86deb19c)"><rect x="-54.525" width="654.3" fill="#000000" y="-50.174999" height="602.099982" fill-opacity="0.85"/></g></mask><clipPath id="f3b9341d80"><rect x="0" width="13" y="0" height="25"/></clipPath><mask id="514db3f4ce"><g filter="url(#6e86deb19c)"><rect x="-54.525" width="654.3" fill="#000000" y="-50.174999" height="602.099982" fill-opacity="0.85"/></g></mask><clipPath id="30f4f0c029"><rect x="0" width="13" y="0" height="26"/></clipPath><mask id="6cb164cf0a"><g filter="url(#6e86deb19c)"><rect x="-54.525" width="654.3" fill="#000000" y="-50.174999" height="602.099982" fill-opacity="0.85"/></g></mask><clipPath id="c6770c8e8c"><rect x="0" width="13" y="0" height="25"/></clipPath><mask id="d2b7aed95b"><g filter="url(#6e86deb19c)"><rect x="-54.525" width="654.3" fill="#000000" y="-50.174999" height="602.099982" fill-opacity="0.85"/></g></mask><clipPath id="54feddf182"><rect x="0" width="13" y="0" height="25"/></clipPath><mask id="fab2d86d49"><g filter="url(#6e86deb19c)"><rect x="-54.525" width="654.3" fill="#000000" y="-50.174999" height="602.099982" fill-opacity="0.85"/></g></mask><clipPath id="225a0e4605"><path d="M 1 2 L 22.332031 2 L 22.332031 35 L 1 35 Z M 1 2 " clip-rule="nonzero"/></clipPath><clipPath id="c1a1f05de2"><path d="M 21.375 -0.746094 L 29.25 30.324219 L -1.816406 38.199219 L -9.691406 7.128906 Z M 21.375 -0.746094 " clip-rule="nonzero"/></clipPath><clipPath id="5073f789f7"><path d="M 19.359375 2.640625 L 25.730469 27.785156 L 25.097656 25.289062 L 19.878906 5.257812 L -4.824219 11.695312 L 0.394531 31.726562 L 0.851562 34.089844 L -5.519531 8.949219 Z M 25.730469 27.785156 L 0.851562 34.089844 L 0.394531 31.726562 L 25.097656 25.289062 Z M 25.730469 27.785156 " clip-rule="nonzero"/></clipPath><clipPath id="c1cd790cd8"><rect x="0" width="23" y="0" height="36"/></clipPath><mask id="8571ff93d0"><g filter="url(#6e86deb19c)"><rect x="-54.525" width="654.3" fill="#000000" y="-50.174999" height="602.099982" fill-opacity="0.85"/></g></mask><clipPath id="c211eaaa1a"><rect x="0" width="10" y="0" height="20"/></clipPath><mask id="b44ec1827f"><g filter="url(#6e86deb19c)"><rect x="-54.525" width="654.3" fill="#000000" y="-50.174999" height="602.099982" fill-opacity="0.85"/></g></mask><clipPath id="99b0e4400d"><path d="M 7.441406 2.375 L 8.832031 2.375 L 8.832031 30.324219 L 7.441406 30.324219 Z M 7.441406 50.378906 L 8.832031 50.378906 L 8.832031 74.148438 L 7.441406 74.148438 Z M 7 74.148438 L 9 74.148438 L 9 78.328125 L 7 78.328125 Z M 7 74.148438 " clip-rule="nonzero"/></clipPath><clipPath id="5d829fe99f"><path d="M 7.441406 74 L 8.832031 74 L 8.832031 74.148438 L 7.441406 74.148438 Z M 5.351562 74.148438 L 10.921875 74.148438 L 10.921875 78.328125 L 5.351562 78.328125 Z M 5.351562 74.148438 " clip-rule="nonzero"/></clipPath><clipPath id="7cdc9fa3e4"><rect x="0" width="16" y="0" height="79"/></clipPath><mask id="ef1967c145"><g filter="url(#6e86deb19c)"><rect x="-54.525" width="654.3" fill="#000000" y="-50.174999" height="602.099982" fill-opacity="0.85"/></g></mask><clipPath id="f9aa6d1ee7"><path d="M 1 0.765625 L 15.925781 0.765625 L 15.925781 2.445312 L 1 2.445312 Z M 1 0.765625 " clip-rule="nonzero"/></clipPath><clipPath id="4d441f0dbf"><rect x="0" width="16" y="0" height="3"/></clipPath><mask id="793c219a05"><g filter="url(#6e86deb19c)"><rect x="-54.525" width="654.3" fill="#000000" y="-50.174999" height="602.099982" fill-opacity="0.85"/></g></mask><clipPath id="561adc6245"><path d="M 1 0.269531 L 15.925781 0.269531 L 15.925781 1.949219 L 1 1.949219 Z M 1 0.269531 " clip-rule="nonzero"/></clipPath><clipPath id="b1a1576ad4"><rect x="0" width="16" y="0" height="2"/></clipPath><mask id="7401b2fb4e"><g filter="url(#6e86deb19c)"><rect x="-54.525" width="654.3" fill="#000000" y="-50.174999" height="602.099982" fill-opacity="0.85"/></g></mask><clipPath id="79a53decad"><path d="M 1 0.1875 L 15.925781 0.1875 L 15.925781 1.867188 L 1 1.867188 Z M 1 0.1875 " clip-rule="nonzero"/></clipPath><clipPath id="4c8290a91b"><rect x="0" width="16" y="0" height="2"/></clipPath><mask id="bbd86a9c84"><g filter="url(#6e86deb19c)"><rect x="-54.525" width="654.3" fill="#000000" y="-50.174999" height="602.099982" fill-opacity="0.85"/></g></mask><clipPath id="1e4378de61"><path d="M 3 0.90625 L 5 0.90625 L 5 23 L 3 23 Z M 3 0.90625 " clip-rule="nonzero"/></clipPath><clipPath id="6d6280b43d"><path d="M 0.140625 0.90625 L 7 0.90625 L 7 6 L 0.140625 6 Z M 0.140625 0.90625 " clip-rule="nonzero"/></clipPath><clipPath id="a1bcd2c259"><rect x="0" width="8" y="0" height="24"/></clipPath><mask id="090c51f71e"><g filter="url(#6e86deb19c)"><rect x="-54.525" width="654.3" fill="#000000" y="-50.174999" height="602.099982" fill-opacity="0.85"/></g></mask><clipPath id="4eadbcf183"><path d="M 8 6 L 13.992188 6 L 13.992188 13 L 8 13 Z M 8 6 " clip-rule="nonzero"/></clipPath><clipPath id="f8243f9faa"><rect x="0" width="14" y="0" height="17"/></clipPath><mask id="8be7b3d738"><g filter="url(#6e86deb19c)"><rect x="-54.525" width="654.3" fill="#000000" y="-50.174999" height="602.099982" fill-opacity="0.85"/></g></mask><clipPath id="572c252043"><path d="M 8 4 L 14.308594 4 L 14.308594 13 L 8 13 Z M 8 4 " clip-rule="nonzero"/></clipPath><clipPath id="0b00af30a5"><rect x="0" width="15" y="0" height="17"/></clipPath><mask id="7edab1af59"><g filter="url(#6e86deb19c)"><rect x="-54.525" width="654.3" fill="#000000" y="-50.174999" height="602.099982" fill-opacity="0.85"/></g></mask><clipPath id="b833d3ae1f"><rect x="0" width="19" y="0" height="17"/></clipPath><mask id="ac64b95bb5"><g filter="url(#6e86deb19c)"><rect x="-54.525" width="654.3" fill="#000000" y="-50.174999" height="602.099982" fill-opacity="0.85"/></g></mask><clipPath id="16a5da217b"><path d="M 8 4 L 14.84375 4 L 14.84375 13 L 8 13 Z M 8 4 " clip-rule="nonzero"/></clipPath><clipPath id="f5747b8691"><rect x="0" width="15" y="0" height="17"/></clipPath><mask id="4a7fe50471"><g filter="url(#6e86deb19c)"><rect x="-54.525" width="654.3" fill="#000000" y="-50.174999" height="602.099982" fill-opacity="0.85"/></g></mask><clipPath id="e610e1306a"><path d="M 0.167969 4 L 4 4 L 4 9 L 0.167969 9 Z M 0.167969 4 " clip-rule="nonzero"/></clipPath><clipPath id="641c361f98"><rect x="0" width="5" y="0" height="11"/></clipPath><mask id="47a1a05d97"><g filter="url(#6e86deb19c)"><rect x="-54.525" width="654.3" fill="#000000" y="-50.174999" height="602.099982" fill-opacity="0.85"/></g></mask><clipPath id="ed0b7d47b2"><rect x="0" width="15" y="0" height="17"/></clipPath></defs><g mask="url(#2d73036298)"><g transform="matrix(1, 0, 0, 1, 244, 2)"><g clip-path="url(#dd6cc533e0)"><g fill="#000000" fill-opacity="1"><g transform="translate(1.880619, 13.600977)"><g><path d="M 6.75 0 L 0.296875 0 L 0.296875 -1.1875 L 4.453125 -7.171875 L 0.40625 -7.171875 L 0.40625 -8.6875 L 6.640625 -8.6875 L 6.640625 -7.5 L 2.484375 -1.515625 L 6.75 -1.515625 Z M 6.75 0 "/></g></g></g></g></g></g><g mask="url(#2cbb4e1fbe)"><g transform="matrix(1, 0, 0, 1, 238, 21)"><g clip-path="url(#d034f28a5b)"><path stroke-linecap="butt" transform="matrix(0.00000000243211, -1.393495, 1.393495, 0.00000000243211, 3.207229, 293.172006)" fill="none" stroke-linejoin="miter" d="M 0.0000941218 0.498828 L 206.736327 0.498828 " stroke="#000000" stroke-width="1" stroke-opacity="1" stroke-miterlimit="4"/><path stroke-linecap="round" transform="matrix(0.00000000243211, -1.393495, 1.393495, 0.00000000243211, 3.207229, 293.172006)" fill-opacity="1" fill="#000000" fill-rule="nonzero" stroke-linejoin="round" d="M 206.985812 -1.000886 L 208.984495 0.498828 L 206.985812 2.001345 Z M 206.985812 -1.000886 " stroke="#000000" stroke-width="1" stroke-opacity="1" stroke-miterlimit="4"/></g></g></g><g mask="url(#77c850a2b7)"><g transform="matrix(1, 0, 0, 1, 1, 310)"><g clip-path="url(#8d8f498dd1)"><g clip-path="url(#34039ac448)"><path stroke-linecap="butt" transform="matrix(-1.136556, 0.806269, -0.806269, -1.136556, 241.306751, 4.740959)" fill="none" stroke-linejoin="miter" d="M 0.000410122 0.501 L 206.734631 0.500842 " stroke="#000000" stroke-width="1" stroke-opacity="1" stroke-miterlimit="4"/></g><path stroke-linecap="round" transform="matrix(-1.136556, 0.806269, -0.806269, -1.136556, 241.306751, 4.740959)" fill-opacity="1" fill="#000000" fill-rule="nonzero" stroke-linejoin="round" d="M 206.984266 -0.999284 L 208.986372 0.500053 L 206.983572 2.000654 Z M 206.984266 -0.999284 " stroke="#000000" stroke-width="1" stroke-opacity="1" stroke-miterlimit="4"/></g></g></g><g mask="url(#33ab7dc387)"><g transform="matrix(1, 0, 0, 1, 240, 304)"><g clip-path="url(#cd228e8a05)"><g clip-path="url(#bc713abb1f)"><path stroke-linecap="butt" transform="matrix(1.393495, 0, 0, 1.393495, 1.904429, -4.588345)" fill="none" stroke-linejoin="miter" d="M 0.00130668 10.59223 L 206.734736 10.59223 " stroke="#000000" stroke-width="1" stroke-opacity="1" stroke-miterlimit="4"/></g><g clip-path="url(#463851d1f8)"><path fill="#000000" d="M 290.335938 8.082031 L 293.125 10.171875 L 290.335938 12.261719 Z M 290.335938 8.082031 " fill-opacity="1" fill-rule="nonzero"/></g><g clip-path="url(#a7193ea494)"><path stroke-linecap="round" transform="matrix(1.393495, 0, 0, 1.393495, 1.904429, -4.588345)" fill="none" stroke-linejoin="round" d="M 206.984221 9.092516 L 208.985708 10.59223 L 206.984221 12.091943 Z M 206.984221 9.092516 " stroke="#000000" stroke-width="1" stroke-opacity="1" stroke-miterlimit="4"/></g><g fill="#000000" fill-opacity="1"><g transform="translate(67.22453, 14.974616)"><g><path d="M 0 -7.3125 L 2.1875 -7.3125 L 3.5625 -3.203125 C 3.675781 -2.835938 3.757812 -2.410156 3.8125 -1.921875 L 3.84375 -1.921875 C 3.894531 -2.378906 3.988281 -2.804688 4.125 -3.203125 L 5.484375 -7.3125 L 7.625 -7.3125 L 4.53125 0.9375 C 4.238281 1.695312 3.832031 2.265625 3.3125 2.640625 C 2.789062 3.023438 2.175781 3.21875 1.46875 3.21875 C 1.125 3.21875 0.785156 3.179688 0.453125 3.109375 L 0.453125 1.53125 C 0.691406 1.582031 0.957031 1.609375 1.25 1.609375 C 1.59375 1.609375 1.894531 1.5 2.15625 1.28125 C 2.425781 1.070312 2.632812 0.75 2.78125 0.3125 L 2.90625 -0.046875 Z M 0 -7.3125 "/></g></g></g></g></g></g><g mask="url(#ec892d6c95)"><g transform="matrix(1, 0, 0, 1, 530, 317)"><g clip-path="url(#1432deafbf)"><g clip-path="url(#958717d0c8)"><g fill="#000000" fill-opacity="1"><g transform="translate(0.845455, 12.894914)"><g><path d="M 3.796875 -5.109375 L 5.609375 -8.6875 L 7.59375 -8.6875 L 4.71875 -3.375 L 4.71875 0 L 2.875 0 L 2.875 -3.328125 L 0 -8.6875 L 2 -8.6875 Z M 3.796875 -5.109375 "/></g></g></g></g></g></g></g><g mask="url(#7df672d9ed)"><g transform="matrix(1, 0, 0, 1, 5, 481)"><g clip-path="url(#70bf9e780f)"><g clip-path="url(#a07af5d87e)"><g fill="#000000" fill-opacity="1"><g transform="translate(0.810829, 13.641899)"><g><path d="M 8.125 0 L 6.015625 0 L 4 -3.28125 L 1.96875 0 L 0 0 L 2.875 -4.484375 L 0.1875 -8.6875 L 2.21875 -8.6875 L 4.09375 -5.5625 L 5.921875 -8.6875 L 7.90625 -8.6875 L 5.1875 -4.375 Z M 8.125 0 "/></g></g></g></g></g></g></g><g mask="url(#07f81abb2f)"><g transform="matrix(1, 0, 0, 1, 243, 306)"><g clip-path="url(#97fb883183)"><g clip-path="url(#413e4440b0)"><g clip-path="url(#02f558fe1f)"><g clip-path="url(#09d7f9fdee)"><path fill="#a49fa0" d="M 174.488281 8.785156 L 166.890625 12.277344 L 166.308594 11.007812 L 173.90625 7.519531 M 165.625 12.859375 L 158.027344 16.347656 L 157.445312 15.082031 L 165.042969 11.589844 M 156.761719 16.929688 L 149.164062 20.417969 L 148.582031 19.152344 L 156.179688 15.664062 M 147.894531 21 L 140.296875 24.492188 L 139.714844 23.226562 L 147.3125 19.734375 M 139.03125 25.074219 L 131.433594 28.5625 L 130.851562 27.296875 L 138.449219 23.804688 M 130.167969 29.144531 L 122.570312 32.632812 L 121.988281 31.367188 L 129.585938 27.878906 M 121.304688 33.214844 L 113.707031 36.707031 L 113.125 35.441406 L 120.722656 31.949219 M 112.441406 37.289062 L 104.84375 40.777344 L 104.261719 39.511719 L 111.859375 36.023438 M 103.574219 41.359375 L 95.976562 44.851562 L 95.394531 43.582031 L 102.996094 40.09375 M 94.710938 45.429688 L 87.113281 48.921875 L 86.53125 47.65625 L 94.128906 44.164062 M 85.847656 49.503906 L 78.25 52.992188 L 77.667969 51.726562 L 85.265625 48.238281 M 76.984375 53.574219 L 69.386719 57.066406 L 68.804688 55.796875 L 76.402344 52.308594 M 68.121094 57.648438 L 60.523438 61.136719 L 59.941406 59.871094 L 67.539062 56.378906 M 59.253906 61.71875 L 51.65625 65.207031 L 51.078125 63.941406 L 58.675781 60.453125 M 50.390625 65.789062 L 42.792969 69.28125 L 42.210938 68.015625 L 49.808594 64.523438 M 41.527344 69.863281 L 33.929688 73.351562 L 33.347656 72.085938 L 40.945312 68.59375 M 32.664062 73.933594 L 25.066406 77.421875 L 24.484375 76.15625 L 32.082031 72.667969 M 23.800781 78.003906 L 16.203125 81.496094 L 15.621094 80.230469 L 23.21875 76.738281 M 14.9375 82.078125 L 7.339844 85.566406 L 6.757812 84.300781 L 14.355469 80.8125 " fill-opacity="1" fill-rule="nonzero"/></g></g></g><g fill="#a49fa0" fill-opacity="1"><g transform="translate(74.477681, 70.913476)"><g><path d="M 2.578125 -14.84375 C 2.984375 -15.03125 3.335938 -15.148438 3.640625 -15.203125 L 4.71875 -12.265625 C 4.4375 -12.222656 4.125 -12.125 3.78125 -11.96875 C 2.820312 -11.53125 2.179688 -10.9375 1.859375 -10.1875 C 1.546875 -9.445312 1.597656 -8.628906 2.015625 -7.734375 L 4.59375 -2.109375 L 1.578125 -0.71875 L -3.5 -11.78125 L -1.21875 -12.84375 L 0.09375 -11.1875 L 0.234375 -11.25 C 0.285156 -12.03125 0.519531 -12.742188 0.9375 -13.390625 C 1.351562 -14.046875 1.898438 -14.53125 2.578125 -14.84375 Z M 2.578125 -14.84375 "/></g></g></g></g></g></g><g mask="url(#d911817443)"><g transform="matrix(1, 0, 0, 1, 466, 280)"><g clip-path="url(#1a942f2dc9)"><g clip-path="url(#3f7ddec0df)"><g clip-path="url(#557c206d3b)"><g clip-path="url(#c61bfa44eb)"><path stroke-linecap="butt" transform="matrix(-0.412806, -1.330947, 1.330947, -0.412806, 4.741882, 37.13658)" fill="none" stroke-linejoin="miter" d="M 0.252306 6.406216 C 6.855397 10.259215 13.458299 10.261515 20.063502 6.405083 " stroke="#a49fa0" stroke-width="1" stroke-opacity="1" stroke-miterlimit="4"/></g></g></g><g fill="#a49fa0" fill-opacity="1"><g transform="translate(9.991298, 18.39694)"><g><path d="M 4.96875 4.5 C 3.726562 4.8125 2.75 4.835938 2.03125 4.578125 C 1.3125 4.316406 0.847656 3.765625 0.640625 2.921875 C 0.429688 2.109375 0.585938 1.410156 1.109375 0.828125 C 1.640625 0.253906 2.503906 -0.179688 3.703125 -0.484375 C 4.953125 -0.804688 5.925781 -0.832031 6.625 -0.5625 C 7.332031 -0.300781 7.789062 0.238281 8 1.0625 C 8.207031 1.882812 8.054688 2.582031 7.546875 3.15625 C 7.035156 3.738281 6.175781 4.1875 4.96875 4.5 Z M 1.65625 2.671875 C 1.75 3.035156 1.992188 3.253906 2.390625 3.328125 C 2.796875 3.398438 3.363281 3.351562 4.09375 3.1875 L 3.5625 1.078125 C 2.84375 1.265625 2.320312 1.484375 2 1.734375 C 1.675781 1.992188 1.5625 2.304688 1.65625 2.671875 Z M 6.984375 1.34375 C 6.898438 1.007812 6.671875 0.796875 6.296875 0.703125 C 5.929688 0.617188 5.367188 0.660156 4.609375 0.828125 L 5.140625 2.921875 C 5.847656 2.710938 6.351562 2.484375 6.65625 2.234375 C 6.96875 1.984375 7.078125 1.6875 6.984375 1.34375 Z M 6.984375 1.34375 "/></g></g></g></g></g></g><g mask="url(#ae37374f66)"><g transform="matrix(1, 0, 0, 1, 413, 277)"><g clip-path="url(#98a5ef177e)"><g clip-path="url(#be3f894d6b)"><path stroke-linecap="butt" transform="matrix(1.273685, -0.565291, 0.565291, 1.273685, 2.642839, 35.306281)" fill="none" stroke-linejoin="miter" d="M 0.000694061 0.49896 L 54.005193 0.499695 " stroke="#ff0516" stroke-width="1" stroke-opacity="1" stroke-miterlimit="4"/></g><path stroke-linecap="round" transform="matrix(1.273685, -0.565291, 0.565291, 1.273685, 2.642839, 35.306281)" fill-opacity="1" fill="#ff0516" fill-rule="nonzero" stroke-linejoin="round" d="M 54.253744 -1.000108 L 56.255417 0.501659 L 54.256154 2.000378 Z M 54.253744 -1.000108 " stroke="#ff0516" stroke-width="1" stroke-opacity="1" stroke-miterlimit="4"/></g></g></g><g mask="url(#fd8295431a)"><g transform="matrix(1, 0, 0, 1, 412, 310)"><g clip-path="url(#e6428f089c)"><path stroke-linecap="butt" transform="matrix(1.393495, 0.000000000000000746, -0.000000000000000746, 1.393495, 2.230095, 3.475697)" fill="none" stroke-linejoin="miter" d="M 0.000268041 0.499591 L 50.342993 0.499591 " stroke="#f4711d" stroke-width="1" stroke-opacity="1" stroke-miterlimit="4"/><path stroke-linecap="round" transform="matrix(1.393495, 0.000000000000000746, -0.000000000000000746, 1.393495, 2.230095, 3.475697)" fill-opacity="1" fill="#f4711d" fill-rule="nonzero" stroke-linejoin="round" d="M 50.592479 -1.000123 L 52.591162 0.499591 L 50.592479 1.999305 Z M 50.592479 -1.000123 " stroke="#f4711d" stroke-width="1" stroke-opacity="1" stroke-miterlimit="4"/></g></g></g><g mask="url(#e8254f6734)"><g transform="matrix(1, 0, 0, 1, 411, 273)"><g clip-path="url(#9fc1f30955)"><path stroke-linecap="butt" transform="matrix(0, -1.393495, 1.393495, 0, 3.822688, 41.169315)" fill="none" stroke-linejoin="miter" d="M 0.000965852 0.500068 L 25.412002 0.500068 " stroke="#f4711d" stroke-width="1" stroke-opacity="1" stroke-miterlimit="4"/><path stroke-linecap="round" transform="matrix(0, -1.393495, 1.393495, 0, 3.822688, 41.169315)" fill-opacity="1" fill="#f4711d" fill-rule="nonzero" stroke-linejoin="round" d="M 25.661488 -0.999645 L 27.660171 0.500068 L 25.661488 1.999782 Z M 25.661488 -0.999645 " stroke="#f4711d" stroke-width="1" stroke-opacity="1" stroke-miterlimit="4"/></g></g></g><g mask="url(#ec78f848ec)"><g transform="matrix(1, 0, 0, 1, 220, 76)"><g clip-path="url(#ca362fd97b)"><g clip-path="url(#f17a08d38a)"><path fill="#ffffff" d="M 12.953125 13.28125 L 30.832031 13.28125 L 30.832031 396.46875 L 12.953125 396.46875 Z M 12.953125 13.28125 " fill-opacity="1" fill-rule="nonzero"/></g><g clip-path="url(#9b34d96abd)"><path stroke-linecap="butt" transform="matrix(1.393495, 0, 0, 1.393495, 12.95386, 13.295747)" fill="none" stroke-linejoin="miter" d="M -0.000527623 0.000809453 L 12.826931 0.000809453 L 12.826931 274.933392 L -0.000527623 274.933392 Z M -0.000527623 0.000809453 " stroke="#2e2d2d" stroke-width="4.299806" stroke-opacity="1" stroke-miterlimit="4"/></g></g></g></g><g mask="url(#f712b6fa97)"><g transform="matrix(1, 0, 0, 1, 235, 93)"><g clip-path="url(#137ee74a44)"><g fill="#ff0516" fill-opacity="1"><g transform="translate(1.850272, 19.479221)"><g><path d="M 4.09375 -5.234375 L 0.765625 -5.25 L 0.78125 -7.140625 L 4.109375 -7.125 L 4.125 -10.46875 L 6.015625 -10.453125 L 6 -7.109375 L 9.3125 -7.109375 L 9.296875 -5.21875 L 5.984375 -5.21875 L 5.984375 -1.921875 L 4.09375 -1.9375 Z M 4.09375 -5.234375 "/></g></g></g></g></g></g><g mask="url(#29efc10ac8)"><g transform="matrix(1, 0, 0, 1, 235, 120)"><g clip-path="url(#70ff83b907)"><g fill="#ff0516" fill-opacity="1"><g transform="translate(1.850272, 18.970537)"><g><path d="M 4.09375 -5.234375 L 0.765625 -5.25 L 0.78125 -7.140625 L 4.109375 -7.125 L 4.125 -10.46875 L 6.015625 -10.453125 L 6 -7.109375 L 9.3125 -7.109375 L 9.296875 -5.21875 L 5.984375 -5.21875 L 5.984375 -1.921875 L 4.09375 -1.9375 Z M 4.09375 -5.234375 "/></g></g></g></g></g></g><g mask="url(#83714d7dbd)"><g transform="matrix(1, 0, 0, 1, 235, 146)"><g clip-path="url(#467b2da08d)"><g fill="#ff0516" fill-opacity="1"><g transform="translate(1.850272, 19.461846)"><g><path d="M 4.09375 -5.234375 L 0.765625 -5.25 L 0.78125 -7.140625 L 4.109375 -7.125 L 4.125 -10.46875 L 6.015625 -10.453125 L 6 -7.109375 L 9.3125 -7.109375 L 9.296875 -5.21875 L 5.984375 -5.21875 L 5.984375 -1.921875 L 4.09375 -1.9375 Z M 4.09375 -5.234375 "/></g></g></g></g></g></g><g mask="url(#e768e94be8)"><g transform="matrix(1, 0, 0, 1, 235, 173)"><g clip-path="url(#1613ee8a18)"><g fill="#ff0516" fill-opacity="1"><g transform="translate(1.850272, 18.953155)"><g><path d="M 4.09375 -5.234375 L 0.765625 -5.25 L 0.78125 -7.140625 L 4.109375 -7.125 L 4.125 -10.46875 L 6.015625 -10.453125 L 6 -7.109375 L 9.3125 -7.109375 L 9.296875 -5.21875 L 5.984375 -5.21875 L 5.984375 -1.921875 L 4.09375 -1.9375 Z M 4.09375 -5.234375 "/></g></g></g></g></g></g><g mask="url(#077862c78b)"><g transform="matrix(1, 0, 0, 1, 235, 199)"><g clip-path="url(#e8bd7b09c4)"><g fill="#ff0516" fill-opacity="1"><g transform="translate(1.850272, 19.352539)"><g><path d="M 4.09375 -5.234375 L 0.765625 -5.25 L 0.78125 -7.140625 L 4.109375 -7.125 L 4.125 -10.46875 L 6.015625 -10.453125 L 6 -7.109375 L 9.3125 -7.109375 L 9.296875 -5.21875 L 5.984375 -5.21875 L 5.984375 -1.921875 L 4.09375 -1.9375 Z M 4.09375 -5.234375 "/></g></g></g></g></g></g><g mask="url(#36ca41fcc8)"><g transform="matrix(1, 0, 0, 1, 235, 225)"><g clip-path="url(#6aa3c9d9cb)"><g fill="#ff0516" fill-opacity="1"><g transform="translate(1.850272, 19.843848)"><g><path d="M 4.09375 -5.234375 L 0.765625 -5.25 L 0.78125 -7.140625 L 4.109375 -7.125 L 4.125 -10.46875 L 6.015625 -10.453125 L 6 -7.109375 L 9.3125 -7.109375 L 9.296875 -5.21875 L 5.984375 -5.21875 L 5.984375 -1.921875 L 4.09375 -1.9375 Z M 4.09375 -5.234375 "/></g></g></g></g></g></g><g mask="url(#fdd7f19fbc)"><g transform="matrix(1, 0, 0, 1, 235, 252)"><g clip-path="url(#13315d7533)"><g fill="#ff0516" fill-opacity="1"><g transform="translate(1.850272, 19.335186)"><g><path d="M 4.09375 -5.234375 L 0.765625 -5.25 L 0.78125 -7.140625 L 4.109375 -7.125 L 4.125 -10.46875 L 6.015625 -10.453125 L 6 -7.109375 L 9.3125 -7.109375 L 9.296875 -5.21875 L 5.984375 -5.21875 L 5.984375 -1.921875 L 4.09375 -1.9375 Z M 4.09375 -5.234375 "/></g></g></g></g></g></g><g mask="url(#17af202147)"><g transform="matrix(1, 0, 0, 1, 235, 278)"><g clip-path="url(#2fa1178a0c)"><g fill="#ff0516" fill-opacity="1"><g transform="translate(1.850272, 19.82648)"><g><path d="M 4.09375 -5.234375 L 0.765625 -5.25 L 0.78125 -7.140625 L 4.109375 -7.125 L 4.125 -10.46875 L 6.015625 -10.453125 L 6 -7.109375 L 9.3125 -7.109375 L 9.296875 -5.21875 L 5.984375 -5.21875 L 5.984375 -1.921875 L 4.09375 -1.9375 Z M 4.09375 -5.234375 "/></g></g></g></g></g></g><g mask="url(#85426c8e89)"><g transform="matrix(1, 0, 0, 1, 235, 303)"><g clip-path="url(#150e144793)"><g fill="#ff0516" fill-opacity="1"><g transform="translate(1.850272, 18.930286)"><g><path d="M 4.09375 -5.234375 L 0.765625 -5.25 L 0.78125 -7.140625 L 4.109375 -7.125 L 4.125 -10.46875 L 6.015625 -10.453125 L 6 -7.109375 L 9.3125 -7.109375 L 9.296875 -5.21875 L 5.984375 -5.21875 L 5.984375 -1.921875 L 4.09375 -1.9375 Z M 4.09375 -5.234375 "/></g></g></g></g></g></g><g mask="url(#90e48af6b7)"><g transform="matrix(1, 0, 0, 1, 235, 329)"><g clip-path="url(#d89e5cde2e)"><g fill="#ff0516" fill-opacity="1"><g transform="translate(1.850272, 19.421551)"><g><path d="M 4.09375 -5.234375 L 0.765625 -5.25 L 0.78125 -7.140625 L 4.109375 -7.125 L 4.125 -10.46875 L 6.015625 -10.453125 L 6 -7.109375 L 9.3125 -7.109375 L 9.296875 -5.21875 L 5.984375 -5.21875 L 5.984375 -1.921875 L 4.09375 -1.9375 Z M 4.09375 -5.234375 "/></g></g></g></g></g></g><g mask="url(#f90eec0c3f)"><g transform="matrix(1, 0, 0, 1, 235, 356)"><g clip-path="url(#f3b9341d80)"><g fill="#ff0516" fill-opacity="1"><g transform="translate(1.850272, 18.912875)"><g><path d="M 4.09375 -5.234375 L 0.765625 -5.25 L 0.78125 -7.140625 L 4.109375 -7.125 L 4.125 -10.46875 L 6.015625 -10.453125 L 6 -7.109375 L 9.3125 -7.109375 L 9.296875 -5.21875 L 5.984375 -5.21875 L 5.984375 -1.921875 L 4.09375 -1.9375 Z M 4.09375 -5.234375 "/></g></g></g></g></g></g><g mask="url(#514db3f4ce)"><g transform="matrix(1, 0, 0, 1, 235, 382)"><g clip-path="url(#30f4f0c029)"><g fill="#ff0516" fill-opacity="1"><g transform="translate(1.850272, 19.404169)"><g><path d="M 4.09375 -5.234375 L 0.765625 -5.25 L 0.78125 -7.140625 L 4.109375 -7.125 L 4.125 -10.46875 L 6.015625 -10.453125 L 6 -7.109375 L 9.3125 -7.109375 L 9.296875 -5.21875 L 5.984375 -5.21875 L 5.984375 -1.921875 L 4.09375 -1.9375 Z M 4.09375 -5.234375 "/></g></g></g></g></g></g><g mask="url(#6cb164cf0a)"><g transform="matrix(1, 0, 0, 1, 235, 409)"><g clip-path="url(#c6770c8e8c)"><g fill="#ff0516" fill-opacity="1"><g transform="translate(1.850272, 18.803568)"><g><path d="M 4.09375 -5.234375 L 0.765625 -5.25 L 0.78125 -7.140625 L 4.109375 -7.125 L 4.125 -10.46875 L 6.015625 -10.453125 L 6 -7.109375 L 9.3125 -7.109375 L 9.296875 -5.21875 L 5.984375 -5.21875 L 5.984375 -1.921875 L 4.09375 -1.9375 Z M 4.09375 -5.234375 "/></g></g></g></g></g></g><g mask="url(#d2b7aed95b)"><g transform="matrix(1, 0, 0, 1, 235, 435)"><g clip-path="url(#54feddf182)"><g fill="#ff0516" fill-opacity="1"><g transform="translate(1.850272, 19.294862)"><g><path d="M 4.09375 -5.234375 L 0.765625 -5.25 L 0.78125 -7.140625 L 4.109375 -7.125 L 4.125 -10.46875 L 6.015625 -10.453125 L 6 -7.109375 L 9.3125 -7.109375 L 9.296875 -5.21875 L 5.984375 -5.21875 L 5.984375 -1.921875 L 4.09375 -1.9375 Z M 4.09375 -5.234375 "/></g></g></g></g></g></g><g mask="url(#fab2d86d49)"><g transform="matrix(1, 0, 0, 1, 347, 309)"><g clip-path="url(#c1cd790cd8)"><g clip-path="url(#225a0e4605)"><g clip-path="url(#c1a1f05de2)"><g clip-path="url(#5073f789f7)"><path stroke-linecap="butt" transform="matrix(0.34238, 1.350779, -1.350779, 0.34238, 19.358465, 2.641745)" fill="none" stroke-linejoin="miter" d="M 0.269082 6.316817 C 6.293164 10.171672 12.31962 10.172293 18.343017 6.317304 " stroke="#a49fa0" stroke-width="1" stroke-opacity="1" stroke-miterlimit="4"/></g></g></g><g fill="#a49fa0" fill-opacity="1"><g transform="translate(7.912695, 15.931199)"><g><path d="M 5.0625 4.515625 C 3.800781 4.847656 2.804688 4.882812 2.078125 4.625 C 1.359375 4.375 0.890625 3.828125 0.671875 2.984375 C 0.453125 2.148438 0.609375 1.429688 1.140625 0.828125 C 1.671875 0.234375 2.539062 -0.21875 3.75 -0.53125 C 5.007812 -0.851562 6 -0.882812 6.71875 -0.625 C 7.4375 -0.375 7.90625 0.175781 8.125 1.03125 C 8.34375 1.851562 8.191406 2.5625 7.671875 3.15625 C 7.148438 3.75 6.28125 4.203125 5.0625 4.515625 Z M 1.703125 2.703125 C 1.796875 3.066406 2.046875 3.28125 2.453125 3.34375 C 2.867188 3.414062 3.441406 3.363281 4.171875 3.1875 L 3.609375 1.0625 C 2.898438 1.269531 2.378906 1.5 2.046875 1.75 C 1.722656 2.007812 1.609375 2.328125 1.703125 2.703125 Z M 7.09375 1.296875 C 7.007812 0.960938 6.78125 0.753906 6.40625 0.671875 C 6.03125 0.585938 5.457031 0.628906 4.6875 0.796875 L 5.234375 2.90625 C 5.941406 2.707031 6.453125 2.476562 6.765625 2.21875 C 7.078125 1.96875 7.1875 1.660156 7.09375 1.296875 Z M 7.09375 1.296875 "/></g></g></g></g></g></g><g mask="url(#8571ff93d0)"><g transform="matrix(1, 0, 0, 1, 412, 316)"><g clip-path="url(#c211eaaa1a)"><g fill="#000000" fill-opacity="1"><g transform="translate(0.862785, 15.164874)"><g><path d="M 3.328125 -5.203125 L 4.015625 -5.203125 C 4.648438 -5.203125 5.125 -5.328125 5.4375 -5.578125 C 5.757812 -5.835938 5.921875 -6.210938 5.921875 -6.703125 C 5.921875 -7.179688 5.785156 -7.535156 5.515625 -7.765625 C 5.253906 -8.003906 4.835938 -8.125 4.265625 -8.125 L 3.328125 -8.125 Z M 8.03125 -6.765625 C 8.03125 -5.710938 7.695312 -4.90625 7.03125 -4.34375 C 6.375 -3.78125 5.4375 -3.5 4.21875 -3.5 L 3.328125 -3.5 L 3.328125 0 L 1.234375 0 L 1.234375 -9.84375 L 4.375 -9.84375 C 5.570312 -9.84375 6.476562 -9.582031 7.09375 -9.0625 C 7.71875 -8.550781 8.03125 -7.785156 8.03125 -6.765625 Z M 8.03125 -6.765625 "/></g></g></g></g></g></g><g mask="url(#b44ec1827f)"><g transform="matrix(1, 0, 0, 1, 212, 311)"><g clip-path="url(#7cdc9fa3e4)"><g clip-path="url(#99b0e4400d)"><path stroke-linecap="butt" transform="matrix(0, -1.393495, 1.393495, 0, -5.465287, 78.329392)" fill="none" stroke-linejoin="miter" d="M 0.49988 9.761071 L 54.506392 9.761071 " stroke="#a49fa0" stroke-width="1" stroke-opacity="1" stroke-miterlimit="4"/></g><g clip-path="url(#5d829fe99f)"><path stroke-linecap="round" transform="matrix(0, -1.393495, 1.393495, 0, -5.465287, 78.329392)" fill="none" stroke-linejoin="round" d="M 2.501367 8.261358 L 0.49988 9.761071 L 2.501367 11.260785 " stroke="#a49fa0" stroke-width="1" stroke-opacity="1" stroke-miterlimit="4"/></g><g fill="#a49fa0" fill-opacity="1"><g transform="translate(11.530036, 43.10008)"><g><path d="M 0 -5.125 L 0 -0.296875 L -0.984375 -0.296875 L -4.828125 -3.125 L -4.828125 -0.46875 L -6.109375 -0.46875 L -6.109375 -5.03125 L -5.03125 -5.03125 L -1.265625 -2.265625 L -1.265625 -5.125 Z M 0 -5.125 "/></g></g></g></g></g></g><g mask="url(#ef1967c145)"><g transform="matrix(1, 0, 0, 1, 212, 387)"><g clip-path="url(#4d441f0dbf)"><g clip-path="url(#f9aa6d1ee7)"><path stroke-linecap="butt" transform="matrix(1.393495, 0, 0, 1.393495, 1.78142, 0.994969)" fill="none" stroke-linejoin="miter" d="M -0.00012174 0.499777 L 9.121501 0.499777 " stroke="#a49fa0" stroke-width="1" stroke-opacity="1" stroke-miterlimit="4"/></g></g></g></g><g mask="url(#793c219a05)"><g transform="matrix(1, 0, 0, 1, 212, 312)"><g clip-path="url(#b1a1576ad4)"><g clip-path="url(#561adc6245)"><path stroke-linecap="butt" transform="matrix(1.393495, 0, 0, 1.393495, 1.78142, 0.443904)" fill="none" stroke-linejoin="miter" d="M -0.00012174 0.499981 L 9.121501 0.499981 " stroke="#a49fa0" stroke-width="1" stroke-opacity="1" stroke-miterlimit="4"/></g></g></g></g><g mask="url(#7401b2fb4e)"><g transform="matrix(1, 0, 0, 1, 212, 401)"><g clip-path="url(#4c8290a91b)"><g clip-path="url(#79a53decad)"><path stroke-linecap="butt" transform="matrix(1.393495, 0, 0, 1.393495, 1.78142, 0.258843)" fill="none" stroke-linejoin="miter" d="M -0.00012174 0.501034 L 9.121501 0.501034 " stroke="#a49fa0" stroke-width="1" stroke-opacity="1" stroke-miterlimit="4"/></g></g></g></g><g mask="url(#bbd86a9c84)"><g transform="matrix(1, 0, 0, 1, 217, 401)"><g clip-path="url(#a1bcd2c259)"><g clip-path="url(#1e4378de61)"><path stroke-linecap="butt" transform="matrix(0, 1.393495, -1.393495, 0, 4.468336, 0.966473)" fill="none" stroke-linejoin="miter" d="M 0.500604 0.498673 L 15.15575 0.498673 " stroke="#a49fa0" stroke-width="1" stroke-opacity="1" stroke-miterlimit="4"/></g><g clip-path="url(#6d6280b43d)"><path stroke-linecap="round" transform="matrix(0, 1.393495, -1.393495, 0, 4.468336, 0.966473)" fill="none" stroke-linejoin="round" d="M 2.499288 -1.001041 L 0.500604 0.498673 L 2.499288 2.00119 " stroke="#a49fa0" stroke-width="1" stroke-opacity="1" stroke-miterlimit="4"/></g></g></g></g><g mask="url(#090c51f71e)"><g transform="matrix(1, 0, 0, 1, 195, 384)"><g clip-path="url(#f8243f9faa)"><g fill="#a49fa0" fill-opacity="1"><g transform="translate(0.904492, 12.484243)"><g><path d="M 2.8125 0.109375 C 2.09375 0.109375 1.523438 -0.164062 1.109375 -0.71875 C 0.703125 -1.28125 0.5 -2.054688 0.5 -3.046875 C 0.5 -4.046875 0.707031 -4.828125 1.125 -5.390625 C 1.539062 -5.953125 2.117188 -6.234375 2.859375 -6.234375 C 3.628906 -6.234375 4.210938 -5.929688 4.609375 -5.328125 L 4.671875 -5.328125 C 4.585938 -5.785156 4.546875 -6.191406 4.546875 -6.546875 L 4.546875 -8.515625 L 6.21875 -8.515625 L 6.21875 0 L 4.9375 0 L 4.609375 -0.796875 L 4.546875 -0.796875 C 4.171875 -0.191406 3.59375 0.109375 2.8125 0.109375 Z M 3.390625 -1.21875 C 3.816406 -1.21875 4.128906 -1.34375 4.328125 -1.59375 C 4.535156 -1.84375 4.644531 -2.265625 4.65625 -2.859375 L 4.65625 -3.03125 C 4.65625 -3.6875 4.550781 -4.15625 4.34375 -4.4375 C 4.144531 -4.726562 3.820312 -4.875 3.375 -4.875 C 3 -4.875 2.707031 -4.710938 2.5 -4.390625 C 2.289062 -4.078125 2.1875 -3.625 2.1875 -3.03125 C 2.1875 -2.425781 2.289062 -1.972656 2.5 -1.671875 C 2.707031 -1.367188 3.003906 -1.21875 3.390625 -1.21875 Z M 3.390625 -1.21875 "/></g></g></g><g clip-path="url(#4eadbcf183)"><g fill="#a49fa0" fill-opacity="1"><g transform="translate(7.990536, 12.484243)"><g><path d="M 5.125 0 L 0.296875 0 L 0.296875 -0.984375 L 3.140625 -4.84375 L 0.46875 -4.84375 L 0.46875 -6.109375 L 5.03125 -6.109375 L 5.03125 -5.03125 L 2.28125 -1.28125 L 5.125 -1.28125 Z M 5.125 0 "/></g></g></g></g></g></g></g><g mask="url(#8be7b3d738)"><g transform="matrix(1, 0, 0, 1, 489, 261)"><g clip-path="url(#0b00af30a5)"><g fill="#000000" fill-opacity="1"><g transform="translate(0.728294, 12.573538)"><g><path d="M 2.8125 0.109375 C 2.09375 0.109375 1.523438 -0.164062 1.109375 -0.71875 C 0.703125 -1.28125 0.5 -2.054688 0.5 -3.046875 C 0.5 -4.046875 0.707031 -4.828125 1.125 -5.390625 C 1.539062 -5.953125 2.117188 -6.234375 2.859375 -6.234375 C 3.628906 -6.234375 4.210938 -5.929688 4.609375 -5.328125 L 4.671875 -5.328125 C 4.585938 -5.785156 4.546875 -6.191406 4.546875 -6.546875 L 4.546875 -8.515625 L 6.21875 -8.515625 L 6.21875 0 L 4.9375 0 L 4.609375 -0.796875 L 4.546875 -0.796875 C 4.171875 -0.191406 3.59375 0.109375 2.8125 0.109375 Z M 3.390625 -1.21875 C 3.816406 -1.21875 4.128906 -1.34375 4.328125 -1.59375 C 4.535156 -1.84375 4.644531 -2.265625 4.65625 -2.859375 L 4.65625 -3.03125 C 4.65625 -3.6875 4.550781 -4.15625 4.34375 -4.4375 C 4.144531 -4.726562 3.820312 -4.875 3.375 -4.875 C 3 -4.875 2.707031 -4.710938 2.5 -4.390625 C 2.289062 -4.078125 2.1875 -3.625 2.1875 -3.03125 C 2.1875 -2.425781 2.289062 -1.972656 2.5 -1.671875 C 2.707031 -1.367188 3.003906 -1.21875 3.390625 -1.21875 Z M 3.390625 -1.21875 "/></g></g></g><g clip-path="url(#572c252043)"><g fill="#000000" fill-opacity="1"><g transform="translate(7.816468, 12.573538)"><g><path d="M 4.765625 0 L 0.296875 0 L 1.984375 -8 L 6.453125 -8 L 6.15625 -6.609375 L 3.359375 -6.609375 L 3 -4.859375 L 5.609375 -4.859375 L 5.296875 -3.46875 L 2.6875 -3.46875 L 2.25 -1.40625 L 5.046875 -1.40625 Z M 4.765625 0 "/></g></g></g></g></g></g></g><g mask="url(#7edab1af59)"><g transform="matrix(1, 0, 0, 1, 487, 315)"><g clip-path="url(#b833d3ae1f)"><g fill="#000000" fill-opacity="1"><g transform="translate(0.657946, 12.534322)"><g><path d="M 2.8125 0.109375 C 2.09375 0.109375 1.523438 -0.164062 1.109375 -0.71875 C 0.703125 -1.28125 0.5 -2.054688 0.5 -3.046875 C 0.5 -4.046875 0.707031 -4.828125 1.125 -5.390625 C 1.539062 -5.953125 2.117188 -6.234375 2.859375 -6.234375 C 3.628906 -6.234375 4.210938 -5.929688 4.609375 -5.328125 L 4.671875 -5.328125 C 4.585938 -5.785156 4.546875 -6.191406 4.546875 -6.546875 L 4.546875 -8.515625 L 6.21875 -8.515625 L 6.21875 0 L 4.9375 0 L 4.609375 -0.796875 L 4.546875 -0.796875 C 4.171875 -0.191406 3.59375 0.109375 2.8125 0.109375 Z M 3.390625 -1.21875 C 3.816406 -1.21875 4.128906 -1.34375 4.328125 -1.59375 C 4.535156 -1.84375 4.644531 -2.265625 4.65625 -2.859375 L 4.65625 -3.03125 C 4.65625 -3.6875 4.550781 -4.15625 4.34375 -4.4375 C 4.144531 -4.726562 3.820312 -4.875 3.375 -4.875 C 3 -4.875 2.707031 -4.710938 2.5 -4.390625 C 2.289062 -4.078125 2.1875 -3.625 2.1875 -3.03125 C 2.1875 -2.425781 2.289062 -1.972656 2.5 -1.671875 C 2.707031 -1.367188 3.003906 -1.21875 3.390625 -1.21875 Z M 3.390625 -1.21875 "/></g></g></g><g fill="#000000" fill-opacity="1"><g transform="translate(7.74612, 12.534322)"><g><path d="M 4.765625 0 L 0.296875 0 L 1.984375 -8 L 6.453125 -8 L 6.15625 -6.609375 L 3.359375 -6.609375 L 3 -4.859375 L 5.609375 -4.859375 L 5.296875 -3.46875 L 2.6875 -3.46875 L 2.25 -1.40625 L 5.046875 -1.40625 Z M 4.765625 0 "/></g></g></g><g fill="#000000" fill-opacity="1"><g transform="translate(13.824582, 12.534322)"><g><path d="M 4.140625 -2.59375 L 2.65625 1.015625 C 2.582031 1.203125 2.519531 1.394531 2.46875 1.59375 C 2.414062 1.789062 2.375 1.984375 2.34375 2.171875 C 2.320312 2.367188 2.3125 2.539062 2.3125 2.6875 L 1.171875 2.6875 C 1.171875 2.5625 1.1875 2.40625 1.21875 2.21875 C 1.25 2.03125 1.289062 1.832031 1.34375 1.625 C 1.394531 1.414062 1.457031 1.222656 1.53125 1.046875 L 0.015625 -2.59375 L 1.140625 -2.59375 L 1.71875 -0.96875 C 1.757812 -0.84375 1.804688 -0.703125 1.859375 -0.546875 C 1.910156 -0.390625 1.953125 -0.234375 1.984375 -0.078125 C 2.023438 0.078125 2.054688 0.191406 2.078125 0.265625 L 2.09375 0.265625 C 2.101562 0.191406 2.125 0.09375 2.15625 -0.03125 C 2.1875 -0.164062 2.222656 -0.3125 2.265625 -0.46875 C 2.316406 -0.632812 2.367188 -0.785156 2.421875 -0.921875 L 3 -2.59375 Z M 4.140625 -2.59375 "/></g></g></g></g></g></g><g mask="url(#ac64b95bb5)"><g transform="matrix(1, 0, 0, 1, 418, 253)"><g clip-path="url(#f5747b8691)"><g fill="#000000" fill-opacity="1"><g transform="translate(0.717224, 12.581973)"><g><path d="M 2.8125 0.109375 C 2.09375 0.109375 1.523438 -0.164062 1.109375 -0.71875 C 0.703125 -1.28125 0.5 -2.054688 0.5 -3.046875 C 0.5 -4.046875 0.707031 -4.828125 1.125 -5.390625 C 1.539062 -5.953125 2.117188 -6.234375 2.859375 -6.234375 C 3.628906 -6.234375 4.210938 -5.929688 4.609375 -5.328125 L 4.671875 -5.328125 C 4.585938 -5.785156 4.546875 -6.191406 4.546875 -6.546875 L 4.546875 -8.515625 L 6.21875 -8.515625 L 6.21875 0 L 4.9375 0 L 4.609375 -0.796875 L 4.546875 -0.796875 C 4.171875 -0.191406 3.59375 0.109375 2.8125 0.109375 Z M 3.390625 -1.21875 C 3.816406 -1.21875 4.128906 -1.34375 4.328125 -1.59375 C 4.535156 -1.84375 4.644531 -2.265625 4.65625 -2.859375 L 4.65625 -3.03125 C 4.65625 -3.6875 4.550781 -4.15625 4.34375 -4.4375 C 4.144531 -4.726562 3.820312 -4.875 3.375 -4.875 C 3 -4.875 2.707031 -4.710938 2.5 -4.390625 C 2.289062 -4.078125 2.1875 -3.625 2.1875 -3.03125 C 2.1875 -2.425781 2.289062 -1.972656 2.5 -1.671875 C 2.707031 -1.367188 3.003906 -1.21875 3.390625 -1.21875 Z M 3.390625 -1.21875 "/></g></g></g><g clip-path="url(#16a5da217b)"><g fill="#000000" fill-opacity="1"><g transform="translate(7.805397, 12.581973)"><g><path d="M 4.765625 0 L 0.296875 0 L 1.984375 -8 L 6.453125 -8 L 6.15625 -6.609375 L 3.359375 -6.609375 L 3 -4.859375 L 5.609375 -4.859375 L 5.296875 -3.46875 L 2.6875 -3.46875 L 2.25 -1.40625 L 5.046875 -1.40625 Z M 4.765625 0 "/></g></g></g></g></g></g></g><g mask="url(#4a7fe50471)"><g transform="matrix(1, 0, 0, 1, 431, 260)"><g clip-path="url(#641c361f98)"><g clip-path="url(#e610e1306a)"><g fill="#000000" fill-opacity="1"><g transform="translate(0.714955, 8.087909)"><g><path d="M 3.15625 0 L 0.1875 0 L 0.1875 -0.609375 L 1.921875 -2.984375 L 0.296875 -2.984375 L 0.296875 -3.765625 L 3.09375 -3.765625 L 3.09375 -3.09375 L 1.40625 -0.78125 L 3.15625 -0.78125 Z M 3.15625 0 "/></g></g></g></g></g></g></g><g mask="url(#47a1a05d97)"><g transform="matrix(1, 0, 0, 1, 254, 391)"><g clip-path="url(#ed0b7d47b2)"><g fill="#000000" fill-opacity="1"><g transform="translate(0.683214, 12.118828)"><g><path d="M 2.8125 0.109375 C 2.09375 0.109375 1.523438 -0.164062 1.109375 -0.71875 C 0.703125 -1.28125 0.5 -2.054688 0.5 -3.046875 C 0.5 -4.046875 0.707031 -4.828125 1.125 -5.390625 C 1.539062 -5.953125 2.117188 -6.234375 2.859375 -6.234375 C 3.628906 -6.234375 4.210938 -5.929688 4.609375 -5.328125 L 4.671875 -5.328125 C 4.585938 -5.785156 4.546875 -6.191406 4.546875 -6.546875 L 4.546875 -8.515625 L 6.21875 -8.515625 L 6.21875 0 L 4.9375 0 L 4.609375 -0.796875 L 4.546875 -0.796875 C 4.171875 -0.191406 3.59375 0.109375 2.8125 0.109375 Z M 3.390625 -1.21875 C 3.816406 -1.21875 4.128906 -1.34375 4.328125 -1.59375 C 4.535156 -1.84375 4.644531 -2.265625 4.65625 -2.859375 L 4.65625 -3.03125 C 4.65625 -3.6875 4.550781 -4.15625 4.34375 -4.4375 C 4.144531 -4.726562 3.820312 -4.875 3.375 -4.875 C 3 -4.875 2.707031 -4.710938 2.5 -4.390625 C 2.289062 -4.078125 2.1875 -3.625 2.1875 -3.03125 C 2.1875 -2.425781 2.289062 -1.972656 2.5 -1.671875 C 2.707031 -1.367188 3.003906 -1.21875 3.390625 -1.21875 Z M 3.390625 -1.21875 "/></g></g></g><g fill="#000000" fill-opacity="1"><g transform="translate(7.769257, 12.118828)"><g><path d="M 3.40625 -1.203125 C 3.832031 -1.203125 4.144531 -1.320312 4.34375 -1.5625 C 4.539062 -1.800781 4.644531 -2.222656 4.65625 -2.828125 L 4.65625 -3.03125 C 4.65625 -3.6875 4.550781 -4.15625 4.34375 -4.4375 C 4.144531 -4.726562 3.820312 -4.875 3.375 -4.875 C 2.59375 -4.875 2.203125 -4.257812 2.203125 -3.03125 C 2.203125 -2.414062 2.300781 -1.957031 2.5 -1.65625 C 2.695312 -1.351562 3 -1.203125 3.40625 -1.203125 Z M 2.8125 0.109375 C 2.09375 0.109375 1.523438 -0.164062 1.109375 -0.71875 C 0.703125 -1.28125 0.5 -2.054688 0.5 -3.046875 C 0.5 -4.046875 0.707031 -4.828125 1.125 -5.390625 C 1.539062 -5.953125 2.113281 -6.234375 2.84375 -6.234375 C 3.226562 -6.234375 3.5625 -6.160156 3.84375 -6.015625 C 4.132812 -5.867188 4.390625 -5.640625 4.609375 -5.328125 L 4.65625 -5.328125 L 4.8125 -6.109375 L 6.21875 -6.109375 L 6.21875 2.6875 L 4.546875 2.6875 L 4.546875 0.125 C 4.546875 -0.09375 4.566406 -0.398438 4.609375 -0.796875 L 4.546875 -0.796875 C 4.367188 -0.492188 4.128906 -0.265625 3.828125 -0.109375 C 3.535156 0.0351562 3.195312 0.109375 2.8125 0.109375 Z M 2.8125 0.109375 "/></g></g></g></g></g></g></svg>