<svg xmlns="http://www.w3.org/2000/svg" xmlns:xlink="http://www.w3.org/1999/xlink" width="213" zoomAndPan="magnify" viewBox="0 0 159.75 101.249998" height="135" preserveAspectRatio="xMidYMid meet" version="1.0"><defs><g/><clipPath id="ff9bc986dc"><path d="M 12.34375 0 L 158.347656 0 L 158.347656 82.429688 L 12.34375 82.429688 Z M 12.34375 0 " clip-rule="nonzero"/></clipPath><clipPath id="2b2293a829"><path d="M 12.34375 0 L 12.34375 82.125 L 158.347656 82.125 C 109.679688 54.75 61.011719 27.375 12.34375 0 Z M 12.34375 0 " clip-rule="nonzero"/></clipPath><clipPath id="3989289362"><path d="M 98 52 L 116 52 L 116 84 L 98 84 Z M 98 52 " clip-rule="nonzero"/></clipPath><clipPath id="6bf374a5ab"><path d="M 116.335938 55.378906 L 109.230469 85.015625 L 92.929688 81.109375 L 100.035156 51.472656 Z M 116.335938 55.378906 " clip-rule="nonzero"/></clipPath><clipPath id="653085b97b"><path d="M 115.109375 56.128906 L 108.597656 83.300781 L 110.609375 74.910156 L 113.066406 64.585938 L 98.832031 61.203125 L 96.375 71.523438 L 94.355469 79.886719 L 100.867188 52.714844 Z M 108.597656 83.300781 L 94.355469 79.886719 L 96.375 71.523438 L 110.609375 74.910156 Z M 108.597656 83.300781 " clip-rule="nonzero"/></clipPath></defs><g clip-path="url(#ff9bc986dc)"><g clip-path="url(#2b2293a829)"><path fill="#928df4" d="M 12.34375 0 L 158.347656 0 L 158.347656 82.125 L 12.34375 82.125 Z M 12.34375 0 " fill-opacity="1" fill-rule="nonzero"/><path fill="#928df4" d="M 12.34375 0 L 158.347656 0 L 158.347656 82.125 L 12.34375 82.125 Z M 12.34375 0 " fill-opacity="1" fill-rule="nonzero"/></g></g><g clip-path="url(#3989289362)"><g clip-path="url(#6bf374a5ab)"><g clip-path="url(#653085b97b)"><path stroke-linecap="butt" transform="matrix(-0.118376, 0.493978, -0.493978, -0.118376, 115.109865, 56.129095)" fill="none" stroke-linejoin="miter" d="M 0.417915 8.180255 C 18.471881 16.498307 36.532574 16.495797 54.586832 8.183787 " stroke="#000000" stroke-width="2" stroke-opacity="1" stroke-miterlimit="4"/></g></g></g><g fill="#000000" fill-opacity="1"><g transform="translate(107.132893, 71.131428)"><g><path d="M -1.9375 -5.25 C -0.882812 -5 -0.148438 -4.640625 0.265625 -4.171875 C 0.691406 -3.710938 0.820312 -3.128906 0.65625 -2.421875 C 0.5 -1.734375 0.113281 -1.273438 -0.5 -1.046875 C -1.113281 -0.816406 -1.925781 -0.820312 -2.9375 -1.0625 C -3.976562 -1.3125 -4.707031 -1.671875 -5.125 -2.140625 C -5.550781 -2.609375 -5.679688 -3.191406 -5.515625 -3.890625 C -5.347656 -4.578125 -4.960938 -5.035156 -4.359375 -5.265625 C -3.753906 -5.492188 -2.945312 -5.488281 -1.9375 -5.25 Z M -0.203125 -2.625 C -0.128906 -2.925781 -0.222656 -3.175781 -0.484375 -3.375 C -0.753906 -3.582031 -1.195312 -3.769531 -1.8125 -3.9375 L -2.21875 -2.171875 C -1.613281 -2.035156 -1.144531 -2 -0.8125 -2.0625 C -0.476562 -2.125 -0.273438 -2.3125 -0.203125 -2.625 Z M -4.671875 -3.703125 C -4.734375 -3.410156 -4.644531 -3.160156 -4.40625 -2.953125 C -4.164062 -2.742188 -3.726562 -2.554688 -3.09375 -2.390625 L -2.6875 -4.140625 C -3.28125 -4.253906 -3.738281 -4.28125 -4.0625 -4.21875 C -4.394531 -4.164062 -4.597656 -3.992188 -4.671875 -3.703125 Z M -4.671875 -3.703125 "/></g></g></g><g fill="#000000" fill-opacity="1"><g transform="translate(62.156388, 93.606281)"><g><path d="M 0 -6.65625 L 1.984375 -6.65625 L 3.25 -2.90625 C 3.351562 -2.582031 3.425781 -2.195312 3.46875 -1.75 L 3.5 -1.75 C 3.539062 -2.164062 3.625 -2.550781 3.75 -2.90625 L 4.984375 -6.65625 L 6.9375 -6.65625 L 4.125 0.84375 C 3.863281 1.539062 3.492188 2.0625 3.015625 2.40625 C 2.535156 2.75 1.976562 2.921875 1.34375 2.921875 C 1.03125 2.921875 0.722656 2.890625 0.421875 2.828125 L 0.421875 1.390625 C 0.640625 1.441406 0.875 1.46875 1.125 1.46875 C 1.445312 1.46875 1.726562 1.367188 1.96875 1.171875 C 2.207031 0.972656 2.394531 0.675781 2.53125 0.28125 L 2.640625 -0.046875 Z M 0 -6.65625 "/></g></g></g><g fill="#000000" fill-opacity="1"><g transform="translate(4.280701, 47.328043)"><g><path d="M 5.578125 0 L 0.328125 0 L 0.328125 -1.078125 L 3.40625 -5.265625 L 0.515625 -5.265625 L 0.515625 -6.65625 L 5.46875 -6.65625 L 5.46875 -5.46875 L 2.46875 -1.390625 L 5.578125 -1.390625 Z M 5.578125 0 "/></g></g></g><g fill="#000000" fill-opacity="1"><g transform="translate(78.636165, 34.059423)"><g><path d="M 3.953125 0.078125 L 2.859375 0.078125 L 1.265625 -4.296875 L 0.21875 -4.296875 L 0.21875 -5.5625 L 2.15625 -5.5625 L 3.375 -2.203125 L 6.296875 -10.453125 L 7.59375 -10.453125 Z M 3.953125 0.078125 "/></g></g><g transform="translate(85.326996, 34.059423)"><g><path d="M 5.578125 0 L 0.328125 0 L 0.328125 -1.078125 L 3.40625 -5.265625 L 0.515625 -5.265625 L 0.515625 -6.65625 L 5.46875 -6.65625 L 5.46875 -5.46875 L 2.46875 -1.390625 L 5.578125 -1.390625 Z M 5.578125 0 "/></g></g><g transform="translate(91.273739, 34.059423)"><g><path d="M 4.171875 -3.484375 L 0.328125 -3.484375 L 0.328125 -4.484375 L 1.65625 -5.796875 C 2.0625 -6.191406 2.320312 -6.476562 2.4375 -6.65625 C 2.550781 -6.832031 2.609375 -7.019531 2.609375 -7.21875 C 2.609375 -7.363281 2.5625 -7.472656 2.46875 -7.546875 C 2.375 -7.628906 2.242188 -7.671875 2.078125 -7.671875 C 1.753906 -7.671875 1.398438 -7.5 1.015625 -7.15625 L 0.28125 -8.0625 C 0.863281 -8.570312 1.53125 -8.828125 2.28125 -8.828125 C 2.820312 -8.828125 3.25 -8.691406 3.5625 -8.421875 C 3.875 -8.160156 4.03125 -7.800781 4.03125 -7.34375 C 4.03125 -7 3.9375 -6.675781 3.75 -6.375 C 3.5625 -6.082031 3.210938 -5.707031 2.703125 -5.25 L 2.078125 -4.671875 L 4.171875 -4.671875 Z M 4.171875 -3.484375 "/></g></g><g transform="translate(95.893031, 34.059423)"><g/></g><g transform="translate(99.059865, 34.059423)"><g><path d="M 2.828125 -3.640625 L 0.53125 -3.640625 L 0.53125 -4.9375 L 2.828125 -4.9375 L 2.828125 -7.265625 L 4.125 -7.265625 L 4.125 -4.9375 L 6.4375 -4.9375 L 6.4375 -3.640625 L 4.125 -3.640625 L 4.125 -1.34375 L 2.828125 -1.34375 Z M 2.828125 -3.640625 "/></g></g><g transform="translate(106.018566, 34.059423)"><g/></g><g transform="translate(109.185401, 34.059423)"><g><path d="M 0 -6.65625 L 1.984375 -6.65625 L 3.25 -2.90625 C 3.351562 -2.582031 3.425781 -2.195312 3.46875 -1.75 L 3.5 -1.75 C 3.539062 -2.164062 3.625 -2.550781 3.75 -2.90625 L 4.984375 -6.65625 L 6.9375 -6.65625 L 4.125 0.84375 C 3.863281 1.539062 3.492188 2.0625 3.015625 2.40625 C 2.535156 2.75 1.976562 2.921875 1.34375 2.921875 C 1.03125 2.921875 0.722656 2.890625 0.421875 2.828125 L 0.421875 1.390625 C 0.640625 1.441406 0.875 1.46875 1.125 1.46875 C 1.445312 1.46875 1.726562 1.367188 1.96875 1.171875 C 2.207031 0.972656 2.394531 0.675781 2.53125 0.28125 L 2.640625 -0.046875 Z M 0 -6.65625 "/></g></g><g transform="translate(116.120291, 34.059423)"><g><path d="M 4.171875 -3.484375 L 0.328125 -3.484375 L 0.328125 -4.484375 L 1.65625 -5.796875 C 2.0625 -6.191406 2.320312 -6.476562 2.4375 -6.65625 C 2.550781 -6.832031 2.609375 -7.019531 2.609375 -7.21875 C 2.609375 -7.363281 2.5625 -7.472656 2.46875 -7.546875 C 2.375 -7.628906 2.242188 -7.671875 2.078125 -7.671875 C 1.753906 -7.671875 1.398438 -7.5 1.015625 -7.15625 L 0.28125 -8.0625 C 0.863281 -8.570312 1.53125 -8.828125 2.28125 -8.828125 C 2.820312 -8.828125 3.25 -8.691406 3.5625 -8.421875 C 3.875 -8.160156 4.03125 -7.800781 4.03125 -7.34375 C 4.03125 -7 3.9375 -6.675781 3.75 -6.375 C 3.5625 -6.082031 3.210938 -5.707031 2.703125 -5.25 L 2.078125 -4.671875 L 4.171875 -4.671875 Z M 4.171875 -3.484375 "/></g></g></g><path stroke-linecap="butt" transform="matrix(0.507963, -0.000000000000000441, 0.000000000000000441, 0.507963, 85.383608, 24.103342)" fill="none" stroke-linejoin="miter" d="M -0.00156571 0.996201 L 69.608521 0.996201 " stroke="#000000" stroke-width="2" stroke-opacity="1" stroke-miterlimit="4"/></svg>